<svg width="150" height="32" viewBox="0 0 150 32" fill="none" xmlns="http://www.w3.org/2000/svg">
<path d="M17.0596 1.36229C17.0212 1.05529 17.2707 0.882612 17.2323 0.671552C17.0404 0.613991 17.2899 0.345367 17.1172 0.249431C16.8102 0.498865 17.0788 0.0191872 16.9061 0C16.4456 0.460493 16.0043 0.978548 15.6206 1.53498C14.1815 3.77988 13.0495 6.06316 12.1477 8.53831C11.9558 8.86449 11.8215 9.20986 11.7256 9.59361C11.5721 9.76629 11.5529 10.1308 11.4569 10.3227C11.5721 10.5338 11.361 10.6681 11.3802 10.8791C11.2459 10.8983 11.3418 11.1861 11.2075 11.0326C11.1116 11.0326 11.3226 11.3588 11.1691 11.5507C11.1499 11.7042 11.0156 11.6274 10.9964 11.7042C11.1883 11.7809 10.7854 11.7618 10.9964 11.8961C11.0732 11.9728 10.9581 12.1071 10.9197 12.2031C10.843 12.0688 10.8238 12.3566 10.747 12.4333C10.7086 12.4525 10.8621 12.4333 10.8046 12.5101C10.6703 12.7019 10.8046 12.6827 10.7854 12.8554C10.747 12.8746 10.747 12.913 10.7086 12.8938C10.6703 12.8554 10.7278 12.8171 10.6703 12.8171C10.7278 12.913 10.5168 13.431 10.5168 13.431H10.6511C10.6511 13.431 10.9197 13.2775 10.4208 13.9491C10.4016 13.8724 10.3441 13.8148 10.3633 13.9491C10.4592 14.1985 10.1522 14.2561 10.2673 14.4096C10.1906 14.6015 10.3057 14.8893 10.0563 14.966C10.0947 15.0428 10.1522 14.966 10.133 15.0811C9.92197 16.1364 9.82603 16.1364 9.82603 16.1364C9.82603 16.1364 9.99872 16.2899 9.86441 16.3667C9.76847 16.2516 9.76847 16.5969 9.82603 16.4818C9.88359 16.6161 9.76847 16.8272 9.80684 16.9999C9.73009 17.0766 9.49985 17.3452 9.73009 17.115C9.59578 17.326 9.69172 17.7098 9.49985 17.8441C9.61497 17.9976 9.46147 18.2278 9.51904 18.343C9.32716 18.5348 9.4231 18.8035 9.30798 19.0337C9.34635 19.1105 9.34635 19.2064 9.2696 19.2448C9.17367 19.6861 9.15448 20.0698 9.07773 20.5495C9.07773 20.6646 9.00098 20.8373 8.94342 20.8181C8.84748 21.1827 8.84748 21.8542 8.69399 22.3339C8.80911 22.6601 8.65561 23.0247 8.63642 23.3125C8.6748 23.3125 8.69399 23.3316 8.73236 23.3316C8.75155 23.3508 8.77073 23.37 8.77073 23.3892C8.54049 23.3508 8.80911 23.5619 8.63642 23.5811C8.61724 23.6003 8.61724 23.6195 8.61724 23.6195C8.63642 23.6003 8.69399 23.5811 8.69399 23.6386C8.48293 23.773 8.77073 24.0224 8.59805 24.1567C8.50211 24.4637 8.44455 24.7899 8.46374 25.0393C8.57886 25.1161 8.34862 25.2312 8.46374 25.2312C8.54049 25.2696 8.44455 25.2887 8.42536 25.3271C8.38699 25.4614 8.25268 25.73 8.42536 25.8452C8.59805 25.7492 8.38699 25.8068 8.38699 25.7109C8.46374 25.6725 8.48293 25.5957 8.54049 25.5574C8.32943 25.3463 8.96261 25.2504 8.54049 25.0777C8.65561 24.9817 8.63642 25.1352 8.71317 25.1544C8.80911 24.9817 8.61724 24.8858 8.59805 24.7323C8.90504 24.598 8.8283 24.4061 8.94342 24.0799C8.75155 23.9265 9.1161 23.8689 9.1161 23.7346C8.69399 23.5811 9.40391 23.4276 9.15448 23.159C9.19285 23.1014 9.30798 22.8712 9.15448 23.0438C9.21204 22.9671 9.07773 22.8136 9.25041 22.8328C9.21204 22.6793 9.34635 22.5066 9.36554 22.3531C9.51903 22.238 9.28879 22.0077 9.49985 21.9502C9.40391 21.8542 9.36554 21.6624 9.48066 21.6624C9.59578 21.6624 9.59578 21.4513 9.49985 21.3746C9.73009 20.8565 9.71091 20.3576 9.82603 19.9739C9.86441 19.8396 9.8644 19.6477 9.94115 19.571C9.94115 18.8227 10.3441 18.1511 10.4784 17.4604C10.6127 17.3261 10.4592 17.0191 10.6895 17.0766C10.44 17.6139 10.4784 18.1703 10.229 18.6692C10.3441 18.8418 10.1714 19.4558 10.0179 19.7053C9.96034 19.8012 9.90278 19.9739 9.99872 20.089C9.90278 20.3193 9.78766 20.4536 9.88359 20.703C9.76847 20.8181 10.0371 21.1443 9.74928 21.2978C9.61497 21.931 9.44229 22.4874 9.40391 23.1014C9.44229 23.0438 9.40391 23.0055 9.46147 22.9863C9.51903 23.0247 9.49985 23.0822 9.48066 23.1398C9.40391 23.1782 9.44229 23.5427 9.32716 23.3316C9.13529 23.6386 9.2696 23.9456 9.1161 24.291C9.28879 24.5596 8.88586 24.6364 9.02017 24.905C9.02017 25.0585 8.88586 25.2312 8.86667 25.3847C8.90504 25.5382 8.92423 25.4039 8.92423 25.3655C9.02017 25.2887 9.03935 25.4039 9.02017 25.4806C9.03935 25.4039 9.1161 25.3655 9.09692 25.2696C9.09692 25.1928 9.03936 25.1352 9.03936 25.2696C9.00098 25.2887 9.00098 25.3079 8.96261 25.2887C8.94342 25.2696 8.92423 25.2504 8.94342 25.212C8.98179 25.1161 9.07773 24.8282 9.09692 25.0777C9.21204 24.7899 9.32716 24.291 9.34635 23.9648C9.36554 23.9648 9.38473 23.9264 9.4231 23.9264C9.36554 23.677 9.65335 23.5043 9.61497 23.2741C9.61497 23.2357 9.65335 23.1206 9.67253 23.0438C9.59578 23.1398 9.59578 23.0055 9.55741 22.9479C9.82603 22.852 9.63416 22.6217 9.80684 22.4874C9.90278 22.9479 9.59578 23.466 9.67253 23.8881C9.71091 23.6578 9.73009 23.5043 9.74928 23.3316C9.82603 23.2357 9.8644 23.1206 9.84522 22.9671C9.97953 22.7944 9.92197 22.6025 10.0179 22.449C10.133 22.3531 10.0563 22.2188 10.1522 22.2188C10.133 22.1804 10.0755 22.1996 10.0755 22.1612C10.1714 22.1229 10.0371 21.835 10.1906 22.0269C10.2865 21.9694 10.0563 21.6432 10.2865 21.6048C10.1714 21.2786 10.5935 21.01 10.4592 20.6838C10.44 20.5111 10.5168 20.3001 10.5743 20.0314C10.7086 19.9739 10.5935 19.6861 10.7662 19.8396C10.5935 20.7222 10.4784 21.5089 10.2865 22.3915C10.4208 22.2764 10.3441 22.1804 10.4784 22.1612C10.3633 21.835 10.5743 21.8159 10.5743 21.6624C10.6127 21.6048 10.4592 21.5472 10.5743 21.4705C10.6703 21.4897 10.6127 21.4513 10.5743 21.4129C10.7278 21.2019 10.6703 21.4897 10.7086 21.528C10.7278 21.4705 10.7086 21.4513 10.7086 21.4129C10.747 21.3745 10.7662 21.2594 10.8238 21.3746C10.6319 21.8542 10.9197 21.2402 10.8621 21.2786C10.6895 21.3937 10.5935 21.317 10.6319 21.1443C10.5935 20.9332 10.747 20.8757 10.8621 20.703C10.9197 20.7797 10.9005 20.8949 10.8813 20.9716C10.9581 20.7797 10.9197 20.5687 11.1116 20.4919C10.9197 20.4536 11.0924 20.2041 10.9005 20.2809C10.8046 20.2425 10.843 20.1466 10.9197 20.089C11.1116 19.9931 10.9389 20.1849 11.0156 20.2617C11.1116 20.0314 11.054 20.1082 11.2075 19.8779C11.1116 19.782 11.2075 19.6861 11.2075 19.6477C11.2459 19.4942 11.361 19.3023 11.4378 19.1105C11.4378 18.957 11.2075 19.0337 11.1308 19.1105C11.0924 19.0721 11.1308 18.9953 11.1308 18.957C11.2075 18.8418 11.4569 18.957 11.3226 18.8802C11.4186 18.8227 11.5529 18.8035 11.5529 18.6692C11.361 18.4581 11.668 18.3813 11.5529 18.1895C11.5721 18.1511 11.6104 18.1703 11.6488 18.1703C11.668 18.1895 11.6872 18.2087 11.6872 18.247C11.7448 18.1703 11.7639 18.036 11.7448 17.9592C11.4953 17.7865 11.8791 17.8441 11.8791 17.6906C11.8791 17.5755 11.7831 17.6714 11.8407 17.729C11.8023 17.7482 11.7831 17.8057 11.7448 17.7865C11.7639 17.5179 11.8215 17.1726 11.975 16.9615C12.0134 17.1342 12.2628 16.6353 11.975 16.9039C11.975 16.8272 11.975 16.7696 11.975 16.7121C12.0134 16.4242 12.0901 16.8464 11.9558 16.5202C12.0134 16.5394 12.0709 16.5202 12.1093 16.5202C11.9942 16.3283 12.3971 16.1364 12.1093 16.194C11.9558 16.0021 12.1669 16.1364 12.2244 16.0213C12.282 15.8678 12.3204 15.7143 12.3396 15.6376C12.2436 15.5992 12.3587 15.58 12.3779 15.5608C12.4355 15.273 12.4739 15.369 12.2628 15.4457C12.2052 15.4073 12.3012 15.3498 12.282 15.2922C12.7425 15.2155 12.5122 14.6974 12.7041 14.5247C12.6466 14.4096 12.8384 14.5439 12.8 14.3712C12.7617 14.3137 12.9344 14.2369 12.7809 14.2561C12.7041 14.1793 12.8192 14.1218 12.8384 14.0642C12.8768 14.1026 12.8576 14.141 12.8576 14.1793C12.9344 14.045 12.9535 13.8915 13.0111 13.7572C12.9535 13.834 12.9344 13.8724 12.896 13.9683C12.7617 13.6613 13.3757 13.7189 12.9727 13.6037C12.9919 13.5078 13.107 13.431 13.0303 13.3159C13.0687 13.2967 13.1262 13.1816 13.1646 13.2775C13.1262 13.3351 13.0303 13.6997 13.1454 13.4502C13.2797 13.2967 13.2222 13.0281 13.3757 12.9322C13.2414 12.8171 13.2797 13.1049 13.1646 13.1432C13.203 13.0281 12.9919 12.9897 13.1838 12.9706C13.1838 12.9322 13.2222 12.8554 13.1646 12.8554C13.1838 12.8554 13.2797 12.606 13.3949 12.7787C13.6443 12.5101 13.3757 12.8171 13.2797 12.6252C13.1838 12.4333 13.4332 12.4141 13.5292 12.3182C13.4908 12.3182 13.4524 12.299 13.4524 12.2606C13.51 12.2031 13.5867 12.1839 13.6443 12.1647C13.721 12.0304 13.6827 11.9536 13.7594 11.8577C14.1048 11.167 14.3542 10.3611 14.642 9.61279C14.5269 9.67035 14.5461 9.86223 14.4118 9.91979C14.3542 9.78548 14.5269 9.70873 14.4885 9.55523C14.8147 8.90286 14.9874 8.11619 15.3903 7.54057C15.8124 6.61959 16.1002 5.67941 16.5224 4.73924C16.5416 4.66249 16.6567 4.48981 16.6951 4.45143C16.7526 4.39387 16.6951 4.45143 16.5416 4.52818C16.6567 4.18281 17.0212 3.54963 16.9061 3.56882C16.8485 3.68394 16.8102 3.72232 16.7334 3.79907C16.7334 3.60719 16.9829 3.3002 16.9061 3.05077C17.1172 2.74377 16.9253 2.36003 17.1555 2.01466C17.0404 2.03384 17.0212 1.91872 17.0212 1.8036C17.002 1.61172 17.2515 1.20879 17.0596 1.36229ZM8.92423 20.8373C8.92423 20.8565 8.98179 20.9716 8.98179 20.9908C8.88586 20.9908 8.92423 20.8565 8.92423 20.8373ZM10.2481 14.2561C10.2673 14.2561 10.3249 14.2753 10.3441 14.2945C10.3249 14.4096 10.229 14.2945 10.2481 14.2561ZM9.05854 24.7899H9.07773C9.07773 24.8091 9.05854 24.8474 9.05854 24.7899ZM9.13529 24.2334C9.13529 24.291 9.17367 24.3294 9.17367 24.3869C9.15448 24.4061 9.13529 24.4061 9.13529 24.2334ZM9.82603 22.238C9.82603 22.2764 9.82603 22.3147 9.82603 22.3531C9.82603 22.3531 9.78766 22.3531 9.82603 22.238ZM9.94115 21.5664C9.96034 21.6048 9.96034 21.6432 9.96034 21.6624C9.94115 21.6432 9.92197 21.6432 9.94115 21.5664ZM12.6657 12.1455C12.6849 12.0879 12.7617 12.0496 12.8 11.992C12.8 12.0496 12.7617 12.0879 12.7617 12.1455C12.7425 12.1839 12.7233 12.2223 12.7041 12.2606C12.6657 12.2223 12.6657 12.1839 12.6657 12.1455ZM12.282 13.0857C12.3012 13.1049 12.3012 13.1241 12.2052 13.1624C12.2244 13.1624 12.2628 13.1241 12.282 13.0857ZM12.1861 13.2967C12.2052 13.2967 12.2244 13.2967 12.2244 13.3351C12.1477 13.3927 12.1669 13.3543 12.1861 13.2967ZM11.9366 13.527C11.9366 13.5654 11.9174 13.6037 11.9174 13.6421C11.9174 13.6421 11.8982 13.6229 11.9366 13.527ZM11.5721 14.0067C11.5721 14.0259 11.6296 14.0642 11.5529 14.1026C11.5721 14.0642 11.5721 14.0259 11.5721 14.0067ZM11.4378 13.7189C11.4378 13.738 11.4378 13.7572 11.4569 13.7572C11.361 13.8148 11.4378 13.738 11.4378 13.7189ZM11.4186 15.3114C11.4186 15.2922 11.4186 15.2538 11.4378 15.2155C11.4186 15.2538 11.4761 15.273 11.4186 15.3114ZM11.361 17.8249C11.4186 17.8825 11.361 17.9017 11.361 17.94C11.361 17.9209 11.3802 17.8825 11.361 17.8249ZM11.2267 17.3452C11.2843 17.3452 11.2267 17.4028 11.2459 17.422C11.1883 17.4795 11.1883 17.3644 11.2267 17.3452ZM11.2075 16.6161C11.2075 16.6545 11.1883 16.7121 11.1883 16.7504C11.1499 16.6737 11.2075 16.6545 11.2075 16.6161ZM11.0732 14.6974C11.1308 14.755 11.0348 15.0044 10.9773 14.8509C11.0732 14.8509 11.054 14.755 11.0732 14.6974ZM10.7662 15.4457C10.8813 15.3498 11.0348 15.273 10.9005 15.4841C10.8621 15.4841 10.8621 15.5225 10.8238 15.5225C10.8238 15.6568 10.8238 15.4265 10.7662 15.4457L10.747 15.4649C10.747 15.4649 10.747 15.4457 10.7662 15.4457ZM10.843 16.8656C10.843 16.9039 10.8238 16.9615 10.8238 16.9999C10.8238 17.0191 10.7662 17.0191 10.843 16.8656ZM10.747 17.2493C10.747 17.2301 10.7278 17.2301 10.7278 17.2109C10.747 17.2109 10.7662 17.2109 10.7854 17.2109C10.7662 17.2301 10.7662 17.2493 10.747 17.2493C10.7854 17.326 10.7278 17.2877 10.747 17.2493ZM10.747 16.2324C10.747 16.3475 10.7086 16.4243 10.6703 16.501C10.6511 16.5586 10.6511 16.5969 10.6511 16.6545C10.6319 16.5969 10.6319 16.5394 10.6511 16.4818C10.6703 16.4051 10.7278 16.3283 10.747 16.2324ZM10.6511 15.8294C10.6511 15.8486 10.6319 15.8678 10.6127 15.8678C10.536 15.7143 10.6895 15.6568 10.6511 15.8294ZM10.6319 17.4795C10.747 17.4795 10.7854 17.5371 10.6703 17.5563C10.6127 17.6139 10.5551 17.4795 10.6319 17.4795ZM10.0179 21.1251C10.0371 21.1251 10.0371 21.1251 10.0563 21.1251C10.0371 21.1635 10.0371 21.1827 10.0179 21.1251ZM10.0563 20.8757C10.0755 20.8949 10.0755 20.9141 10.0947 20.9141C10.0563 20.9141 10.0371 20.9141 10.0563 20.8757ZM10.2481 20.1849C10.2098 20.3001 10.0563 20.4536 10.133 20.6454C10.0947 20.6454 10.0947 20.6838 10.0563 20.6646C9.86441 20.5495 10.2098 20.4919 10.0179 20.4152C10.229 20.3384 9.99872 20.2809 10.2098 20.1849C10.1906 20.1466 10.1522 20.1466 10.133 20.1466C10.1522 20.0698 10.2481 20.089 10.2481 20.1849ZM10.2865 19.7244C10.3057 19.4942 10.3057 19.6669 10.3633 19.4175C10.3249 19.5326 10.3441 19.6669 10.2865 19.7244ZM10.3441 19.2448C10.3441 19.2256 10.3825 19.1488 10.3825 19.1296C10.3825 19.1488 10.44 19.2256 10.3441 19.2448ZM10.536 17.8249C10.5551 17.7482 10.6319 17.7674 10.6703 17.729C10.6703 17.7098 10.6895 17.6714 10.7086 17.6522C10.7086 17.6906 10.6895 17.7098 10.6703 17.729C10.6319 17.8633 10.7086 18.036 10.4976 17.9976C10.4592 17.9017 10.6703 17.8825 10.536 17.8249ZM10.843 20.3384C10.843 20.4344 10.8238 20.6071 10.6895 20.5495C10.6127 20.396 10.7854 20.1849 10.843 20.3384ZM10.9005 19.6477C10.9005 19.6285 10.9389 19.571 10.9389 19.5518C10.9389 19.571 10.9581 19.6285 10.9005 19.6477ZM10.9773 19.8012C10.9965 19.8012 10.9964 19.8012 11.0156 19.8012C11.0156 19.8396 11.0156 19.8588 10.9773 19.8012ZM10.9964 19.6477C11.0156 19.6669 11.0156 19.6669 11.0348 19.6669C11.0156 19.6861 11.0156 19.7053 10.9964 19.6477ZM10.7086 19.6285C10.5935 19.6477 10.8046 19.4175 10.5743 19.4558C10.5743 19.6093 10.5168 19.571 10.5168 19.4175C10.536 19.3023 10.6127 19.4366 10.6511 19.3791C10.5743 19.2448 10.9005 19.1488 10.7278 19.0145C10.9197 18.9953 10.8238 18.6692 10.9197 18.5348C10.9389 18.4389 10.9773 18.2087 11.054 18.0552C10.9581 18.4965 10.8621 19.168 10.7086 19.6285ZM11.0924 15.6184C11.0924 15.6376 11.054 15.6568 11.054 15.6568C11.054 15.5992 11.0924 15.6184 11.0924 15.6184ZM11.1308 17.7098C11.1308 17.7674 11.1116 17.8057 11.1116 17.8633C11.0732 17.8057 11.1308 17.7482 11.1308 17.7098ZM11.361 18.2087C11.2267 18.247 11.3226 18.4197 11.1883 18.4773C11.0348 18.3813 11.2651 18.3622 11.2075 18.2278C11.2459 18.1895 11.3034 18.2087 11.3418 18.1511C11.3034 18.036 11.3034 18.0744 11.3802 18.1319C11.4186 18.0552 11.3994 18.2278 11.361 18.2087ZM11.5913 17.422C11.5337 17.4604 11.5337 17.5947 11.4569 17.5563C11.4186 17.4604 11.5721 17.422 11.4953 17.3452C11.4378 17.4028 11.3802 17.4604 11.3994 17.5563C11.3802 17.4412 11.4953 17.3452 11.4378 17.3069C11.668 17.3644 11.4186 17.115 11.5913 17.1342C11.6296 17.2301 11.5337 17.3452 11.5913 17.422ZM11.6488 15.7143C11.4186 15.7143 11.7448 15.5033 11.668 15.369C11.8599 15.4841 11.6488 15.5992 11.6488 15.7143ZM11.7448 12.913C11.7448 12.8746 11.7064 12.8554 11.7256 12.8171C11.7256 12.8554 11.7831 12.8362 11.7448 12.913ZM11.9174 15.4457C12.0709 15.4457 11.8791 15.5416 11.9174 15.6376C11.8599 15.6376 11.9174 15.5416 11.9174 15.4457ZM11.9942 16.1748C11.9942 16.2132 11.9942 16.2324 11.975 16.2516C11.975 16.2708 11.975 16.2899 11.9558 16.3283C11.9366 16.2899 11.9366 16.2708 11.9558 16.2516C11.975 16.2324 11.9942 16.2132 11.9942 16.1748ZM12.0326 15.2155C12.0517 15.1771 12.0709 15.1387 12.0709 15.0811C12.0709 15.1387 12.1285 15.1771 12.0326 15.2155ZM12.2052 14.5631C12.2244 14.5631 12.2244 14.5823 12.2244 14.6015C12.2052 14.6207 12.1669 14.6398 12.2052 14.5631ZM12.3779 14.8125C12.3396 14.8317 12.3396 14.7933 12.3396 14.7933C12.3587 14.7933 12.3779 14.8125 12.3779 14.8125ZM12.3587 14.2753C12.3779 14.3904 12.1285 14.448 12.1861 14.4096C12.1285 14.3137 12.1285 14.4863 12.0517 14.4863C12.1477 14.5055 12.0901 14.6398 12.0517 14.6782C12.0134 14.6974 12.0134 14.7358 12.0134 14.7742C12.0326 14.8893 12.1477 14.6782 12.1285 14.8317C12.0517 14.8893 11.9366 14.8317 11.8407 14.8893C11.9366 14.7166 11.7256 14.5631 11.8982 14.448C12.0517 14.3904 12.2052 14.352 12.3396 14.2369C12.282 14.1793 12.3396 14.045 12.4163 14.1602C12.2628 14.1026 12.4355 14.2561 12.3587 14.2753ZM12.4163 13.9107C12.4163 13.9299 12.4163 13.9299 12.4163 13.9299C12.3971 13.9491 12.3587 13.9683 12.4163 13.9107ZM12.4355 13.4502C12.3204 13.3927 12.4355 13.1241 12.5698 13.0281C12.5698 13.0665 12.5506 13.1049 12.589 13.1432C12.6657 13.0665 12.7425 12.9897 12.8192 12.913C12.8384 13.2967 12.4547 13.0473 12.4355 13.4502ZM12.4547 14.5055C12.4739 14.4863 12.4931 14.4672 12.4931 14.4096C12.5314 14.5055 12.4739 14.4863 12.4547 14.5055ZM12.5122 13.6229C12.4931 13.6421 12.4931 13.6421 12.5506 13.3735C12.5314 13.4694 12.5698 13.527 12.5122 13.6229ZM12.6657 13.9491C12.7233 13.9491 12.6657 14.0258 12.6849 14.0642C12.6466 14.0642 12.5314 14.1793 12.589 14.045C12.6274 14.0642 12.6466 14.0067 12.6657 14.0067C12.6274 13.9299 12.5506 13.7956 12.6849 13.7572C12.8192 13.9299 12.6466 13.8148 12.6657 13.9491ZM12.7425 13.4502C12.7617 13.4502 12.8 13.4502 12.8384 13.4502C12.8 13.4502 12.8192 13.4886 12.7425 13.4502ZM12.7809 12.0304C12.7809 12.0112 12.8192 11.9536 12.8192 11.9153C12.8768 12.0112 12.7809 12.0112 12.7809 12.0304ZM13.7018 10.7256C13.7018 10.7448 13.7018 10.7832 13.6635 10.7256C13.6827 10.7256 13.6827 10.7256 13.7018 10.7256ZM13.3373 11.9153C13.3757 11.8001 13.5292 11.7042 13.5483 11.8193C13.4716 11.8769 13.3949 11.8961 13.3373 11.9153ZM13.5867 11.5699C13.6443 11.4548 13.6635 11.2821 13.7594 11.1861C13.7018 11.3013 13.6827 11.4548 13.5867 11.5699ZM13.817 10.9751C13.7786 10.9751 13.721 10.9175 13.7786 10.8983C13.817 10.9175 13.8362 10.9367 13.817 10.9751ZM13.9129 10.8216C13.8937 10.8024 13.8745 10.7832 13.9321 10.7065C13.9129 10.7448 13.9129 10.7832 13.9129 10.8216ZM14.2199 9.72791C14.1623 9.80466 14.1048 9.70873 14.1815 9.68954C14.2199 9.68954 14.2391 9.70873 14.2199 9.72791Z" fill="#E51F2F"/>
<path d="M13.3951 12.28C13.318 12.4919 13.3758 12.2607 13.4722 12.3571C13.5107 12.3763 13.4336 12.2607 13.3951 12.28Z" fill="#231F20"/>
<path d="M11.975 14.755C11.9558 14.6591 12.0709 14.6207 12.0517 14.5248C12.0134 14.5056 11.9174 14.6975 11.975 14.755Z" fill="#231F20"/>
<path d="M10.0174 14.9854C10.0174 15.0237 9.979 15.1197 9.979 15.158C10.0558 15.1389 9.99819 15.0237 10.0174 14.9854Z" fill="#231F20"/>
<path d="M9.44234 17.9204C9.42308 17.9204 9.42308 18.0167 9.40381 18.0167C9.44234 18.0553 9.42308 17.9397 9.44234 17.9204Z" fill="#231F20"/>
<path d="M9.25047 18.7269C9.25047 18.6693 9.28884 18.5926 9.28884 18.5542C9.2121 18.5926 9.26966 18.6693 9.25047 18.7269Z" fill="#231F20"/>
<path d="M8.92432 20.2234C9.00107 20.1466 9.00107 19.9739 9.00107 19.9355C9.00107 19.9739 8.9435 20.185 8.92432 20.2234Z" fill="#231F20"/>
<path d="M10.9768 20.6068C10.9192 20.4341 10.9 20.9714 10.9576 20.6835C10.9384 20.6835 10.9768 20.6068 10.9768 20.6068Z" fill="#231F20"/>
<path d="M8.9047 20.5879C8.9047 20.5495 8.94307 20.5303 8.94307 20.492C8.98145 20.1466 8.84714 20.6263 8.9047 20.5879Z" fill="#231F20"/>
<path d="M9.71086 20.9912C9.71086 21.0297 9.63379 21.0875 9.63379 21.1261C9.65306 21.0875 9.74939 21.1068 9.71086 20.9912Z" fill="#231F20"/>
<path d="M10.5361 21.6437C10.5747 21.5859 10.5554 21.5666 10.5554 21.5088C10.5554 21.5666 10.5554 21.6051 10.5361 21.6437Z" fill="#231F20"/>
<path d="M10.6318 21.6432C10.6511 21.5854 10.6896 21.6047 10.6704 21.5469C10.6704 21.5661 10.6511 21.6047 10.6318 21.6432Z" fill="#231F20"/>
<path d="M10.5356 22.0654C10.5548 22.0654 10.6123 22.027 10.574 22.0078C10.5164 22.0654 10.2862 21.9886 10.5356 22.0654Z" fill="#231F20"/>
<path d="M10.3823 22.3534C10.4209 22.3342 10.4594 22.2956 10.4787 22.2764C10.4594 22.2956 10.4209 22.2571 10.3823 22.3534Z" fill="#231F20"/>
<path d="M10.3247 22.3149C10.2671 22.3917 10.2863 22.4301 10.2671 22.4876C10.3247 22.4301 10.2863 22.3725 10.3247 22.3149Z" fill="#231F20"/>
<path d="M8.94303 24.1764C8.94303 24.1571 8.92376 24.08 8.92376 24.0415C8.92376 24.08 8.9045 24.1571 8.94303 24.1764Z" fill="#231F20"/>
<path d="M9.42285 24.3292C9.46123 24.2909 9.48041 24.2909 9.48041 24.2141C9.4996 24.0798 9.42285 24.2909 9.42285 24.3292Z" fill="#231F20"/>
<path d="M8.32959 24.5211C8.42552 24.5402 8.34877 24.3484 8.36796 24.2524C8.27202 24.2908 8.36796 24.3484 8.32959 24.5211Z" fill="#231F20"/>
<path d="M8.67544 25.5003C8.6369 25.4232 8.59837 25.4618 8.5791 25.4618C8.5791 25.4618 8.65617 25.4618 8.67544 25.5003Z" fill="#231F20"/>
<path d="M8.79022 25.8833C8.77096 25.8833 8.73242 25.8833 8.73242 25.8833C8.75169 25.9218 8.77096 26.0374 8.79022 25.8833Z" fill="#231F20"/>
<path d="M8.59766 30.9491C8.59766 30.9299 8.61692 30.8913 8.65546 30.8721C8.63619 30.8721 8.59766 30.8721 8.59766 30.8721C8.61692 30.8721 8.61692 30.9106 8.59766 30.9491Z" fill="#231F20"/>
<path d="M8.3291 26.2106C8.3869 26.1335 8.34837 26.1142 8.34837 26.0757C8.34837 26.1335 8.3291 26.172 8.3291 26.2106Z" fill="#231F20"/>
<path d="M9.63419 27.4182C9.57662 27.399 9.48069 27.2839 9.44231 27.399C9.40394 27.3223 9.28882 27.3031 9.28882 27.3031C9.28882 27.3031 9.21207 27.3223 9.11613 27.2647C9.0202 27.1112 8.8667 27.2839 8.65564 27.3031C8.69401 27.3798 8.63645 27.3606 8.59808 27.399C8.7132 27.6868 8.27189 27.3798 8.13758 27.5525C8.02246 27.4182 7.84978 27.7252 7.8114 27.4757C7.69628 27.6101 7.58115 27.6292 7.48522 27.7636C7.25497 27.6484 7.48522 27.9362 7.25497 27.8403C6.77529 28.1089 7.04391 28.6462 6.48748 28.9532C6.48748 28.9915 6.4683 29.1259 6.54505 29.1642C6.81367 29.2218 6.85204 29.4904 6.87123 29.6631C7.2166 29.855 7.04391 30.2771 7.35091 30.3922C7.29335 30.8527 7.58115 30.162 7.6579 30.6033C8.00327 30.7376 7.56197 30.8719 7.6579 31.0829C7.69628 31.1213 7.90734 31.2556 7.84978 31.1021C8.17596 31.4859 7.90734 30.776 8.19515 30.7951C8.19515 30.7568 8.21433 30.7184 8.17596 30.6992C8.44458 30.6416 8.31027 30.4881 8.29108 30.3346C8.61726 30.3346 8.48295 30.8527 8.57889 30.7951C8.63645 30.8527 8.77076 30.4881 8.80914 30.373C8.80914 30.4306 8.8667 30.5457 8.96263 30.4498C8.94345 30.3155 9.48069 30.066 9.25044 29.9509C9.69175 29.7398 9.17369 29.2985 9.55744 29.0683C9.59581 29.1642 9.73012 28.934 9.82606 28.934C9.88362 28.7037 9.63419 28.6654 9.63419 28.4351C9.88362 28.1089 9.51906 27.8019 9.63419 27.4182ZM8.42539 30.2963C8.38702 30.0852 8.48295 29.7782 8.5597 30.1811C8.54052 30.2579 8.54052 30.3538 8.42539 30.2963Z" fill="#E51F2F"/>
<path fill-rule="evenodd" clip-rule="evenodd" d="M10.4973 19.9165C10.4589 20.0508 10.4397 20.166 10.4014 20.2619C10.4589 20.2811 10.5165 20.2811 10.5741 20.3003C10.5932 20.1468 10.6316 19.9741 10.67 19.8014C10.6316 19.8014 10.6124 19.7822 10.5741 19.7822C10.5741 19.8398 10.5549 19.8973 10.4973 19.9165Z" fill="#231F20"/>
<path fill-rule="evenodd" clip-rule="evenodd" d="M9.922 19.6666C9.88362 19.6666 9.84525 19.6475 9.80687 19.6475C9.78769 19.7242 9.78769 19.801 9.7685 19.8777C9.74931 19.9545 9.71094 20.0504 9.71094 20.1463C9.7685 20.1655 9.80687 20.1655 9.86444 20.1847C9.88362 20.1271 9.922 20.0696 9.94118 19.9928C9.86443 19.8969 9.88362 19.7626 9.922 19.6666Z" fill="#231F20"/>
<path fill-rule="evenodd" clip-rule="evenodd" d="M9.55716 23.1779C9.57635 23.3122 9.4996 23.4273 9.42285 23.5424C9.48041 23.5616 9.55716 23.5616 9.61472 23.5808C9.63391 23.4465 9.6531 23.3122 9.69147 23.1779C9.6531 23.1779 9.59554 23.1587 9.55716 23.1587V23.1779Z" fill="#231F20"/>
<path fill-rule="evenodd" clip-rule="evenodd" d="M8.94287 23.4663C9.01962 23.4855 9.09637 23.5046 9.17312 23.5046C9.1923 23.4087 9.21149 23.332 9.26905 23.236C9.3458 23.3895 9.3458 23.236 9.36499 23.1209C9.26905 23.1017 9.1923 23.0825 9.11556 23.0825C9.23068 23.2168 9.00043 23.3511 8.94287 23.4663Z" fill="#231F20"/>
<path fill-rule="evenodd" clip-rule="evenodd" d="M10.1328 20.1272C10.1521 20.1272 10.2099 20.1272 10.2291 20.1658C10.1906 20.185 10.1713 20.2043 10.1521 20.2236C10.1713 20.2236 10.2099 20.2428 10.2291 20.2428C10.2484 20.2236 10.2484 20.2043 10.2484 20.185C10.2484 20.0887 10.1521 20.0694 10.1328 20.1272Z" fill="#231F20"/>
<path fill-rule="evenodd" clip-rule="evenodd" d="M10.7275 20.3194C10.7661 20.3194 10.8239 20.3387 10.8624 20.3387V20.3194C10.8239 20.2423 10.7661 20.2809 10.7275 20.3194Z" fill="#231F20"/>
<path fill-rule="evenodd" clip-rule="evenodd" d="M22.5662 13.2967C23.1802 11.4547 21.2807 9.99646 19.8992 9.07548C19.9951 8.71092 19.9184 8.02018 19.7265 7.59806C18.8439 5.58341 16.3688 4.06762 13.9512 3.54956C13.7017 3.492 13.3564 3.43444 13.011 3.39607C12.6081 3.35769 12.3586 3.31932 11.7638 3.35769C10.344 3.41525 8.69388 3.91412 8.17583 5.41072C6.54492 5.4491 4.43432 5.48747 3.32146 6.73464C2.63072 7.52132 2.64991 8.19287 2.91853 8.92198C1.88242 9.22898 0.520131 9.86216 0.328259 11.1093C0.270697 11.9152 0.903875 12.4524 1.40274 13.028C1.26843 13.1048 1.11493 13.1815 0.961437 13.2775C0.481756 13.6612 -0.0362983 14.1025 0.00207616 14.7549C-0.0554855 16.0212 1.09575 16.8463 1.97836 17.4411C1.69055 17.5946 1.44112 18.1318 1.40274 18.4772C1.38356 20.2232 2.93772 20.9907 4.05058 21.7582C4.79888 23.5234 6.7176 24.3869 8.40607 24.7898C8.40607 24.6747 8.42526 24.5404 8.44445 24.4252C8.42526 24.4252 8.38689 24.4061 8.3677 24.4061C8.3677 24.4636 8.3677 24.5212 8.31014 24.5212C8.32932 24.4828 8.32933 24.4252 8.32933 24.4061C6.77516 23.9839 5.20181 23.1781 4.58782 21.9885C5.87336 22.6025 7.23565 23.1013 8.63632 23.3891C8.61713 23.3316 8.59795 23.274 8.71307 23.3124C8.73226 23.2932 8.71307 23.274 8.6747 23.2548C8.65551 23.2548 8.61713 23.2548 8.57876 23.2356C8.57876 23.1589 8.59795 23.063 8.61713 22.967C6.90947 22.5833 5.95011 22.1036 4.56863 21.528C4.72213 20.7605 5.58555 20.607 6.48735 20.6646C6.92866 20.7029 8.38689 20.8756 9.61487 21.3169C10.4399 21.6239 11.3033 22.1228 11.3225 22.5449C11.3225 22.9095 10.958 22.9478 10.958 22.9478C11.0347 23.1013 11.2266 23.063 11.476 22.9862C11.783 22.8903 12.1092 22.4298 11.879 21.9885C11.1307 20.5878 8.55957 19.8587 6.96703 19.8011C6.4106 19.7819 5.85418 19.8395 5.33612 19.993C4.81807 20.1465 4.30001 20.4727 4.10814 21.0099L4.05058 21.2785C3.05284 20.6646 2.01673 19.8971 1.88242 18.9953C1.7673 18.2278 2.53479 17.8632 2.53479 17.8632C2.53479 17.8632 2.99528 18.1127 4.20408 18.5731C5.77743 19.168 7.44671 19.6668 9.07763 20.0314C9.09681 19.8587 9.116 19.686 9.15438 19.5133C9.03925 19.4941 8.94332 19.4749 8.82819 19.4366C4.93319 18.554 3.16797 17.633 3.16797 17.633C3.24471 17.633 3.5709 17.5179 3.76277 17.4987C5.52799 17.1725 7.42753 17.4603 9.23112 17.9208C10.958 18.3621 12.8383 19.168 14.4692 20.2232C13.4715 20.2232 12.6464 20.2041 11.0539 19.9163C11.0155 19.993 11.0155 19.993 10.9388 20.1657C10.862 20.0889 11.0347 19.8971 10.8429 19.993C10.7661 20.0698 10.7277 20.1465 10.8045 20.1849C10.9772 20.1273 10.862 20.3192 10.9772 20.3959C12.3778 20.6262 13.7209 20.7413 14.9297 20.7029C15.4094 21.2594 15.9466 21.9693 15.9083 22.7943C14.0855 23.4083 12.3011 23.6002 9.74918 23.1973H9.72999C9.7108 23.2165 9.7108 23.2356 9.69162 23.2548C9.69162 23.3699 9.65324 23.4467 9.63406 23.6002C9.72999 23.6194 9.84511 23.6386 9.94105 23.6386C11.6679 23.8496 13.6058 24.0415 15.5821 23.3891C14.2198 24.8474 11.3993 24.8857 9.7108 24.6747C9.51893 24.6555 9.34625 24.6171 9.15438 24.5979C9.116 24.7322 9.07763 24.8474 9.03925 24.9433C9.38462 25.0009 9.7108 25.0584 9.99861 25.0776C11.4568 25.2311 15.1024 25.1735 16.5031 22.9862C17.8654 22.449 19.5538 21.6239 19.669 19.9354C20.6283 19.4749 21.7796 18.5731 22.0866 17.4795C22.336 16.4626 21.9906 15.5416 21.4918 14.7549C22.0482 14.2944 22.3552 13.9298 22.5662 13.2967ZM11.6871 4.33624C15.0832 4.43217 18.6712 6.10146 19.2468 8.63418C16.2536 6.83058 12.9151 5.73691 9.30787 5.41072C9.13519 5.41072 8.98169 5.39153 8.84738 5.39153C9.38462 4.47055 11.1307 4.35543 11.6871 4.33624ZM3.34065 7.78994C3.7244 6.86895 5.93092 6.58114 6.83272 6.54277C7.23565 6.52358 8.13745 6.52358 8.13745 6.52358C8.13745 6.52358 8.2142 6.67708 8.34851 6.90733C9.15438 8.001 10.6894 8.53824 11.9557 8.76849C11.9941 8.71092 12.1092 8.67255 12.09 8.57661C10.958 8.30799 9.38462 7.73238 8.77063 6.60033C12.4929 6.90733 15.9083 7.92425 18.959 9.84297C18.6137 10.4953 17.7119 11.1093 17.0403 11.3588C16.3112 11.0326 13.2413 9.55516 10.6126 9.07548C7.98396 8.57661 5.43206 8.42311 3.55171 8.80686L3.35984 8.84523C3.34065 8.82605 3.07203 8.4423 3.34065 7.78994ZM0.942249 11.5698C0.903875 10.8791 1.40274 10.4761 1.93998 10.2459C2.43885 10.0157 2.95691 9.88134 3.53252 9.84297C3.53252 9.84297 3.95464 10.2651 4.53026 10.6296C5.87336 11.5314 8.42526 12.2989 10.7277 12.6251C10.7085 12.5867 10.7277 12.5484 10.7853 12.4524C10.8428 12.3757 10.7085 12.3949 10.7277 12.3757C10.7661 12.3373 10.7853 12.2606 10.8045 12.1838C10.1137 12.0879 9.30787 11.9344 8.40607 11.7233C7.23565 11.4547 5.41287 10.7064 4.14651 9.76622C8.00314 9.30573 11.6871 10.3418 15.0257 11.6849L15.6013 11.9727C15.0832 12.1071 14.3925 12.3181 13.2413 12.3565C13.2413 12.3757 13.2413 12.4141 13.2604 12.4524C13.3564 12.6443 13.6058 12.3373 13.3756 12.6059C13.2604 12.4332 13.1645 12.7019 13.1453 12.6827C13.2029 12.6827 13.1837 12.7211 13.1645 12.7594C13.1837 12.7594 13.2221 12.7594 13.2604 12.7594C13.2796 12.7211 13.2988 12.7019 13.3564 12.7594C14.7762 12.6827 15.8123 12.3949 16.2536 12.2414C16.292 12.2222 17.7119 13.0664 18.2875 13.3926C19.0358 13.8339 19.7265 14.352 20.3981 15.0043C19.5155 15.5608 18.4985 15.8102 17.5008 16.0596C14.9489 14.1217 11.3033 13.2007 9.25031 12.7594C7.19728 12.2989 4.03139 12.1838 1.88242 12.817C1.42193 12.5292 1.05737 12.0879 0.942249 11.5698ZM15.7548 20.1657C13.7401 18.247 10.4015 17.019 8.5212 16.6736C5.95011 16.2131 3.83952 16.2707 2.34292 17.1341C1.53705 16.6352 0.405008 15.8294 0.616067 14.8125C1.03819 13.8339 2.45804 13.7572 2.45804 13.7572C2.45804 13.7572 4.81807 15.3113 9.36543 16.2323C9.49974 16.2515 9.63406 16.2899 9.76837 16.3091C9.76837 16.2515 9.80674 16.2131 9.84511 16.2707C9.97943 16.1939 9.80674 16.0404 9.80674 16.0404C9.80674 16.0404 9.82593 16.0404 9.88349 15.9253C7.38915 15.4456 5.0675 14.6014 3.01447 13.6037C5.25937 13.1624 7.73452 13.5077 9.92186 14.0066C12.1284 14.5246 14.5076 15.484 15.8891 16.3091C14.5844 16.3858 13.2988 16.3666 12.0516 16.2323C12.0325 16.2707 12.0325 16.3091 12.0708 16.3474C12.0325 16.3474 11.9941 16.3858 11.9365 16.3666C11.9173 16.6161 11.9173 16.712 11.9173 16.6352C14.0279 16.8847 15.4094 16.7695 16.5415 16.6544C17.5392 17.2876 18.9015 18.3237 19.0742 19.5901C18.5369 19.8587 16.8484 20.0889 15.7548 20.1657ZM18.7288 21.125C18.1532 21.8733 17.4049 22.1995 16.6566 22.5065C16.7909 21.8158 16.5415 21.1634 16.1577 20.5878C17.2514 20.5111 18.5561 20.2424 19.0742 20.0889C19.055 20.5302 18.9015 20.8372 18.7288 21.125ZM21.3958 17.8057C21.1464 18.3621 20.5708 19.0145 19.669 19.4174C19.5155 18.3045 18.8439 17.1725 17.9613 16.4434C18.6712 16.2515 19.7841 15.9637 20.6475 15.4264C21.2039 16.0404 21.8179 16.9039 21.3958 17.8057ZM21.2231 14.3903C20.2254 13.2391 18.8631 12.3757 17.5776 11.6466C18.2491 11.282 18.9782 10.8023 19.4579 10.1308C20.2638 10.6488 21.7604 11.6082 21.9139 12.8554C21.9331 13.4502 21.7412 14.0833 21.2231 14.3903Z" fill="#231F20"/>
<path fill-rule="evenodd" clip-rule="evenodd" d="M9.00102 24.5595C8.90508 24.5403 8.80915 24.5211 8.71321 24.502C8.67484 24.5403 8.61728 24.5979 8.54053 24.6171C8.55971 24.713 8.63646 24.7706 8.67484 24.8665C8.77077 24.8857 8.86671 24.9049 8.96265 24.9241C8.98183 24.8857 8.98183 24.8473 8.98183 24.8089C8.92427 24.713 8.96265 24.6363 9.00102 24.5595Z" fill="#231F20"/>
<path fill-rule="evenodd" clip-rule="evenodd" d="M8.98145 24.9243C9.00071 24.9243 9.01998 24.9243 9.03925 24.9436C9.03925 24.8665 9.00071 24.8858 8.98145 24.9243Z" fill="#231F20"/>
<path fill-rule="evenodd" clip-rule="evenodd" d="M9.05859 24.79C9.07804 24.8484 9.07804 24.8289 9.07804 24.79H9.05859Z" fill="#F79E6D"/>
<path d="M41.3502 10.6489C40.5059 12.5868 37.9924 17.9784 36.5534 21.5088C36.515 21.4129 36.3423 21.01 36.3231 20.914C36.9947 19.0721 39.8727 13.1816 40.5635 10.2651C40.8513 9.09472 40.6019 8.71098 38.8942 8.3848C38.6448 8.34642 38.7215 8.11618 38.9134 8.17374C39.7192 8.28886 41.1583 8.28886 41.5996 8.28886C42.2328 8.28886 43.5567 8.26967 44.0555 8.17374C44.2666 8.15455 44.2858 8.34642 44.0939 8.3848C42.9427 8.63423 42.2328 8.65342 41.3502 10.6489ZM35.7091 23.984C35.7283 24.1567 35.4789 24.1375 35.4981 23.984C35.3062 23.3316 35.0376 22.8328 34.5003 21.4321C34.0015 20.1274 30.471 11.1861 30.0681 10.3035C29.4925 8.99879 28.9168 8.48073 27.9383 8.3848C27.708 8.36561 27.7272 8.13536 27.9575 8.17374C28.8017 8.2313 30.0489 8.26967 30.5286 8.26967C31.0082 8.26967 32.4281 8.21211 33.1956 8.17374C33.445 8.15455 33.4834 8.34642 33.1956 8.3848C32.1595 8.51911 31.6606 8.9796 32.006 10.15C32.1211 10.553 35.901 19.7052 36.3231 20.8949C36.3423 20.9908 36.515 21.3937 36.5534 21.4897C36.2464 22.2571 35.8818 23.2357 35.7091 23.984Z" fill="#231F20"/>
<path d="M51.5006 23.6576C50.9058 23.6 49.9848 23.5809 49.7162 23.5809C49.4284 23.5809 48.6033 23.5809 48.0661 23.6576C47.9318 23.6768 47.8934 23.5233 48.0277 23.5041C48.9487 23.3698 49.1022 23.2163 49.1022 20.012V16.4432C49.1022 13.4116 49.0446 13.3157 48.0469 13.1622C47.855 13.143 47.8934 12.9895 48.0661 13.0087C48.6225 13.0854 49.4284 13.143 49.7162 13.143C49.9656 13.143 50.9442 13.1046 51.4622 13.0087C51.6349 12.9895 51.6349 13.1238 51.4814 13.1622C50.4645 13.3733 50.3302 13.4116 50.3302 16.4432V20.0504C50.3302 23.1971 50.5412 23.4082 51.5198 23.5233C51.6733 23.5041 51.6541 23.6768 51.5006 23.6576Z" fill="#231F20"/>
<path d="M67.119 23.7345C65.2579 23.7345 64.3561 22.4874 62.0344 18.3621C61.9001 18.3813 61.7658 18.3813 61.6123 18.3813C61.4204 18.3813 61.1518 18.3429 61.0175 18.3237V18.1127C61.0942 18.1319 61.3245 18.1894 61.6123 18.1894C63.0321 18.1894 64.2409 17.633 64.2409 15.7718C64.2409 14.1409 63.6653 13.124 62.0728 13.124V12.9513C64.4904 12.9513 65.5457 14.1217 65.5457 15.6951C65.5457 16.9039 64.7782 17.8057 63.3775 18.1894C64.6439 20.607 66.6393 23.4659 67.5987 23.4659C67.8097 23.4659 67.9441 23.4083 68.1359 23.274C68.2894 23.1589 68.3854 23.2548 68.2511 23.3892C68.0208 23.5427 67.6371 23.7345 67.119 23.7345ZM62.1879 23.6578C61.5163 23.6002 60.8256 23.581 60.4035 23.581C60.0773 23.581 59.2139 23.6386 58.7534 23.6578C58.5999 23.677 58.5999 23.5235 58.7342 23.5235C59.7127 23.4467 59.7895 23.2165 59.7895 20.0122V16.4434C59.7895 13.4118 59.6168 13.2775 58.8877 13.1432C58.7342 13.124 58.7726 12.9705 58.9069 12.9897C59.3098 13.0473 59.7895 13.0473 60.0965 13.0473C60.461 13.0473 61.5355 12.9513 62.0728 12.9321V13.1048C61.6507 13.1048 61.1326 13.1624 60.9599 13.2199C61.0367 13.6037 60.9983 14.7165 60.9983 15.484V20.0122C60.9983 23.1781 61.171 23.4083 62.1879 23.5235C62.3414 23.5235 62.3414 23.6578 62.1879 23.6578Z" fill="#231F20"/>
<path d="M81.6821 15.5803C81.6821 15.7529 81.5478 15.7338 81.5478 15.5611C81.471 13.815 80.6844 13.4889 79.3796 13.4121C78.9767 13.3737 78.4394 13.3737 78.0173 13.3737C78.0173 13.3162 77.9981 13.2394 77.979 13.201C78.2668 13.2202 79.0151 13.201 79.3988 13.1627C80.2047 13.1243 81.2216 13.0475 81.7205 12.9708C81.8164 12.8941 81.9123 12.9516 81.8356 13.0859C81.8164 13.201 81.7205 14.1604 81.6821 15.5803ZM76.7893 13.3929C76.5783 13.4121 75.83 13.4313 75.3887 13.4313C74.1799 13.4697 73.5467 13.7958 73.1054 15.4076C73.067 15.5611 72.9135 15.5419 72.9519 15.3692C73.1246 14.6401 73.1438 13.3545 73.1438 13.0475C73.0862 12.9324 73.2397 12.8749 73.2973 12.9708C73.681 13.1051 74.4485 13.2202 75.3695 13.2202C76.041 13.2202 76.7318 13.2394 76.8277 13.2394C76.8085 13.297 76.7893 13.3354 76.7893 13.3929ZM79.4756 23.6581C78.8808 23.5813 77.6528 23.5621 77.365 23.5621C77.1155 23.5621 76.0602 23.5621 75.3887 23.6581C75.2544 23.6773 75.2352 23.5238 75.3695 23.5046C76.5783 23.2935 76.8085 23.2168 76.8085 20.0125C76.8085 18.6502 76.8277 13.6807 76.7893 13.3929C76.7893 13.3354 76.8085 13.297 76.8277 13.2202C76.8853 13.2202 77.9214 13.201 77.979 13.201C77.9981 13.2394 78.0173 13.3162 78.0173 13.3737C77.9406 14.122 77.979 18.7462 77.979 20.0317C77.979 23.236 78.1516 23.2935 79.4756 23.5046C79.6099 23.5046 79.5907 23.6773 79.4756 23.6581Z" fill="#231F20"/>
<path d="M110.866 23.639C110.866 23.5622 110.847 23.4855 110.847 23.4087C112.938 22.9482 114.147 21.0487 114.147 19.0724C114.147 15.8298 112.017 13.0476 109.619 13.0476C109.542 13.0476 109.35 13.0668 109.254 13.0668C109.235 13.0093 109.235 12.9133 109.216 12.8558C109.369 12.8366 109.657 12.8174 109.81 12.8174C113.015 12.8174 115.49 15.2733 115.49 18.2474C115.509 21.0103 113.494 23.1785 110.866 23.639ZM110.041 23.7157C106.836 23.7157 104.361 21.2214 104.361 18.2666C104.361 15.4077 106.51 13.1819 109.216 12.8366C109.235 12.9133 109.235 13.0093 109.254 13.0476C106.932 13.3163 105.704 15.3693 105.704 17.4223C105.704 20.665 107.7 23.4279 110.213 23.4279C110.386 23.4279 110.674 23.4087 110.847 23.3703C110.847 23.4471 110.866 23.5238 110.866 23.6006C110.636 23.6773 110.29 23.7157 110.041 23.7157Z" fill="#231F20"/>
<path d="M127.405 15.1579C127.136 14.2561 126.772 13.1433 125.352 13.1433C124.987 13.1433 124.565 13.22 124.316 13.316C124.297 13.2584 124.258 13.2008 124.239 13.1433C124.642 12.9322 125.179 12.8555 125.659 12.8555C126.235 12.8555 126.772 12.9322 127.232 13.1049C127.271 12.9706 127.424 13.0282 127.386 13.2008C127.386 13.2392 127.463 14.5248 127.558 15.1387C127.616 15.2731 127.463 15.3306 127.405 15.1579ZM125.755 23.4084C125.736 23.3317 125.678 23.2741 125.659 23.1974C126.35 22.8904 126.714 22.3339 126.714 21.4513C126.714 20.2234 126.081 19.5326 125.064 18.957C124.757 18.7843 124.22 18.4773 123.913 18.2854C122.8 17.5947 122.34 16.6929 122.34 15.7911C122.34 14.3713 123.568 13.4119 124.239 13.1241C124.277 13.2008 124.297 13.2392 124.316 13.2968C123.625 13.6038 123.299 14.1794 123.299 14.9852C123.299 15.7335 123.606 16.4243 124.489 17.0191C124.776 17.2302 125.563 17.6906 125.908 17.8825C127.194 18.5924 127.808 19.5518 127.808 20.5687C127.827 21.4705 127.386 22.6985 125.755 23.4084ZM124.22 23.7154C123.337 23.7154 122.704 23.6962 121.975 23.3317C121.917 23.4852 121.726 23.3701 121.802 23.2358C121.802 23.2358 121.534 20.8373 121.534 20.8757C121.534 20.7798 121.63 20.6838 121.687 20.8373C122.052 22.4299 122.647 23.4468 124.22 23.4468C124.757 23.4468 125.39 23.3125 125.64 23.1782C125.659 23.2549 125.716 23.3125 125.736 23.3892C125.448 23.5427 124.911 23.7154 124.22 23.7154Z" fill="#231F20"/>
<path d="M140.664 23.639C140.664 23.5622 140.644 23.4855 140.644 23.4087C142.736 22.9482 143.945 21.0487 143.945 19.0724C143.945 15.8298 141.815 13.0476 139.416 13.0476C139.34 13.0476 139.148 13.0668 139.052 13.0668C139.033 13.0093 139.033 12.9133 139.014 12.8558C139.167 12.8366 139.455 12.8174 139.608 12.8174C142.813 12.8174 145.288 15.2733 145.288 18.2474C145.307 21.0103 143.292 23.1785 140.664 23.639ZM139.839 23.7157C136.634 23.7157 134.159 21.2214 134.159 18.2666C134.159 15.4077 136.308 13.1819 139.014 12.8366C139.033 12.9133 139.052 13.0093 139.052 13.0476C136.711 13.3163 135.502 15.3693 135.502 17.4223C135.502 20.665 137.498 23.4279 140.011 23.4279C140.184 23.4279 140.472 23.4087 140.644 23.3703C140.644 23.4471 140.664 23.5238 140.664 23.6006C140.433 23.6773 140.088 23.7157 139.839 23.7157Z" fill="#231F20"/>
<path d="M97.5303 15.8677C97.5303 16.1171 97.5303 16.4625 97.5303 16.7119C97.5303 16.6735 97.4344 16.6927 97.396 16.6927C97.3576 16.6927 97.1657 16.6543 97.1657 16.6543C97.1657 16.6543 97.1849 16.1171 97.1657 15.8293C97.089 13.7187 96.8395 13.3733 95.6883 13.2198C95.5348 13.2006 95.554 13.0471 95.6883 13.0663C96.2831 13.1239 96.8396 13.1623 97.3576 13.1623C97.8565 13.1623 98.3745 13.1239 98.9885 13.0663C99.1036 13.0663 99.1036 13.1814 99.0077 13.2198C97.8757 13.3733 97.5303 14.0449 97.5303 15.8677ZM93.1556 23.9263C90.1432 23.9263 88.9536 22.1227 88.8769 20.2807C88.8001 18.8992 88.8001 17.8823 88.8193 16.5008C88.8385 13.4693 88.8193 13.3541 87.8983 13.2198C87.7256 13.2006 87.7832 13.0471 87.9175 13.0663C88.5699 13.1431 89.0879 13.1814 89.4141 13.1814C89.8746 13.1814 90.7764 13.1623 91.3328 13.0663C91.4479 13.0471 91.5055 13.1814 91.352 13.2198C90.2583 13.4501 90.0856 13.4884 90.0089 16.5008C89.9705 18.0934 89.9897 19.1295 90.0281 19.9545C90.1048 21.7581 90.9683 23.5809 93.5393 23.5809C95.2086 23.6001 97.1274 22.0843 97.1274 19.5132C97.1465 17.8056 97.1274 17.5369 97.1274 16.616C97.1274 16.5392 97.4344 16.5584 97.5111 16.5584V19.5516C97.5303 22.2954 95.7075 23.9263 93.1556 23.9263Z" fill="#231F20"/>
<path d="M149.394 22.7175C149.394 22.1802 148.953 21.7197 148.396 21.7197C147.859 21.7197 147.398 22.161 147.398 22.7175C147.398 23.2547 147.84 23.7152 148.396 23.7152C148.953 23.7152 149.394 23.2547 149.394 22.7175ZM148.396 23.6001C147.916 23.6001 147.514 23.1971 147.514 22.7175C147.514 22.2378 147.916 21.8348 148.396 21.8348C148.876 21.8348 149.279 22.2378 149.279 22.7175C149.279 23.1971 148.895 23.6001 148.396 23.6001Z" fill="#231F20"/>
<path d="M148.511 22.7754C148.684 22.7562 148.818 22.6219 148.799 22.4684C148.799 22.2574 148.684 22.123 148.415 22.123H148.012V23.2743H148.147V22.7754H148.358L148.665 23.2743H148.837L148.511 22.7754ZM148.166 22.6603V22.2574H148.415C148.549 22.2574 148.684 22.2957 148.684 22.4492C148.684 22.6219 148.53 22.6603 148.396 22.6603H148.166Z" fill="#231F20"/>
</svg>
