<svg width="69" height="23" viewBox="0 0 69 23" fill="none" xmlns="http://www.w3.org/2000/svg">
<g clip-path="url(#clip0_7_1189)">
<path d="M21.0798 0.602539H17.2475C17.6591 0.811927 17.9067 1.31328 17.9067 1.85709C17.9067 2.35844 17.7625 3.04854 17.4736 3.8218L15.5574 9.19451L12.1164 0.602539H9.02582C9.89089 1.2714 10.3031 2.63036 9.66416 4.13559L7.39801 9.44578L3.97728 0.602539H0.371094C0.948386 1.00008 1.38092 1.91962 1.896 3.19482L5.41963 12.1631C5.89344 13.3758 6.42946 14.0028 7.56254 14.5466L11.2304 6.1634L13.7442 12.1631C14.2592 13.3551 14.7743 14.0028 15.908 14.5466L21.0798 0.602539Z" fill="#827662"/>
<path d="M29.2508 11.9543C28.3648 12.6232 27.4375 12.9157 26.1393 12.9157C25.4388 12.9157 24.8208 12.8532 24.3674 12.7482V9.32013H25.315C26.469 9.32013 26.8602 9.40389 27.1695 9.75896V7.75238H24.3674V4.93007C24.3674 4.93007 24.7999 4.86696 25.6859 4.86696C26.7166 4.86696 27.4375 5.03447 27.8497 5.49453V3.42484H21.1321C21.6681 3.71739 21.7506 4.15622 21.7506 5.97524V11.808C21.7506 13.6264 21.6681 14.0659 21.1321 14.3584H28.4886L29.2508 11.9543Z" fill="#827662"/>
<path d="M37.9474 10.9717C37.9474 7.62681 32.9402 7.85684 32.9402 5.80779C32.9402 5.20145 33.4762 4.67886 34.4035 4.67886C35.3923 4.67886 36.2371 5.03453 37.1644 5.93342V3.54994C36.2167 3.29926 35.454 3.15298 34.5064 3.15298C32.446 3.15298 30.3438 4.40754 30.3438 6.47724C30.3438 10.2397 35.3511 9.6965 35.3511 11.8075C35.3511 12.5601 34.6918 13.1039 33.5582 13.1039C32.2809 13.1039 31.0443 12.5813 29.7671 11.4524L30.4467 14.0653C31.4775 14.4416 32.3425 14.6298 33.2907 14.6298C35.9284 14.6298 37.9474 13.1664 37.9474 10.9717Z" fill="#827662"/>
<path d="M47.5168 3.4248H38.7185L38.1208 5.4945C38.7801 5.03443 39.3777 4.86692 40.4695 4.86692H41.5207V11.808C41.5207 13.6264 41.4381 14.0658 40.8817 14.3584H44.735C44.1996 14.0658 44.117 13.6264 44.117 11.808V4.86692H45.0443C46.0128 4.86692 46.6721 5.0132 47.0017 5.4945L47.5168 3.4248Z" fill="#827662"/>
<path d="M52.5674 14.3583C52.0314 14.0658 51.9494 13.6269 51.9494 11.8079V5.97515C51.9494 4.15672 52.0314 3.7173 52.5674 3.42474H48.7141C49.2501 3.7173 49.3321 4.15672 49.3321 5.97515V11.8079C49.3321 13.6269 49.2501 14.0658 48.7141 14.3583H52.5674Z" fill="#827662"/>
<path d="M65.3616 3.4248H61.8385C62.5391 3.80111 62.621 4.59561 62.621 5.80829V10.2396L58.1085 4.8044C57.655 4.23994 57.3463 3.82235 57.0574 3.4248H53.9465C54.5849 3.80111 54.8942 4.51185 54.8942 5.99585V11.9749C54.8942 13.1876 54.8116 13.9821 54.111 14.3584H57.6347C56.9341 13.9821 56.8516 13.1876 56.8516 11.9749V7.45979L61.5083 13.0619C62.1676 13.8564 63.0129 14.1909 64.5785 14.4421V5.80829C64.5785 4.59561 64.6814 3.80111 65.3616 3.4248Z" fill="#827662"/>
<path d="M6.28195 20.5559V21.5191C6.28195 21.7585 6.31859 22.1472 6.05114 22.2481V22.264H7.05284V22.2481C6.78541 22.1472 6.8168 21.7585 6.8168 21.5191V19.5078C6.8168 19.2683 6.78541 18.8796 7.05284 18.7788V18.7628H6.05114V18.7788C6.31856 18.8796 6.28195 19.2683 6.28195 19.5131V20.1731H4.38845V19.5131C4.38845 19.2683 4.35706 18.8796 4.61925 18.7788V18.7628H3.6228V18.7788C3.89023 18.8796 3.8536 19.2683 3.8536 19.5078V21.5191C3.8536 21.7585 3.885 22.1472 3.6228 22.2481V22.264H4.61925V22.2481C4.35706 22.1472 4.38845 21.7585 4.38845 21.5191V20.5559H6.28195Z" fill="#827662"/>
<path d="M10.4477 19.0556C11.2767 19.0556 11.7645 19.8058 11.7645 20.5826C11.7645 21.3753 11.2552 21.9663 10.4582 21.9663C9.63498 21.9663 9.11523 21.2002 9.11523 20.4552C9.11523 19.6513 9.63497 19.0556 10.4477 19.0556ZM10.4843 18.6722C9.38322 18.6456 8.51758 19.492 8.51758 20.5024C8.51758 21.5936 9.39369 22.3491 10.432 22.3491C11.4755 22.3491 12.3621 21.5617 12.3621 20.4765C12.3621 19.5186 11.586 18.6669 10.4843 18.6722Z" fill="#827662"/>
<path d="M14.9451 19.1457H15.4172C15.5904 19.1457 15.7997 19.1723 15.8683 19.3586H15.884L16.052 18.7252H16.0363C15.9677 18.7576 15.884 18.7629 15.7945 18.7629H13.8382H13.7074C13.6388 18.7523 13.5708 18.7523 13.508 18.7252H13.4923L13.3086 19.3586H13.3243C13.487 19.2041 13.7231 19.1457 13.9486 19.1457H14.4102V21.5192C14.4102 21.7586 14.4416 22.1473 14.1794 22.2482V22.2641H15.2178V22.2482C14.9399 22.083 14.9451 21.876 14.9451 21.5722V19.1457Z" fill="#827662"/>
<path d="M18.225 20.5559H18.6133C18.7755 20.5559 18.9959 20.5506 19.0802 20.7051H19.0959V20.1413H19.0802C19.0168 20.1731 18.9331 20.1731 18.8494 20.1731H18.225V19.1828C18.393 19.1509 18.5767 19.1456 18.7598 19.1456C19.0011 19.1456 19.2162 19.1675 19.379 19.3585H19.3947V18.7363H19.379C19.311 18.7734 19.2214 18.7628 19.1325 18.7628H17.4541V18.7787C17.7215 18.8795 17.6901 19.2682 17.6901 19.513V21.519C17.6901 21.7585 17.7215 22.1525 17.4541 22.248V22.2639H19.6412L19.8772 21.5668H19.8615C19.5994 21.8009 19.2372 21.913 18.8913 21.8811L18.225 21.8174L18.225 20.5559Z" fill="#827662"/>
<path d="M22.0661 21.8332V19.5128C22.0661 19.2734 22.0294 18.88 22.2969 18.7785V18.7626H21.2952V18.7785C21.5626 18.88 21.5312 19.2681 21.5312 19.5128V21.5194C21.5312 21.7583 21.5626 22.1523 21.2952 22.2484V22.2644H23.4508L23.7235 21.5566H23.7078C23.4456 21.7801 23.1358 21.9022 22.7794 21.881L22.0661 21.8332Z" fill="#827662"/>
<path d="M27.1498 18.7947C26.8981 18.715 26.6307 18.6779 26.3685 18.6779C25.7284 18.6779 25.0517 18.9327 25.0517 19.6033C25.0517 20.7317 26.8562 20.5824 26.8562 21.4129C26.8562 21.7851 26.4051 21.9662 26.1063 21.9662C25.697 21.9662 25.2668 21.7957 24.9575 21.5244L25.1092 22.1897C25.4086 22.3012 25.7284 22.349 26.0482 22.349C26.8667 22.349 27.4539 21.8175 27.4539 21.2478C27.4539 20.2633 25.6499 20.274 25.6499 19.5449C25.6499 19.1775 26.0272 19.0607 26.3266 19.0607C26.6202 19.0607 26.9452 19.1828 27.1498 19.3957V18.7947Z" fill="#827662"/>
<path d="M33.0599 21.5245C32.8762 21.7693 32.6088 21.9822 32.289 21.9822C31.885 21.9822 31.5548 21.7215 31.5548 21.285C31.5548 20.9547 31.7699 20.684 32.0268 20.4976L33.0599 21.5245ZM32.1158 19.8854C31.9745 19.758 31.7489 19.545 31.7489 19.3321C31.7489 19.1298 31.9059 19.0289 32.0948 19.0289C32.289 19.0289 32.4564 19.151 32.4564 19.3533C32.4564 19.5716 32.2838 19.7633 32.1158 19.8854ZM34.9586 22.2641V22.2482C33.9674 21.7852 33.1965 20.9606 32.4152 20.1998C32.6559 19.9815 32.871 19.7633 32.871 19.4118C32.871 18.97 32.5355 18.6774 32.1158 18.6774C31.7065 18.6774 31.2978 18.9759 31.2978 19.4171C31.2978 19.7149 31.5234 19.9656 31.717 20.1673C31.3344 20.4764 30.9932 20.7902 30.9932 21.3169C30.9932 21.9769 31.5862 22.3332 32.1786 22.3332C32.6826 22.3332 33.0023 22.1474 33.2698 21.7103C33.4326 21.8702 33.7052 22.0778 33.8942 22.1792C34.0354 22.2535 34.2035 22.2642 34.3872 22.2642L34.9586 22.2641Z" fill="#827662"/>
<path d="M37.9683 18.7627V18.7786C38.2357 18.8801 38.1991 19.2682 38.1991 19.5129V21.5189C38.1991 21.7584 38.2357 22.1524 37.9683 22.2485V22.2645H38.9699V22.2485C38.7025 22.1524 38.7339 21.7643 38.7339 21.5189V19.1355C38.8548 19.1136 38.97 19.0977 39.0909 19.0924C39.442 19.0765 39.7676 19.3 39.7676 19.6834C39.7676 20.1836 39.2798 20.3805 38.8601 20.4442L39.3426 21.1945L39.9821 21.9979C40.1396 22.1949 40.3129 22.2645 40.5908 22.2645H41.0733C40.7745 22.0728 40.4437 21.7961 40.2239 21.5189L39.4682 20.5557C39.8984 20.4549 40.3024 20.0874 40.3024 19.6191C40.3024 19.1354 39.9193 18.7627 39.217 18.7627H37.9683Z" fill="#827662"/>
<path d="M43.1195 20.5559H43.5079C43.6701 20.5559 43.8904 20.5506 43.9747 20.7051H43.9904V20.1413H43.9747C43.9113 20.1731 43.8276 20.1731 43.7439 20.1731H43.1195V19.1828C43.287 19.1509 43.4712 19.1456 43.6544 19.1456C43.8956 19.1456 44.1107 19.1675 44.2735 19.3585H44.2892V18.7363H44.2735C44.2055 18.7734 44.116 18.7628 44.027 18.7628H42.3486V18.7787C42.6161 18.8795 42.5847 19.2682 42.5847 19.513V21.519C42.5847 21.7585 42.6161 22.1525 42.3486 22.248V22.2639H44.5357L44.7717 21.5668H44.7561C44.4939 21.8009 44.1317 21.913 43.7858 21.8811L43.1195 21.8174L43.1195 20.5559Z" fill="#827662"/>
<path d="M48.3146 18.7947C48.0629 18.715 47.7955 18.6779 47.5333 18.6779C46.8932 18.6779 46.2165 18.9327 46.2165 19.6033C46.2165 20.7317 48.021 20.5824 48.021 21.4129C48.021 21.7851 47.5699 21.9662 47.2705 21.9662C46.8618 21.9662 46.4316 21.7957 46.1223 21.5244L46.274 22.1897C46.5734 22.3012 46.8932 22.349 47.2129 22.349C48.0315 22.349 48.6187 21.8175 48.6187 21.2478C48.6187 20.2633 46.8147 20.274 46.8147 19.5449C46.8147 19.1775 47.192 19.0607 47.4908 19.0607C47.785 19.0607 48.11 19.1828 48.3146 19.3957V18.7947Z" fill="#827662"/>
<path d="M51.956 19.0556C52.785 19.0556 53.2728 19.8058 53.2728 20.5826C53.2728 21.3753 52.7635 21.9663 51.9665 21.9663C51.1427 21.9663 50.6235 21.2002 50.6235 20.4552C50.6235 19.6513 51.1427 19.0556 51.956 19.0556ZM51.9926 18.6722C50.8909 18.6456 50.0259 19.492 50.0259 20.5024C50.0259 21.5936 50.902 22.3491 51.9403 22.3491C52.9838 22.3491 53.8704 21.5617 53.8704 20.4765C53.8704 19.5186 53.0943 18.6669 51.9926 18.6722Z" fill="#827662"/>
<path d="M55.3208 18.7627V18.7786C55.5882 18.8801 55.5516 19.2682 55.5516 19.5129V21.5189C55.5516 21.7584 55.5882 22.1524 55.3208 22.2485V22.2645H56.3225V22.2485C56.0551 22.1524 56.0865 21.7643 56.0865 21.5189V19.1355C56.2074 19.1136 56.3225 19.0977 56.4434 19.0924C56.7946 19.0765 57.1201 19.3 57.1201 19.6834C57.1201 20.1836 56.6324 20.3805 56.2126 20.4442L56.6951 21.1945L57.3346 21.9979C57.4922 22.1949 57.6654 22.2645 57.9433 22.2645H58.4259C58.127 22.0728 57.7968 21.7961 57.5765 21.5189L56.8213 20.5557C57.2509 20.4549 57.655 20.0874 57.655 19.6191C57.655 19.1354 57.2724 18.7627 56.5696 18.7627H55.3208Z" fill="#827662"/>
<path d="M60.7752 19.1457H61.2472C61.4205 19.1457 61.6304 19.1723 61.6984 19.3586H61.7141L61.8821 18.7252H61.8664C61.7978 18.7576 61.7141 18.7629 61.6251 18.7629H59.6689H59.5375C59.4694 18.7523 59.4014 18.7523 59.3381 18.7252H59.3224L59.1387 19.3586H59.155C59.3172 19.2041 59.5532 19.1457 59.7788 19.1457H60.2403V21.5192C60.2403 21.7586 60.2717 22.1473 60.0096 22.2482V22.2641H61.0485V22.2482C60.77 22.083 60.7752 21.876 60.7752 21.5722L60.7752 19.1457Z" fill="#827662"/>
<path d="M65.0976 18.7947C64.8459 18.715 64.5784 18.6779 64.3162 18.6779C63.6762 18.6779 62.9995 18.9327 62.9995 19.6033C62.9995 20.7317 64.8034 20.5824 64.8034 21.4129C64.8034 21.7851 64.3529 21.9662 64.054 21.9662C63.6448 21.9662 63.2146 21.7957 62.9053 21.5244L63.057 22.1897C63.3564 22.3012 63.6762 22.349 63.9959 22.349C64.8145 22.349 65.4016 21.8175 65.4016 21.2478C65.4016 20.2633 63.5977 20.274 63.5977 19.5449C63.5977 19.1775 63.975 19.0607 64.2744 19.0607C64.5674 19.0607 64.8929 19.1828 65.0976 19.3957V18.7947Z" fill="#827662"/>
<path d="M66.6312 4.82332V4.40926H66.9033C67.0422 4.40926 67.1905 4.43993 67.1905 4.60567C67.1905 4.81093 67.0393 4.82332 66.8701 4.82332H66.6312ZM66.6312 4.99495H66.8608L67.2085 5.57416H67.4317L67.0573 4.98552C67.2509 4.96131 67.3992 4.85694 67.3992 4.61806C67.3992 4.35441 67.2445 4.23762 66.9335 4.23762H66.4318V5.57416H66.6312V4.99495ZM66.873 6.0649C67.4957 6.0649 68.0271 5.57416 68.0271 4.90294C68.0271 4.23762 67.4957 3.74689 66.873 3.74689C66.2446 3.74689 65.7126 4.23762 65.7126 4.90294C65.7126 5.57416 66.2446 6.0649 66.873 6.0649ZM65.9423 4.90294C65.9423 4.35441 66.3504 3.94035 66.873 3.94035C67.3899 3.94035 67.7974 4.35441 67.7974 4.90294C67.7974 5.46092 67.3899 5.87202 66.873 5.87202C66.3504 5.87202 65.9423 5.46092 65.9423 4.90294Z" fill="#827662"/>
</g>
<defs>
<clipPath id="clip0_7_1189">
<rect width="67.6561" height="21.7466" fill="white" transform="translate(0.371094 0.602539)"/>
</clipPath>
</defs>
</svg>
