<svg width="120" height="60" viewBox="0 0 120 60" fill="none" xmlns="http://www.w3.org/2000/svg">
<path d="M32.3771 26.446H19.8571V30.161H28.7371C28.2971 35.361 23.9641 37.593 19.8721 37.593C18.5758 37.5987 17.2913 37.3461 16.0937 36.8499C14.8961 36.3537 13.8093 35.624 12.8968 34.7032C11.9843 33.7824 11.2644 32.689 10.779 31.487C10.2937 30.2849 10.0527 28.9982 10.0701 27.702C10.0701 22.078 14.4241 17.748 19.8841 17.748C24.0961 17.748 26.5781 20.433 26.5781 20.433L29.1781 17.739C29.1781 17.739 25.8381 14.022 19.7481 14.022C11.9931 14.022 5.99414 20.567 5.99414 27.636C5.99414 34.563 11.6371 41.318 19.9441 41.318C27.2511 41.318 32.6001 36.312 32.6001 28.91C32.6001 27.348 32.3731 26.446 32.3731 26.446H32.3771Z" fill="#4885ED"/>
<path d="M42.634 23.7549C37.496 23.7549 33.814 27.7719 33.814 32.4549C33.814 37.2089 37.384 41.2999 42.694 41.2999C47.5 41.2999 51.437 37.6269 51.437 32.5569C51.437 26.7569 46.857 23.7539 42.634 23.7539V23.7549ZM42.684 27.2009C45.21 27.2009 47.604 29.2439 47.604 32.5349C47.604 35.7549 45.22 37.8569 42.672 37.8569C39.872 37.8569 37.672 35.6149 37.672 32.5089C37.672 29.4689 39.852 27.2009 42.692 27.2009H42.684Z" fill="#DB3236"/>
<path d="M61.8151 23.7549C56.6771 23.7549 52.9951 27.7719 52.9951 32.4549C52.9951 37.2089 56.5651 41.2999 61.8751 41.2999C66.6811 41.2999 70.6181 37.6269 70.6181 32.5569C70.6181 26.7569 66.0381 23.7539 61.8151 23.7539V23.7549ZM61.8651 27.2009C64.3911 27.2009 66.7851 29.2439 66.7851 32.5349C66.7851 35.7549 64.4011 37.8569 61.8531 37.8569C59.0531 37.8569 56.8531 35.6149 56.8531 32.5089C56.8531 29.4689 59.0331 27.2009 61.8731 27.2009H61.8651Z" fill="#F4C20D"/>
<path d="M80.6281 23.7651C75.9121 23.7651 72.2061 27.8951 72.2061 32.5311C72.2061 37.8111 76.5031 41.3131 80.5461 41.3131C83.0461 41.3131 84.3761 40.3201 85.3461 39.1811V40.9111C85.3461 43.9381 83.5081 45.7511 80.7341 45.7511C78.0541 45.7511 76.7101 43.7581 76.2341 42.6281L72.8621 44.0281C74.0581 46.5581 76.4661 49.1951 80.7621 49.1951C85.4621 49.1951 89.0241 46.2421 89.0241 40.0481V24.2921H85.3601V25.7781C84.2301 24.5581 82.6821 23.7651 80.6301 23.7651H80.6281ZM80.9681 27.2051C83.2801 27.2051 85.6541 29.1791 85.6541 32.5501C85.6541 35.9771 83.2841 37.8651 80.9171 37.8651C78.4031 37.8651 76.0641 35.8251 76.0641 32.5821C76.0641 29.2141 78.4941 27.2051 80.9681 27.2051Z" fill="#4885ED"/>
<path d="M105.4 23.7441C100.952 23.7441 97.2168 27.2841 97.2168 32.5041C97.2168 38.0301 101.38 41.3071 105.817 41.3071C109.529 41.3071 111.817 39.2771 113.167 37.4571L110.134 35.4391C109.347 36.6591 108.031 37.8541 105.836 37.8541C103.37 37.8541 102.236 36.5041 101.533 35.1941L113.296 30.3141L112.696 28.8841C111.56 26.0841 108.908 23.7441 105.4 23.7441ZM105.553 27.1181C107.156 27.1181 108.309 27.9701 108.799 28.9921L100.943 32.2751C100.603 29.7331 103.013 27.1181 105.543 27.1181H105.553Z" fill="#DB3236"/>
<path d="M91.6001 40.7872H95.4641V14.9302H91.6001V40.7872Z" fill="#3CBA54"/>
</svg>
