<svg width="115" height="23" viewBox="0 0 115 23" fill="none" xmlns="http://www.w3.org/2000/svg">
<g clip-path="url(#clip0_7_527)">
<path d="M1.38306 8.48193V21.7971H4.02761V16.4123H8.80747V14.1604H4.02761V10.7533H9.7085V8.48193H1.38306ZM51.6885 8.48193V21.7971H54.2741V17.0192C54.2741 16.5297 54.3134 16.0796 54.431 15.6684C54.8227 14.4152 55.8806 13.5145 57.2519 13.5145C58.5644 13.5145 58.8975 14.3563 58.8975 15.629V21.7971H61.4636V15.1005C61.4636 12.3396 60.1706 11.1449 57.8591 11.1449C56.0569 11.1449 54.7834 12.2023 54.2741 13.2009H54.2351C54.2351 13.2009 54.2741 12.8289 54.2741 12.3197V8.48193H51.6885ZM23.2645 11.1449C20.1694 11.1449 17.9754 13.3968 17.9754 16.6081C17.9754 19.5648 20.1106 22.0518 23.5583 22.0518C26.1441 22.0518 27.7306 20.5637 27.7306 20.5637L26.7316 18.7035C26.7316 18.7035 25.3998 19.839 23.7347 19.839C22.1872 19.839 20.7767 18.8991 20.6199 17.0781H27.8091C27.8091 17.0781 27.868 16.3928 27.868 16.0795C27.868 13.3186 26.2617 11.1449 23.2645 11.1449ZM35.7232 11.1449C33.6271 11.1449 32.4908 12.4177 32.0403 13.2988H32.0012C32.0012 13.2988 32.0403 12.9856 32.0403 12.594V11.3996H29.5526V21.7971H32.1382V17.0192C32.1382 16.5297 32.1775 16.0598 32.3146 15.629C32.7064 14.3954 33.7252 13.5145 35.116 13.5145C36.4285 13.5145 36.7616 14.3563 36.7616 15.629V21.7971H39.3277V15.1005C39.3277 12.3396 38.0347 11.1449 35.7232 11.1449ZM46.2624 11.1449C42.8147 11.1449 40.6205 13.6318 40.6205 16.6081C40.6205 19.6236 42.8147 22.0518 46.2624 22.0518C49.0636 22.0518 50.5521 20.3679 50.5521 20.3679L49.5532 18.5272C49.5532 18.5272 48.2603 19.8585 46.4973 19.8585C44.5188 19.8585 43.2456 18.3509 43.2456 16.5886C43.2456 14.8067 44.4796 13.3577 46.3994 13.3577C48.0449 13.3577 49.1223 14.4737 49.1223 14.4737L50.2583 12.6919C50.2583 12.6919 48.9853 11.1449 46.2624 11.1449ZM16.9565 11.2627C15.3502 11.2627 14.1164 12.4375 13.6462 13.9256H13.6068C13.6068 13.9256 13.6462 13.5925 13.6462 13.2009V11.3996H11.1582V21.7776H13.7637V17.6655C13.7637 17.0585 13.8224 16.4907 13.9791 15.9816C14.4688 14.4347 15.7226 13.8082 16.8196 13.8082C17.1526 13.8082 17.4267 13.8472 17.4267 13.8472V11.3017C17.4267 11.3017 17.1916 11.2627 16.9565 11.2627ZM23.2056 13.1424C24.3418 13.1424 25.2233 13.8865 25.2625 15.2963H20.7179C20.953 13.9648 21.8735 13.1424 23.2056 13.1424Z" fill="#0C51A0"/>
<path d="M63.9514 8.48193V21.7776H66.4001V21.1901C66.4001 20.7985 66.361 20.4853 66.361 20.4853H66.4001C66.4001 20.4853 67.3405 22.0323 69.4953 22.0323C72.2574 22.0323 74.2752 19.8978 74.2752 16.5886C74.2752 13.3773 72.4926 11.1449 69.6717 11.1449C67.4777 11.1449 66.5569 12.6529 66.5569 12.6529H66.5175C66.5175 12.6529 66.5569 12.2808 66.5569 11.7717V8.48193H63.9709H63.9514ZM80.8571 11.1449C77.762 11.1449 75.5877 13.3968 75.5485 16.6081C75.5485 19.5648 77.6837 22.0518 81.1314 22.0518C83.7368 22.0518 85.3232 20.5637 85.3232 20.5637L84.3243 18.7035C84.3243 18.7035 82.9924 19.839 81.3273 19.839C79.7798 19.839 78.3693 18.8991 78.2126 17.0781H85.4017C85.4017 17.0781 85.4606 16.3928 85.4606 16.0795C85.4606 13.3186 83.8543 11.1449 80.8571 11.1449ZM92.0425 11.1449C88.9474 11.1449 86.773 13.3968 86.7534 16.6081C86.7534 19.5648 88.8886 22.0518 92.3363 22.0518C94.9221 22.0518 96.509 20.5637 96.509 20.5637L95.5097 18.7035C95.5097 18.7035 94.1778 19.839 92.5127 19.839C90.9652 19.839 89.5547 18.8991 89.398 17.0781H96.5871C96.5871 17.0781 96.646 16.3928 96.646 16.0795C96.646 13.3186 95.0397 11.1449 92.0425 11.1449ZM80.7982 13.1424C81.9344 13.1424 82.8159 13.8865 82.8551 15.2963H78.3105C78.5456 13.9648 79.4661 13.1424 80.7982 13.1424ZM91.9836 13.1424C93.1198 13.1424 94.0013 13.8865 94.0405 15.2963H89.4959C89.731 13.9648 90.6515 13.1424 91.9836 13.1424ZM69.084 13.3577C70.612 13.3577 71.6697 14.6499 71.6697 16.6276C71.6697 18.7032 70.4942 19.8585 69.0641 19.8585C67.3207 19.8585 66.4785 18.2531 66.4785 16.6475C66.4785 14.3369 67.7324 13.3577 69.084 13.3577Z" fill="#00ADE9"/>
<path d="M105.442 10.8122C102.347 6.3281 101.857 -0.0161693 105.089 1.08037C108.341 2.17691 112.944 5.50569 105.442 10.8122Z" fill="#00ADE9"/>
<path d="M105.441 10.8122C102.366 12.8486 98.1738 13.0052 98.6636 11.145C99.1533 9.18693 101.151 6.15186 105.441 10.8122Z" fill="#0C51A0"/>
<path d="M105.677 11.145C106.636 12.7898 109.007 13.4556 110.789 11.7129C113.238 9.34358 116.803 4.19376 105.677 11.145Z" fill="#7BCDF3"/>
<path d="M105.677 11.145C103.267 12.7507 101.328 15.355 102.503 15.3354C103.678 15.3158 106.558 13.7297 105.677 11.145Z" fill="#5491CE"/>
</g>
<defs>
<clipPath id="clip0_7_527">
<rect width="113.409" height="22.3624" fill="white" transform="translate(0.657227 0.322266)"/>
</clipPath>
</defs>
</svg>
