<svg width="176" height="32" viewBox="0 0 176 32" fill="none" xmlns="http://www.w3.org/2000/svg">
<g clip-path="url(#clip0_11_227)">
<path fill-rule="evenodd" clip-rule="evenodd" d="M0 0.237258C0.234553 0.215651 0.469106 0.150829 0.703659 0.150829C4.24328 0.150829 7.78289 0.107615 11.3225 0.172436C12.474 0.194043 13.668 0.345293 14.7982 0.669398C17.165 1.31761 18.551 3.19742 18.8495 5.66062C19.212 8.664 18.0819 10.9327 15.779 12.7045C14.9261 13.3527 14.0092 13.9145 13.071 14.5195C15.6298 18.063 18.2098 21.6282 20.8539 25.3014C20.2782 25.3014 19.8304 25.3014 19.4039 25.3014C18.1032 25.3014 16.8025 25.323 15.5231 25.2798C15.2673 25.2798 14.9261 25.1069 14.7982 24.9125C12.4313 21.4986 10.0858 18.0847 7.74025 14.6707C7.63363 14.5195 7.52702 14.3466 7.52702 14.1738C7.50569 13.5256 7.52702 12.8774 7.52702 12.3588C8.93433 11.8618 10.2777 11.4729 11.5357 10.8895C12.8578 10.2845 13.7747 9.24739 14.0519 7.71329C14.4143 5.68223 13.4122 4.34259 11.3865 4.29938C9.21153 4.25616 7.01527 4.27777 4.77635 4.27777C4.77635 11.2568 4.77635 18.1927 4.77635 25.215C3.1558 25.215 1.5779 25.215 0.021323 25.215C0 16.8963 0 8.57757 0 0.237258Z" fill="white"/>
<path fill-rule="evenodd" clip-rule="evenodd" d="M84.1619 0C85.2493 0.194463 86.3368 0.367319 87.4243 0.626604C88.064 0.777853 88.8956 0.864281 89.2581 1.29642C89.5779 1.66374 89.3647 2.50641 89.386 3.13302C89.4073 3.88926 89.386 4.64551 89.386 5.38015C88.1706 5.03444 87.0405 4.64551 85.8464 4.40783C83.8207 3.97569 81.7524 3.93248 79.7054 4.3214C76.2084 4.94801 74.2467 6.97907 73.6923 10.5226C73.4151 12.2512 73.5004 13.9581 73.9055 15.6435C74.6731 18.8197 76.7201 20.6347 79.8546 21.1965C82.8825 21.7367 85.8464 21.3693 88.725 20.289C88.9169 20.2242 89.0875 20.1594 89.3434 20.0729C89.3434 21.499 89.3434 22.8818 89.3434 24.2863C87.4456 25.0425 85.4626 25.3666 83.4369 25.4747C80.9847 25.6043 78.5539 25.4315 76.1871 24.6752C72.6261 23.5084 70.3446 21.0885 69.3637 17.4585C68.5321 14.3687 68.4681 11.214 69.2358 8.10263C70.3019 3.86766 73.1166 1.49088 77.2319 0.540176C78.1061 0.345712 79.0017 0.21607 79.8973 0.043214C81.3259 0 82.7546 0 84.1619 0Z" fill="white"/>
<path fill-rule="evenodd" clip-rule="evenodd" d="M176 24.7401C173.015 25.4315 170.03 25.6044 167.087 24.6753C164.464 23.8758 162.801 22.0608 162.076 19.3815C161.522 17.2857 161.458 15.1682 161.884 13.0507C162.46 10.2202 164.102 8.31874 166.831 7.45446C169.859 6.50375 172.929 6.655 175.979 7.36803C175.979 8.59963 175.979 9.83123 175.979 11.0628C174.252 10.6523 172.503 10.4578 170.733 10.5659C168.196 10.7387 166.639 12.1216 166.298 14.52C166.191 15.2762 166.213 16.0757 166.277 16.8535C166.533 19.7705 168.281 21.4774 171.16 21.499C172.759 21.499 174.358 21.1965 175.979 21.0237C176 22.2769 176 23.5085 176 24.7401Z" fill="white"/>
<path fill-rule="evenodd" clip-rule="evenodd" d="M41.921 7.62715C41.921 5.14234 41.921 2.67914 41.921 0.194336C43.4563 0.194336 44.9489 0.194336 46.5054 0.194336C46.5268 0.410406 46.5268 0.626476 46.5268 0.842547C46.5268 8.405 46.5268 15.9675 46.5268 23.5515C46.5268 23.9405 46.5481 24.2213 46.0363 24.351C43.0938 25.0424 40.1085 25.4529 37.0807 25.2585C33.4984 25.0424 31.0463 23.141 30.0654 19.7703C29.7882 18.8196 29.6176 17.8041 29.5963 16.8101C29.575 15.4489 29.6176 14.0444 29.8735 12.7264C30.4919 9.50696 32.6028 7.58394 35.8013 7.06537C37.7843 6.74126 39.7461 6.78448 41.6438 7.60554C41.7078 7.60554 41.7931 7.60554 41.921 7.62715ZM41.921 16.2267C41.921 14.8439 41.8997 13.4827 41.921 12.0998C41.921 11.7325 41.7931 11.538 41.4945 11.3868C40.2152 10.7602 38.8718 10.5657 37.4858 10.7818C35.6307 11.0627 34.5646 12.143 34.266 14.0228C34.0315 15.3841 34.0955 16.7237 34.4153 18.0417C34.8844 20.008 36.1851 21.218 38.0402 21.2612C39.149 21.2828 40.2365 21.0883 41.3453 20.9803C41.8144 20.9371 41.9636 20.6994 41.9636 20.2024C41.8997 18.8844 41.921 17.5664 41.921 16.2267Z" fill="white"/>
<path fill-rule="evenodd" clip-rule="evenodd" d="M54.0538 17.6961C54.0964 19.2518 54.6935 20.4186 56.0795 20.894C57.1243 21.2613 58.2757 21.499 59.3845 21.5206C61.3036 21.5422 63.2014 21.3261 65.1844 21.1965C65.1844 22.2336 65.1844 23.3788 65.1631 24.5239C65.1631 24.632 64.9925 24.8048 64.8859 24.8264C61.5808 25.345 58.2544 25.6907 54.9707 24.6752C51.6443 23.6597 50.0024 21.2181 49.5546 17.8258C49.2988 15.9243 49.3841 14.0229 49.8958 12.1647C50.6208 9.50706 52.3479 7.82171 54.9707 7.1735C56.975 6.67654 58.9794 6.67654 60.9838 7.1735C63.905 7.90814 65.5469 9.89599 66.016 12.8345C66.2505 14.2822 66.1226 15.7731 66.1652 17.2424C66.1866 17.7393 65.8667 17.7177 65.5256 17.7177C61.9433 17.7177 58.361 17.7177 54.7788 17.7177C54.5655 17.6961 54.3523 17.6961 54.0538 17.6961ZM54.0964 14.3686C56.6765 14.3686 59.2353 14.3686 61.794 14.3686C61.7301 11.8406 60.6213 10.6306 58.361 10.5226C55.717 10.4146 54.3523 11.6462 54.0964 14.3686Z" fill="white"/>
<path fill-rule="evenodd" clip-rule="evenodd" d="M108.534 17.6963C104.525 17.6963 100.559 17.6963 96.5292 17.6963C96.4866 19.0575 97.0196 20.0514 98.1071 20.7213C99.024 21.283 100.069 21.5423 101.114 21.5207C103.267 21.4775 105.421 21.3479 107.638 21.2398C107.638 22.2121 107.66 23.3357 107.617 24.4593C107.617 24.5889 107.404 24.805 107.255 24.8266C104.312 25.3236 101.348 25.5612 98.3843 24.9346C94.4822 24.1136 92.2433 21.4343 91.9448 17.3938C91.8168 15.6436 91.8381 13.9151 92.3072 12.2081C93.0322 9.61526 94.6528 7.9083 97.2329 7.21688C99.3012 6.6767 101.412 6.6551 103.48 7.19527C106.423 7.97312 108.15 10.1122 108.555 13.3101C108.747 14.7577 108.769 16.2054 108.534 17.6963ZM96.5718 14.3904C99.1093 14.3904 101.647 14.3904 104.163 14.3904C104.419 12.1433 103.075 10.6524 100.772 10.5228C98.4483 10.3931 96.6571 11.5167 96.5718 14.3904Z" fill="white"/>
<path fill-rule="evenodd" clip-rule="evenodd" d="M116.232 25.2582C114.675 25.2582 113.161 25.2582 111.647 25.2582C111.647 19.1218 111.647 13.007 111.647 6.82739C112.756 6.82739 113.843 6.80578 114.931 6.84899C115.059 6.84899 115.229 7.06506 115.272 7.21631C115.464 7.92935 115.592 8.64238 115.763 9.44184C116.146 9.11773 116.488 8.81523 116.85 8.53434C119.238 6.69774 121.882 6.35203 124.654 7.30274C127.085 8.14541 128.023 10.1765 128.109 12.5749C128.215 15.8375 128.151 19.1002 128.151 22.3628C128.151 23.3135 128.151 24.2426 128.151 25.2366C126.616 25.2366 125.102 25.2366 123.545 25.2366C123.545 24.9989 123.545 24.7828 123.545 24.5451C123.545 21.0664 123.46 17.5661 123.567 14.0873C123.673 10.9759 121.776 10.2845 119.515 10.7167C118.385 10.9327 117.383 11.4729 116.509 12.2291C116.338 12.3804 116.253 12.7261 116.253 12.9854C116.232 16.8314 116.253 20.6991 116.253 24.5451C116.232 24.7828 116.232 24.9989 116.232 25.2582Z" fill="white"/>
<path fill-rule="evenodd" clip-rule="evenodd" d="M140.348 6.82747C140.348 8.12389 140.348 9.31228 140.348 10.5439C139.005 10.5439 137.704 10.5439 136.339 10.5439C136.318 10.76 136.297 10.9112 136.297 11.0625C136.297 13.7201 136.297 16.3994 136.297 19.057C136.297 19.3595 136.339 19.662 136.403 19.9645C136.595 20.9369 137.235 21.4986 138.216 21.5419C138.557 21.5635 138.898 21.5419 139.239 21.5419C139.58 21.5419 139.921 21.5419 140.305 21.5419C140.305 22.7735 140.305 23.9834 140.305 25.215C140.241 25.2367 140.135 25.2799 140.049 25.2799C138.557 25.2799 137.064 25.3015 135.572 25.2367C133.461 25.1286 132.139 23.8754 131.776 21.7795C131.712 21.369 131.669 20.9585 131.669 20.5479C131.669 15.1462 131.669 9.72281 131.669 4.32106C131.669 4.19142 131.691 4.08338 131.691 3.8457C132.757 3.8457 133.823 3.8457 134.868 3.86731C134.975 3.86731 135.124 4.10499 135.166 4.23463C135.358 4.92605 135.529 5.61748 135.657 6.33051C135.742 6.74104 135.913 6.84908 136.318 6.84908C137.427 6.82747 138.535 6.84908 139.666 6.84908C139.879 6.82747 140.092 6.82747 140.348 6.82747Z" fill="white"/>
<path fill-rule="evenodd" clip-rule="evenodd" d="M147.576 25.2589C146.02 25.2589 144.527 25.2589 142.992 25.2589C142.992 19.1225 142.992 13.0293 142.992 6.82812C144.101 6.82812 145.21 6.82813 146.318 6.84973C146.425 6.84973 146.574 7.0658 146.617 7.21705C146.787 7.82205 146.937 8.44865 147.086 9.03204C147.875 8.51347 148.621 7.95169 149.41 7.49794C150.22 7.02259 151.137 6.82813 152.14 6.84973C152.14 8.10294 152.14 9.31293 152.14 10.5661C151.841 10.6094 151.5 10.6094 151.201 10.7174C150.498 10.9551 149.773 11.1711 149.133 11.5168C148.067 12.0786 147.491 12.8349 147.555 14.2177C147.683 17.6532 147.598 21.1104 147.598 24.5459C147.576 24.7836 147.576 24.9996 147.576 25.2589Z" fill="white"/>
<path fill-rule="evenodd" clip-rule="evenodd" d="M26.6111 25.2587C25.0759 25.2587 23.6046 25.2587 22.0906 25.2587C22.0906 19.1223 22.0906 13.0291 22.0906 6.87109C23.5832 6.87109 25.0545 6.87109 26.6111 6.87109C26.6111 12.9859 26.6111 19.1007 26.6111 25.2587Z" fill="white"/>
<path fill-rule="evenodd" clip-rule="evenodd" d="M158.75 25.2587C157.214 25.2587 155.743 25.2587 154.229 25.2587C154.229 19.1223 154.229 13.0291 154.229 6.87109C155.722 6.87109 157.193 6.87109 158.75 6.87109C158.75 12.9859 158.75 19.1007 158.75 25.2587Z" fill="white"/>
<path fill-rule="evenodd" clip-rule="evenodd" d="M22.0906 0.172852C23.6259 0.172852 25.0972 0.172852 26.6111 0.172852C26.6111 1.38284 26.6111 2.59284 26.6111 3.82444C25.1185 3.82444 23.6259 3.82444 22.0906 3.82444C22.0906 2.61445 22.0906 1.42606 22.0906 0.172852Z" fill="white"/>
<path fill-rule="evenodd" clip-rule="evenodd" d="M154.229 3.84592C154.229 2.59272 154.229 1.40433 154.229 0.194336C155.764 0.194336 157.236 0.194336 158.771 0.194336C158.771 1.42594 158.771 2.61432 158.771 3.84592C157.257 3.84592 155.764 3.84592 154.229 3.84592Z" fill="white"/>
<path d="M170.371 31.9997H169.966V28.8019H168.857V28.4346H171.501V28.8019H170.371V31.9997Z" fill="white"/>
<path d="M173.569 31.9997L172.375 28.8451H172.354C172.375 29.1044 172.396 29.3853 172.396 29.731V31.9997H172.013V28.4346H172.631L173.74 31.3731H173.761L174.891 28.4346H175.51V31.9997H175.104V29.7094C175.104 29.4501 175.126 29.1692 175.147 28.8451H175.126L173.91 31.9997H173.569Z" fill="white"/>
</g>
<defs>
<clipPath id="clip0_11_227">
<rect width="176" height="32" fill="white"/>
</clipPath>
</defs>
</svg>
