<svg width="109" height="22" viewBox="0 0 109 22" fill="none" xmlns="http://www.w3.org/2000/svg">
<g clip-path="url(#clip0_7_454)">
<path fill-rule="evenodd" clip-rule="evenodd" d="M29.8408 21.3601L12.6202 4.21753C10.3287 1.94635 7.21465 0.597656 3.97406 0.597656H0.375977L0.644884 1.28965L1.84389 4.39507L8.35988 21.3601H29.8408Z" fill="url(#paint0_linear_7_454)"/>
<path fill-rule="evenodd" clip-rule="evenodd" d="M11.0573 14.9287C11.0932 15.1763 11.2909 15.3886 11.5424 15.4239C15.1104 15.9726 18.5719 17.4226 21.5848 19.8116C21.6027 19.8292 21.6206 19.8292 21.657 19.8292C21.6754 19.8292 21.7113 19.8116 21.7292 19.7939C21.7651 19.7586 21.7651 19.6875 21.7292 19.6522C19.6486 17.4942 17.084 15.7603 14.2325 14.6281L13.353 14.2741C12.9049 14.0976 12.6001 13.6547 12.6001 13.1595C12.6539 11.3197 17.0661 11.6904 17.5142 10.8068L17.5854 10.6474C16.6706 9.88588 15.5944 9.3029 14.4113 8.98363C14.3928 9.0371 14.3744 9.24839 14.6079 9.63774C14.8768 10.0634 14.3211 10.7352 13.5138 10.0099L13.4421 9.957C7.48874 4.54302 3.00538 7.34631 0.637939 1.27875L1.83906 4.37275C4.18857 8.33576 10.3755 8.75418 11.0573 14.9287Z" fill="white"/>
<path fill-rule="evenodd" clip-rule="evenodd" d="M14.606 9.63046C14.694 9.76959 14.6935 9.95076 14.6218 10.0899C14.5469 10.2332 14.3961 10.3323 14.1963 10.3323V11.7796C14.8417 11.6031 15.5777 11.4786 16.1867 11.355V10.541C16.1867 10.541 15.1976 10.6038 14.606 9.63046Z" fill="url(#paint1_linear_7_454)"/>
<path fill-rule="evenodd" clip-rule="evenodd" d="M12.2585 15.5485C15.5592 16.1663 18.7693 17.5825 21.567 19.794C15.3083 14.5393 12.4742 15.4769 12.2591 15.5475L12.2585 15.5485Z" fill="url(#paint2_linear_7_454)"/>
<path fill-rule="evenodd" clip-rule="evenodd" d="M0.637451 1.28809L1.83962 4.38416C4.18861 8.34718 10.3761 8.77182 11.0573 14.9463C10.3582 7.05559 6.86028 8.22363 3.09452 4.64995C2.12593 3.95951 1.30181 2.96902 0.637451 1.28809Z" fill="url(#paint3_linear_7_454)"/>
<path fill-rule="evenodd" clip-rule="evenodd" d="M25.2493 12.4561C25.2493 9.61125 28.1704 7.41898 32.5045 7.41898C36.8202 7.41898 39.7597 9.61125 39.7597 12.3471C39.7597 13.5618 39.2082 14.5757 38.1611 15.4099H40.7326L40.1262 16.4419C39.7402 17.095 39.2625 17.4932 38.2333 17.4698L32.3753 17.4932C28.0222 17.4932 25.2488 15.2645 25.2488 12.4566L25.2493 12.4561ZM32.4866 15.21C34.8551 15.21 36.8756 14.0503 36.8756 12.4561C36.8756 10.8613 34.8735 9.70158 32.4861 9.70158C30.116 9.70158 28.0955 10.8613 28.0955 12.4561C28.0955 14.0498 30.116 15.21 32.4855 15.21H32.4866ZM44.6665 15.6523L43.5793 17.4693H40.732L45.4896 9.37609C45.8571 8.74119 46.4081 8.23401 47.4737 8.12499H48.5388C49.6223 8.23401 50.1549 8.72354 50.5224 9.37609L55.2794 17.4693H52.3773L51.2574 15.6523H44.6665ZM50.2461 13.8354L48.1344 10.0639C48.079 9.9736 48.0421 9.95491 47.9688 9.95491C47.895 9.95491 47.8581 9.9736 47.8038 10.0639L45.7105 13.8354H50.2461ZM68.9209 17.4693H66.2988L58.9028 11.3503V17.4693H56.2664V8.12499H57.9052C58.7135 8.23401 59.1358 8.45204 59.5951 8.83204L66.2845 14.3581V8.12499H68.9209V17.4693ZM77.8845 17.4693H75.2481V10.2015H69.9754V8.12499H83.1571V10.2015H77.8845M84.7389 15.6523L83.6918 17.4693H80.8445L85.6021 9.37609C85.9691 8.74119 86.5195 8.23401 87.5857 8.12499H88.6508C89.7338 8.23401 90.2663 8.72354 90.6333 9.37609L95.3908 17.4693H92.4898L91.3298 15.6523H84.7389ZM90.377 13.8354L88.2653 10.0639C88.21 9.9736 88.173 9.95491 88.0998 9.95491C88.0259 9.95491 87.989 9.9736 87.9347 10.0639L85.8415 13.8354H90.3776H90.377ZM96.0526 16.7498L96.6958 14.7387C98.5318 15.3185 100.479 15.5537 102.243 15.5537C105.126 15.5537 105.842 15.2282 105.842 14.8659C105.842 14.7205 105.75 14.6115 105.511 14.5388C105.218 14.449 104.428 14.286 102.058 13.9055C99.4503 13.4886 98.256 13.2711 97.3934 12.8724C96.5303 12.4737 95.9972 11.8393 95.9972 10.9153C95.9972 10.2093 96.3462 9.64759 96.9157 9.19439C97.9259 8.43335 99.6338 8.12499 101.489 8.12499C103.895 8.12499 105.915 8.32485 108.156 8.86838L108.358 8.92289L107.825 10.88C105.328 10.3541 103.932 10.2093 102.022 10.1729C100.681 10.1548 99.7624 10.2633 99.2668 10.4086C98.991 10.4984 98.8808 10.6251 98.8808 10.7705C98.8808 10.9158 98.9731 11.0238 99.2489 11.1146C99.5425 11.205 100.039 11.3327 102.61 11.7303C105.383 12.1835 106.302 12.3647 107.073 12.6544C108.12 13.0531 108.744 13.7778 108.744 14.6842C108.744 15.8252 107.844 16.6776 106.283 17.1479C105.328 17.4387 104.024 17.6011 102.573 17.6011C100.277 17.6193 97.8527 17.3291 96.2914 16.8224L96.0526 16.7498Z" fill="#323232"/>
</g>
<defs>
<linearGradient id="paint0_linear_7_454" x1="19.0443" y1="21.2825" x2="11.1708" y2="-1.67472" gradientUnits="userSpaceOnUse">
<stop stop-color="#BE0000"/>
<stop offset="0.3898" stop-color="#DE0000"/>
<stop offset="0.768" stop-color="#F60000"/>
<stop offset="1" stop-color="#FF0000"/>
</linearGradient>
<linearGradient id="paint1_linear_7_454" x1="15.2892" y1="10.7048" x2="15.2892" y2="9.80226" gradientUnits="userSpaceOnUse">
<stop stop-color="white" stop-opacity="0"/>
<stop offset="0.51203" stop-color="#E0E0E0" stop-opacity="0.262"/>
<stop offset="0.66549" stop-color="#C5C5C5" stop-opacity="0.549"/>
<stop offset="0.82415" stop-color="#B5B5B5" stop-opacity="0.805"/>
<stop offset="1" stop-color="#AFAFAF"/>
</linearGradient>
<linearGradient id="paint2_linear_7_454" x1="12.2622" y1="17.6241" x2="20.6406" y2="17.6241" gradientUnits="userSpaceOnUse">
<stop stop-color="white" stop-opacity="0"/>
<stop offset="0.08391" stop-color="#F1F1F1" stop-opacity="0.093"/>
<stop offset="0.24826" stop-color="#D4D4D4" stop-opacity="0.325"/>
<stop offset="0.44531" stop-color="#C0C0C0" stop-opacity="0.555"/>
<stop offset="0.7032" stop-color="#B3B3B3" stop-opacity="0.781"/>
<stop offset="1" stop-color="#AFAFAF"/>
</linearGradient>
<linearGradient id="paint3_linear_7_454" x1="3.23784" y1="8.10027" x2="11.0421" y2="8.10027" gradientUnits="userSpaceOnUse">
<stop stop-color="white" stop-opacity="0"/>
<stop offset="0.28583" stop-color="#EDEDED" stop-opacity="0.282"/>
<stop offset="0.886" stop-color="#BDBDBD" stop-opacity="0.848"/>
<stop offset="1" stop-color="#AFAFAF"/>
</linearGradient>
<clipPath id="clip0_7_454">
<rect width="108.617" height="20.7651" fill="white" transform="translate(0.375977 0.597656)"/>
</clipPath>
</defs>
</svg>
