<svg width="200" height="25" viewBox="0 0 200 25" fill="none" xmlns="http://www.w3.org/2000/svg">
<path d="M181.996 9.2725H182.038C183.177 7.80068 184.505 7.54837 185.981 7.54837L185.707 11.312C185.39 11.291 185.074 11.291 184.779 11.291C181.849 11.291 181.743 12.9731 181.638 14.9285L181.364 19.3229H176.789L177.4 10.5761C177.485 9.52482 177.506 8.80993 177.464 7.52734H181.828L181.996 9.2725Z" fill="#0F059E"/>
<path d="M158.786 19.3229L159.966 2.41797H164.288L163.107 19.3229H158.786Z" fill="#0F059E"/>
<path d="M151.786 1.97656C155.286 1.97656 158.849 3.49044 158.701 7.73769H153.895C153.895 6.62331 153.241 5.36175 151.618 5.36175C149.995 5.36175 148.076 6.58126 147.739 10.0716C147.401 13.5619 147.844 16.2322 150.69 16.2322C153.157 16.2322 153.642 14.1086 153.684 13.7091H158.448C158.448 15.6014 156.888 19.4912 150.416 19.4912C143.586 19.4912 142.384 14.5291 142.932 9.9244C143.417 6.05561 146.179 1.97656 151.786 1.97656Z" fill="#0F059E"/>
<path d="M136.903 9.90332H142.616L140.782 13.5829H135.069L136.903 9.90332Z" fill="#0F059E"/>
<path d="M128.028 25H123.917L126.573 19.5122L122.23 7.52734H127.269L129.208 14.8444L132.307 7.52734H136.46L128.028 25Z" fill="#0F059E"/>
<path d="M64.1087 7.52733V9.12531H64.1509C65.458 7.40118 67.271 7.254 68.3883 7.254C69.9905 7.254 71.6559 8.13709 71.9721 9.33557C72.8786 7.92683 74.5019 7.23297 76.2938 7.19092C78.8658 7.19092 80.6577 8.83095 80.4891 11.4382L79.9199 19.3229H75.4084L75.8933 12.4054C75.9565 11.291 75.8722 10.0084 74.3754 10.0084C72.204 10.0084 72.2884 12.4264 72.2673 12.5736L71.8246 19.3229H67.271L67.7769 12.4054C67.798 11.2489 67.6504 10.0084 66.2169 10.0084C63.919 10.0084 63.9823 12.4264 63.9823 12.5736L63.5185 19.344H58.8384L59.6606 7.54836L64.1087 7.52733Z" fill="#0F059E"/>
<path d="M54.559 7.52734H58.7753L57.9531 19.3229H53.7368L54.559 7.52734Z" fill="#0F059E"/>
<path d="M47.876 2.41797L41.9521 9.92426L47.2225 19.3229H53.1675L47.2436 9.67195L53.4837 2.41797H47.876Z" fill="#0F059E"/>
<path d="M37.4194 2.41797H42.3736L41.193 19.3229H36.2178L37.4194 2.41797Z" fill="#0F059E"/>
<path d="M99.3781 14.1924C99.2516 15.8114 99.61 17.1361 101.296 17.1361C102.54 17.1361 103.32 16.3161 103.32 15.5381H107.452C107.368 16.9679 106.356 18.0822 105.175 18.7341C104.1 19.3859 102.857 19.512 101.528 19.512C96.7218 19.512 94.8456 17.5145 95.1407 13.057C95.3937 9.33542 98.3872 7.12769 101.95 7.19077C106.693 7.27487 108.211 10.0503 107.769 14.2135H99.3781V14.1924ZM103.658 11.9637C103.7 11.3329 103.552 10.7021 103.236 10.1975C102.92 9.71389 102.435 9.3985 101.76 9.44055C100.2 9.50363 99.7997 10.618 99.5889 11.9426H103.658V11.9637Z" fill="#0F059E"/>
<path d="M82.0071 2.41797H86.4342L85.9705 9.14629H86.0548C86.9402 8.09499 88.184 7.2119 89.7862 7.2119C93.4122 7.2119 94.8036 10.3868 94.5928 13.2464C94.403 16.148 92.8641 19.4701 88.8375 19.4701C87.4672 19.4701 86.1602 18.7131 85.5488 17.8511H85.4645L85.1904 19.2808H80.8477L82.0071 2.41797ZM85.5488 13.5828C85.4856 15.0126 85.844 17.0521 87.4672 17.0521C89.5121 17.0521 90.0181 15.0126 90.1024 13.3725C90.1657 11.9217 89.8916 9.77707 88.1418 9.7981C85.9072 9.7981 85.6121 12.0269 85.5488 13.5828Z" fill="#0F059E"/>
<path d="M116.792 19.3229L117.972 2.41797H122.294L121.113 19.3229H116.792Z" fill="#0F059E"/>
<path d="M113.144 9.2725H113.186C114.325 7.80068 115.653 7.54837 117.107 7.54837L116.833 11.312C116.538 11.291 116.222 11.291 115.927 11.291C112.997 11.291 112.891 12.9731 112.786 14.9285L112.512 19.3229H107.937L108.548 10.5761C108.633 9.52482 108.654 8.80993 108.612 7.52734H112.975L113.144 9.2725Z" fill="#0F059E"/>
<path d="M190.724 12.7628L194.94 7.52734H200L195.446 12.5105L199.747 19.3229H194.266L190.724 12.7628Z" fill="#0F059E"/>
<path d="M185.812 19.3229L186.993 2.41797H191.462L190.281 19.3229H185.812Z" fill="#0F059E"/>
<path d="M171.603 17.8722H171.561C170.612 18.7553 169.706 19.4071 167.977 19.4071C165.173 19.4071 164.014 17.8301 164.014 15.7486C164.014 13.4147 166.417 11.9008 170.697 11.9008H172.109C172.172 10.8705 172.531 9.16742 170.781 9.16742C169.516 9.16742 169.221 10.3659 169.2 10.9336H165.131C165.215 9.39871 165.89 8.36843 167.134 7.84278C168.399 7.27508 169.938 7.14893 171.245 7.14893C173.648 7.14893 176.578 8.34741 176.389 11.249L176.051 16.905C176.009 17.3886 176.009 17.9142 176.072 19.323H171.856L171.603 17.8722ZM169.664 17.0732C171.751 17.0732 171.877 15.1388 171.982 13.5619C171.034 13.5619 170.148 13.5198 169.516 13.8142C168.841 14.1506 168.335 14.6973 168.272 15.5173C168.23 16.4004 168.82 17.0732 169.664 17.0732Z" fill="#0F059E"/>
<path d="M54.9803 2.41797H59.1966L58.9858 5.46674H54.7695L54.9803 2.41797Z" fill="#0F059E"/>
<path d="M10.9202 2.52319V9.71408C10.351 8.41047 9.08612 7.25404 7.80015 6.47608H2.38221C4.13197 7.77969 6.91473 9.81921 6.91473 11.4592C6.91473 12.2793 5.9239 12.4264 5.3547 12.4264H1.9395V16.3373H7.29419C8.49584 16.3373 10.2245 15.8957 10.9202 14.0665V19.3019H15.8954V14.0665C16.5911 15.9168 18.3198 16.3373 19.5215 16.3373H24.8761V12.4264H21.4609C20.8917 12.4264 19.9009 12.2582 19.9009 11.4592C19.9009 9.81921 22.6837 7.77969 24.4334 6.47608H19.0155C17.7295 7.25404 16.4646 8.41047 15.8954 9.71408V2.52319H10.9202ZM13.4078 6.41369e-05C20.8074 6.41369e-05 26.8156 5.15144 26.8156 11.5013C26.8156 17.8512 20.8074 23.0025 13.4078 23.0025C6.00822 23.0025 0 17.8512 0 11.5013C0 5.13041 5.98714 -0.0209619 13.4078 6.41369e-05Z" fill="#0F059E"/>
</svg>
