<svg width="46" height="37" viewBox="0 0 46 37" fill="none" xmlns="http://www.w3.org/2000/svg">
<path d="M29.5545 34.4055C29.0793 34.4055 28.6934 34.7841 28.6934 35.2515C28.6934 35.7184 29.0793 36.0976 29.5545 36.0976C30.0298 36.0976 30.4151 35.7184 30.4151 35.2516C30.4151 34.7841 30.0298 34.4055 29.5545 34.4055ZM29.5545 35.9161C29.4657 35.9162 29.3777 35.8991 29.2957 35.8657C29.2136 35.8323 29.139 35.7834 29.0762 35.7216C29.0134 35.6599 28.9636 35.5866 28.9296 35.5059C28.8957 35.4253 28.8782 35.3388 28.8783 35.2515C28.8783 34.8843 29.1804 34.5874 29.5545 34.5874C29.9281 34.5874 30.2306 34.8843 30.2306 35.2515C30.2306 35.6189 29.9281 35.9161 29.5545 35.9161ZM29.9083 35.0554C29.9083 35.0177 29.9007 34.9804 29.886 34.9456C29.8713 34.9108 29.8498 34.8792 29.8226 34.8526C29.7955 34.826 29.7633 34.8049 29.7279 34.7905C29.6925 34.7761 29.6545 34.7687 29.6162 34.7688H29.2013V35.7346H29.3857V35.3423H29.5181L29.7044 35.7346H29.9083L29.7138 35.3256C29.8302 35.2849 29.908 35.1768 29.9083 35.0554ZM29.6162 35.161H29.3857V34.9496H29.6162C29.6754 34.9496 29.7239 34.997 29.7239 35.0555C29.7237 35.1138 29.6755 35.161 29.6162 35.161Z" fill="#010101"/>
<path d="M30.4914 22.6402C30.6875 22.3092 30.8661 21.9741 31.0227 21.6398L45.1362 14.2114H30.2857C29.1723 13.0647 27.5623 12.3663 25.5829 12.1691L24.4063 0.70105L17.3954 12.1105H13.6217L12.344 14.2115H0.433105L8.47409 20.578L3.48199 28.7894H7.1453L2.22212 36.7996L17.4416 28.7885C17.8926 28.7853 18.3435 28.7725 18.7939 28.7503L28.0322 36.0661L27.0411 26.3929C28.4219 25.4514 29.5534 24.2194 30.4914 22.6402H30.4914Z" fill="#006341"/>
<path d="M30.4272 21.0954L42.0658 14.9693H29.9418C28.8509 13.6906 27.1101 12.9726 24.8815 12.8789L23.8713 3.03662L17.8304 12.8677H14.0584L12.7815 14.9693H2.61743L9.47936 20.4017L4.83993 28.0315H8.51053L4.33344 34.8295L17.2476 28.0315C17.8478 28.0313 18.4478 28.0139 19.0469 27.9792L27.0813 34.3401L26.2282 26.0143C27.6848 25.1096 28.8634 23.8791 29.8254 22.2592C30.0551 21.8724 30.2576 21.4819 30.4272 21.0954Z" fill="#010101"/>
<path d="M29.4249 17.1863C29.4249 17.1863 29.308 16.8114 29.1379 16.4827L26.7725 17.6183C26.9263 18.0132 27.1467 18.957 26.5594 20.3597C25.8894 21.9573 23.8945 24.7829 18.4535 24.7829H11.1532L7.55685 26.516H14.0008L13.1753 26.7354L8.55535 30.8882L16.8614 26.516H17.2079C18.044 26.516 18.8196 26.4846 19.5413 26.4238L21.0028 26.2505C21.2856 26.2054 21.5584 26.1546 21.823 26.0992C24.5383 25.5293 26.2892 24.3956 27.5656 22.8328C27.9053 22.4164 28.2125 21.9701 28.4942 21.495C28.8907 20.8261 29.1704 20.1866 29.3441 19.5828C29.5986 18.6953 29.6205 17.886 29.4249 17.1863H29.4249ZM12.6094 18.2039L6.98746 16.4831L6.98706 16.4827L11.4893 20.0474L12.6094 18.2039ZM21.1923 14.3818H23.4867L22.8015 7.70694L21.1923 14.3818ZM29.9415 17.9514C29.9967 18.0573 30.047 18.1657 30.0925 18.2761C30.1019 18.2988 30.1096 18.3223 30.1185 18.3451C30.1524 18.4311 30.1834 18.5182 30.2114 18.6063C30.2212 18.639 30.2301 18.6714 30.2402 18.7041C30.2647 18.7916 30.2869 18.8798 30.3068 18.9685C30.3129 18.998 30.3202 19.0268 30.3263 19.0566C30.3506 19.1767 30.3701 19.2992 30.3864 19.4264L30.3868 19.426L33.9847 17.5138L35.9236 16.4827L29.9415 17.9514ZM24.6873 26.2364C24.5228 26.2537 24.3593 26.2669 24.1969 26.2776C24.1851 26.2783 24.173 26.2792 24.1612 26.2796C24.0037 26.2903 23.8467 26.2976 23.6924 26.303C23.679 26.3039 23.666 26.3043 23.6526 26.3046C23.4964 26.3099 23.343 26.313 23.1928 26.3141H23.1729C23.0186 26.3151 22.8674 26.3146 22.7212 26.3126V26.313L25.1787 30.8882L24.6873 26.2364Z" fill="#A2AAAD"/>
<path d="M23.1857 16.007H16.4955L16.4825 16.0006L11.1531 24.7827L14.7596 23.0515L16.8174 19.7492L17.4473 18.7385L16.9813 18.3699L16.0503 17.6325L16.0499 17.6321H21.6317C21.7377 17.6321 21.8395 17.6332 21.9397 17.6361C21.9478 17.6361 21.9556 17.6365 21.9628 17.6368C22.0518 17.6392 22.139 17.6428 22.2238 17.6476C22.251 17.6492 22.2766 17.6512 22.3046 17.6532C22.3675 17.6572 22.4296 17.6612 22.4905 17.6668C22.5254 17.67 22.5591 17.6743 22.5936 17.6775C22.6427 17.6831 22.6926 17.6887 22.7409 17.6943C22.779 17.6995 22.816 17.7054 22.8534 17.711C22.8947 17.717 22.9353 17.7234 22.9743 17.7305C23.0141 17.7373 23.0514 17.7449 23.0892 17.7529C23.1245 17.7601 23.1586 17.7673 23.1919 17.7749C23.2312 17.784 23.269 17.7944 23.3055 17.8044C23.3347 17.8123 23.3647 17.8203 23.3923 17.8286C23.4309 17.8406 23.4674 17.8525 23.5031 17.8654C23.5278 17.8741 23.5526 17.8829 23.5762 17.8921C23.6127 17.9065 23.648 17.9205 23.6825 17.936L23.7439 17.9643C23.7951 17.9901 23.8453 18.0177 23.8943 18.0473C23.9261 18.0672 23.9569 18.0872 23.9869 18.1087C24.0011 18.1187 24.0145 18.1291 24.0279 18.1394C24.058 18.1625 24.0859 18.1861 24.1131 18.2112C24.1241 18.2211 24.1338 18.2316 24.1444 18.242C24.1716 18.269 24.198 18.2962 24.2215 18.3253C24.2296 18.3345 24.2365 18.344 24.2439 18.3536C24.2685 18.3848 24.2921 18.4166 24.3133 18.4509C24.3173 18.4577 24.3218 18.4657 24.3259 18.4729C24.3481 18.5104 24.3692 18.5483 24.3871 18.5882C24.3888 18.5914 24.3892 18.5949 24.3912 18.5981C24.4106 18.6424 24.4277 18.6883 24.4423 18.7366L24.4427 18.7362L26.7724 17.6181C26.1339 16.1678 24.3202 16.007 23.1858 16.007H23.1857Z" fill="#A2AAAD"/>
<path d="M19.5406 26.4243L25.178 30.8881L22.7205 26.313C21.9925 26.3029 21.3783 26.261 21.0021 26.2505L19.5406 26.4238M10.7054 27.39L8.55469 30.8882L13.1746 26.7353M14.7591 23.0517L11.1526 24.7828H18.4529C23.8938 24.7828 25.8888 21.9573 26.5588 20.3597C27.1461 18.9569 26.9257 18.0131 26.7719 17.6183L24.4421 18.7364C24.4555 18.781 24.4678 18.8256 24.4775 18.874C24.6837 19.9385 23.7981 21.4603 22.2988 22.3222C21.1141 23.0031 19.6887 23.0517 18.4573 23.0517H14.759" fill="white"/>
<path d="M16.4827 16.0008L16.4957 16.0072H23.186C24.3204 16.0072 26.1342 16.1679 26.7726 17.6183L29.1379 16.4827C29.308 16.8114 29.4249 17.1863 29.4249 17.1863C29.6327 17.436 29.8023 17.6893 29.9416 17.9513L35.9236 16.4827H29.1379C28.4106 15.1699 26.7592 14.3817 24.3812 14.3817H21.1924L22.8016 7.70691V7.70651L18.6995 14.3817H14.9336L13.6559 16.4827H6.98755V16.4831L12.6095 18.2038L11.4894 20.0474L7.55693 26.5159L11.1533 24.7829L16.4827 16.0008H16.4827Z" fill="white"/>
</svg>
