<svg width="141" height="22" viewBox="0 0 141 22" fill="none" xmlns="http://www.w3.org/2000/svg">
<path d="M6.15856 10.9282L0 19.7819H1.11225L2.63644 17.625H6.28214L6.44692 18.6315C6.56473 19.4286 6.77318 19.7819 7.70335 19.7819H8.63022L7.14722 10.9282H6.15856ZM11.5138 11.6472L9.68068 19.7819H11.658L13.4912 11.6472H11.5138ZM15.0565 11.6472L15.4479 12.3456L13.7795 19.7819H15.7568L17.4046 12.3867H18.0225C19.1603 12.3867 19.6349 13.0473 19.5467 14.0301C19.4734 14.9101 18.8217 15.8748 16.8279 16.0843L18.4345 18.8986C18.8481 19.6151 19.0301 19.7819 20.1234 19.7819H21.1739L18.97 16.3308C20.1515 16.15 21.4384 15.4105 21.5858 14.0917C21.763 12.579 20.6722 11.6472 18.8258 11.6472H15.0565ZM27.0441 11.6472L27.559 12.5921L25.9524 19.7819H26.9823L28.3417 13.8041L31.4107 18.8986C31.7485 19.4729 32.0509 19.7819 32.9967 19.7819L34.8298 11.6472H33.8L32.5229 17.2757L29.7423 12.51C29.3419 11.8214 29.1368 11.6472 28.2799 11.6472H27.0441ZM36.663 11.6472L34.8298 19.7819H41.1326C41.0148 19.2215 40.7643 19.0013 40.0409 19.0013H37.0131L37.6928 16.0021H40.803L40.9884 15.1804H37.8576L38.4755 12.4278H41.3591C42.0825 12.4278 42.3322 12.2068 42.4508 11.6472H36.663ZM43.1717 11.6472L44.4281 19.7819H45.3756L48.1974 14.9339L48.8771 19.7819H49.8246L54.7267 11.6472H53.6763L50.2777 17.3374L49.6186 11.9964C49.5897 11.7458 49.3764 11.6472 49.1243 11.6472H47.7649L48.0326 13.5782L45.8905 17.3374L45.0872 11.9964C45.0568 11.7458 44.8442 11.6472 44.5929 11.6472H43.1717ZM58.9285 11.6472C59.0464 12.2076 59.2952 12.4278 60.0202 12.4278H63.6865L57.8781 18.2618C57.3763 18.7687 57.0427 19.0958 57.013 19.7819H64.5516C64.4338 19.2256 64.1924 19.0037 63.4805 19.0013H63.46H59.6495L65.2519 13.2495C65.9596 12.4935 66.1195 12.1082 66.1788 11.6472H58.9285ZM67.7029 11.6472L65.8904 19.7819H72.1725C72.0522 19.2215 71.8043 19.0013 71.0809 19.0013H68.0531L68.7328 16.0021H71.843L72.0283 15.1804H68.8976L69.5155 12.4278H72.3991C73.1233 12.4278 73.3729 12.2076 73.4907 11.6472H67.7029ZM78.1869 11.6472L72.6669 19.7819H73.7791L75.2415 17.625H78.5577L78.7636 18.6315C78.9424 19.4195 79.1303 19.7819 80.0612 19.7819H81.0087L79.1756 11.6472H78.1869ZM83.8923 11.6472L82.0592 19.7819H87.538C87.4202 19.2223 87.1491 19.0013 86.4258 19.0013H84.2219L85.8697 11.6472H83.8923ZM93.5318 11.6472L88.0324 19.7819H89.124L90.5864 17.625H93.9026L94.1291 18.6315C94.3054 19.4195 94.4958 19.7819 95.4267 19.7819H96.3742L94.5205 11.6472H93.5318ZM98.5163 11.6472L99.0518 12.5921L97.4247 19.7819H98.4751L99.8139 13.8041L102.883 18.8986C103.225 19.4729 103.543 19.7819 104.49 19.7819L106.302 11.6472H105.272L104.016 17.2757L101.215 12.51C100.817 11.8214 100.609 11.6472 99.7522 11.6472H98.5163ZM107.888 11.6472L108.259 12.3456L106.59 19.7819H109.598C112.286 19.7819 114.793 18.293 115.221 15.7145C115.648 13.1657 113.808 11.6472 111.204 11.6472H109H108.424H107.888ZM110.236 12.4073H110.772C112.646 12.4073 113.506 13.6398 113.182 15.7145C112.854 17.8156 111.163 19.0424 109.289 19.0424H108.733L110.236 12.4073ZM5.62303 13.3933L6.15856 16.7827H3.23376L5.62303 13.3933ZM77.7132 13.9274L78.3517 16.7827H75.7976L77.7132 13.9274ZM93.0787 13.9274L93.7172 16.7827H91.1631L93.0787 13.9274Z" fill="#231F20"/>
<path d="M131.658 0C129.188 0 126.901 1.75019 125.602 3.01969C120.98 7.51595 118.537 10.5586 118.537 10.5586H139.134L140.061 8.50444H123.439C123.439 8.50444 124.694 6.7904 127.394 4.25222C128.072 3.61952 129.847 2.03367 131.658 2.03367C132.846 2.03367 133.779 2.77483 133.779 3.77975C133.779 4.77399 132.935 5.05336 132.935 5.05336C133.023 4.62855 132.737 3.47162 131.616 3.47162C130.455 3.47162 129.969 4.35575 129.969 4.95065C129.969 6.17332 131.084 7.04595 132.378 7.04595C134.867 7.04595 136.024 5.28097 136.024 3.57433C136.024 1.85208 134.341 0 131.658 0ZM118.187 11.6268C118.187 11.6268 119.268 14.7271 120.7 17.6868C121.913 20.2085 123.926 21.7336 126.385 21.7336C128.695 21.7336 130.257 19.9809 130.257 18.303C130.257 16.4041 128.809 15.1601 127.085 15.1601C125.247 15.1601 124.86 16.538 124.86 16.8856C124.86 17.6868 125.533 18.4263 126.385 18.4263C127.726 18.4263 127.826 17.3581 127.826 17.3581C127.826 17.3581 128.238 17.621 128.238 18.303C128.238 18.9587 127.681 19.8026 126.385 19.8026C125.35 19.8026 123.829 19.2586 122.78 17.05C121.547 14.4641 121.462 13.7016 121.462 13.7016H137.713L138.64 11.6268H118.187Z" fill="#231F20"/>
</svg>
