<svg width="36" height="42" viewBox="0 0 36 42" fill="none" xmlns="http://www.w3.org/2000/svg">
<g clip-path="url(#clip0_7_850)">
<path d="M35.8988 0.428009H0.809814V41.1831H35.8988V0.428009Z" fill="black"/>
<path d="M7.34815 29.7099H4.62939V12.9633H8.73241C9.89402 12.9633 10.8827 13.322 11.5995 13.9681C12.1681 14.4706 12.8353 15.4274 12.8353 17.0781V18.8964C12.8353 20.5709 12.1681 21.5278 11.5995 22.0302C10.8827 22.6761 9.89402 23.0111 8.73241 23.0111H7.34815V29.7099ZM7.34815 20.3798H8.73241C9.0538 20.3798 9.47391 20.3319 9.74569 20.0926C10.0425 19.8302 10.1165 19.3031 10.1165 18.8965V17.0783C10.1165 16.6954 10.0425 16.169 9.74569 15.882C9.47455 15.6427 9.0538 15.5949 8.73241 15.5949H7.34815V20.3798Z" fill="#FFFF09"/>
<path d="M22.3433 29.7099H19.5751L18.1661 22.9873H16.9302V29.7099H14.2114V12.9633H18.3144C19.4761 12.9633 20.4648 13.322 21.1815 13.9681C21.7501 14.4706 22.4173 15.4274 22.4173 17.0781V18.8723C22.4173 20.5471 21.7501 21.5039 21.1815 22.0061C21.061 22.1226 20.9285 22.2267 20.786 22.317L22.3433 29.7099ZM19.6985 17.0783C19.6985 16.6954 19.6245 16.169 19.3277 15.882C19.0566 15.6427 18.6358 15.5949 18.3144 15.5949H16.9302V20.3557H18.3144C18.6358 20.3557 19.0559 20.308 19.3277 20.0687C19.6245 19.8062 19.6985 19.2792 19.6985 18.8724V17.0783Z" fill="#FFFF09"/>
<path d="M27.956 29.9013C26.7944 29.9013 25.8057 29.5665 25.0888 28.9206C24.5205 28.3941 23.853 27.4613 23.853 25.7868V16.887C23.853 15.2125 24.5205 14.2793 25.0888 13.7532C25.8057 13.1071 26.7944 12.7725 27.956 12.7725C29.1177 12.7725 30.1064 13.1071 30.8231 13.7532C31.3917 14.2795 32.0592 15.2127 32.0592 16.887V25.7864C32.0592 27.4613 31.3917 28.3941 30.8231 28.9203C30.1064 29.5665 29.1177 29.9013 27.956 29.9013ZM27.956 15.4038C27.6348 15.4038 27.2146 15.4516 26.9426 15.6909C26.6461 15.9534 26.5719 16.5042 26.5719 16.887V25.7864C26.5719 26.1693 26.6461 26.7196 26.9426 26.9827C27.2138 27.222 27.6348 27.2698 27.956 27.2698C28.2773 27.2698 28.7224 27.222 28.9695 26.9827C29.2907 26.7203 29.3401 26.1693 29.3401 25.7864V16.887C29.3401 16.5042 29.2907 15.9541 28.9695 15.6909C28.7224 15.4516 28.2774 15.4038 27.956 15.4038Z" fill="#FFFF09"/>
<path d="M7.54417 37.6263L7.03171 38.6964H4.62939V31.8863H5.73518V37.6263H7.54417Z" fill="#FFFF09"/>
<path d="M11.5846 32.9564H10.1882V34.6687H11.746L11.2434 35.7387H10.1882V37.6262H12.0972L11.5846 38.6964H9.08179V31.8861H12.0972L11.5846 32.9564Z" fill="#FFFF09"/>
<path d="M16.077 37.6154H14.8106L14.6094 38.6961H13.4839L14.891 31.886H15.9967L17.4038 38.6961H16.2781L16.077 37.6154ZM15.8856 36.5453L15.4434 34.1034L15.001 36.5453H15.8856Z" fill="#FFFF09"/>
<path d="M21.0417 34.0849V33.4816C21.0417 33.3261 21.0216 33.1023 20.9012 32.9953C20.7788 32.91 20.6295 32.8686 20.479 32.8784C20.3318 32.87 20.1861 32.9113 20.0669 32.9953C19.9562 33.1337 19.9024 33.307 19.9162 33.4816V37.1008C19.9024 37.2753 19.9561 37.4486 20.0669 37.587C20.1861 37.671 20.3318 37.7124 20.479 37.7039C20.6295 37.7137 20.7788 37.6724 20.9012 37.587C21.0216 37.4802 21.0417 37.2564 21.0417 37.1008V35.8265H20.4891L21.0015 34.7564H22.1475V37.1011C22.1475 37.782 21.8764 38.1615 21.6449 38.3754C21.3235 38.6481 20.9061 38.7909 20.479 38.7743C20.0524 38.7875 19.6363 38.6451 19.313 38.3754C19.1428 38.2081 19.0103 38.0085 18.9238 37.7892C18.8374 37.5698 18.7987 37.3355 18.8104 37.1011V33.4816C18.7987 33.2471 18.8374 33.0128 18.9238 32.7935C19.0103 32.5742 19.1428 32.3745 19.313 32.2072C19.6363 31.9376 20.0524 31.7953 20.479 31.8085C20.9061 31.7919 21.3235 31.9346 21.6449 32.2072C21.8762 32.4212 22.1475 32.8006 22.1475 33.4816V34.0849H21.0417Z" fill="#FFFF09"/>
<path d="M25.4934 38.7733C25.0663 38.7898 24.649 38.647 24.3275 38.3744C24.0964 38.1604 23.825 37.7809 23.825 37.1V31.8853H24.9306V37.1C24.9306 37.2556 24.9507 37.4794 25.0713 37.5863C25.1936 37.6716 25.3429 37.713 25.4934 37.7031C25.6407 37.7116 25.7863 37.6703 25.9056 37.5863C26.0164 37.4479 26.0702 37.2746 26.0565 37.1V31.8853H27.1619V37.1C27.1736 37.3345 27.135 37.5688 27.0485 37.7881C26.962 38.0074 26.8295 38.207 26.6593 38.3744C26.3361 38.644 25.92 38.7864 25.4934 38.7733Z" fill="#FFFF09"/>
<path d="M31.4235 32.9564H30.0263V34.6687H31.5842L31.0815 35.7385H30.0261V37.6261H31.9359L31.4233 38.6962H28.9207V31.8861H31.9361L31.4235 32.9564Z" fill="#FFFF09"/>
<path d="M14.5566 8.67165C14.5568 9.08292 14.7257 9.4773 15.0262 9.76807C15.3267 10.0588 15.7342 10.2222 16.1591 10.2222H20.0656V8.67165H16.388V7.56015H19.8243V6.18404H16.388V5.11021H20.0656V3.5592H16.158C15.7333 3.5592 15.326 3.7225 15.0257 4.01317C14.7254 4.30383 14.5566 4.69806 14.5566 5.10913V8.67165Z" fill="white"/>
<path d="M26.2095 8.20219C26.2092 7.66687 25.9894 7.15355 25.5982 6.7751C25.2071 6.39665 24.6766 6.18404 24.1236 6.18404H22.4661V5.11021H25.8783V3.5592H22.7018C22.1536 3.5592 21.6278 3.76999 21.2402 4.1452C20.8525 4.5204 20.6348 5.02929 20.6348 5.55991C20.6349 6.09045 20.8527 6.59921 21.2404 6.97432C21.628 7.34942 22.1537 7.56015 22.7018 7.56015H24.3781V8.67165H20.9659V10.2222H24.1239C24.3979 10.2221 24.6692 10.1699 24.9223 10.0683C25.1754 9.96677 25.4053 9.81796 25.599 9.63037C25.7927 9.44279 25.9463 9.22011 26.051 8.97506C26.1558 8.73001 26.2096 8.46738 26.2095 8.20219Z" fill="white"/>
<path d="M28.4662 10.2222H31.9361V8.67165H28.6957V3.5592H26.8643V8.67165C26.8644 9.08284 27.0332 9.47715 27.3336 9.76791C27.634 10.0587 28.0414 10.2221 28.4662 10.2222Z" fill="white"/>
<path d="M9.20455 10.9213C11.4956 10.5618 13.0519 8.47271 12.6805 6.25517C12.309 4.03762 10.1507 2.53137 7.85957 2.89085C5.56848 3.25033 4.01226 5.33942 4.38367 7.55696C4.75507 9.77451 6.91345 11.2808 9.20455 10.9213Z" fill="white"/>
<path d="M8.69292 3.57077L5.49487 8.48638C5.60031 8.67621 5.72455 8.85566 5.86586 9.02222L10.7206 4.32381C10.1467 3.86702 9.43519 3.60278 8.69292 3.57077Z" fill="black"/>
<path d="M11.2119 4.80206L6.36035 9.49769C6.53406 9.63409 6.72101 9.75388 6.91859 9.85538L11.9795 6.77035C11.9507 6.05109 11.6813 5.36035 11.2119 4.80206Z" fill="black"/>
<path d="M11.9047 7.61295L7.73657 10.1537C8.18281 10.2557 8.64558 10.2707 9.09788 10.1978C9.55018 10.125 9.98296 9.9656 10.371 9.7291C10.7589 9.49259 11.0944 9.18366 11.3577 8.82034C11.621 8.45701 11.807 8.04656 11.9047 7.61295Z" fill="black"/>
</g>
<defs>
<clipPath id="clip0_7_850">
<rect width="35.089" height="40.755" fill="white" transform="translate(0.809814 0.428009)"/>
</clipPath>
</defs>
</svg>
