<svg width="114" height="16" viewBox="0 0 114 16" fill="none" xmlns="http://www.w3.org/2000/svg">
<path fill-rule="evenodd" clip-rule="evenodd" d="M112.124 4.78158C111.475 4.78158 110.954 5.30454 110.954 5.95207C110.954 6.59961 111.475 7.12257 112.124 7.12257C112.772 7.12257 113.295 6.59961 113.295 5.95207C113.295 5.30454 112.772 4.78158 112.124 4.78158ZM112.126 7.01966C111.529 7.01966 111.072 6.54364 111.072 5.95268C111.072 5.34847 111.522 4.88569 112.126 4.88569C112.728 4.88569 113.174 5.35208 113.174 5.94967C113.175 6.54063 112.725 7.01966 112.126 7.01966ZM50.3304 11.5849L50.1643 0.882538C50.8917 0.919922 51.5882 1.18832 52.1526 1.64871C52.717 2.10911 53.1199 2.73752 53.3027 3.44258C54.1457 3.30841 55.0086 3.49242 55.7236 3.95885C56.4386 4.42529 56.9547 5.14085 57.1716 5.96652C52.554 5.51758 50.547 9.82705 50.6909 11.5843H51.4714C51.9486 6.86741 55.6118 6.16451 57.2336 6.25237C57.2667 6.44314 57.2836 6.63993 57.2836 6.84032C57.2836 8.12396 56.6107 9.24391 55.5684 9.83547C55.9056 10.3787 56.0837 11.0057 56.0824 11.6451C56.0824 12.7704 55.542 13.7694 54.7067 14.3971C54.5153 11.8575 53.3273 11.2515 52.6726 10.9241L51.8921 11.5554C53.5301 11.8726 54.1807 13.5738 54.3709 14.6204C53.8463 14.9255 53.25 15.0859 52.6431 15.0849C52.1375 15.0855 51.638 14.9743 51.1804 14.7594C50.7227 14.5445 50.3182 14.2311 49.9958 13.8416H50.006C49.6836 14.2311 49.2791 14.5446 48.8215 14.7595C48.3638 14.9745 47.8643 15.0856 47.3587 15.0849C46.7518 15.0859 46.1556 14.9255 45.631 14.6204C45.8205 13.5744 46.4711 11.8732 48.1098 11.5554L47.3292 10.9241C46.6745 11.2521 45.4865 11.8581 45.2952 14.3971C44.8677 14.0769 44.5208 13.6614 44.282 13.1837C44.0431 12.706 43.919 12.1792 43.9194 11.6451C43.9181 11.0057 44.0962 10.3787 44.4334 9.83547C43.3911 9.24451 42.7183 8.12396 42.7183 6.84032C42.7183 6.63993 42.7351 6.44374 42.7682 6.25237C44.39 6.16451 48.0532 6.86741 48.5304 11.5843H49.3109C49.4554 9.82644 47.4484 5.51758 42.8302 5.96652C43.0472 5.1408 43.5635 4.42523 44.2786 3.9588C44.9937 3.49237 45.8566 3.30839 46.6997 3.44258C46.8823 2.73738 47.285 2.10882 47.8495 1.64838C48.414 1.18794 49.1106 0.919644 49.8381 0.882538L49.672 11.5849H50.3304Z" fill="black"/>
<path fill-rule="evenodd" clip-rule="evenodd" d="M112.311 6.00864C112.508 5.97734 112.668 5.86782 112.668 5.64274C112.668 5.39179 112.53 5.2606 112.218 5.2606H111.699V6.64413H111.817V6.00563H112.177L112.593 6.64413H112.725L112.311 6.00864ZM112.111 5.90272H111.817V5.36411H112.199C112.365 5.36411 112.55 5.4267 112.55 5.63974C112.55 5.88046 112.32 5.90272 112.111 5.90272ZM25.6404 14.6131C24.7907 14.4314 24.7311 13.755 24.7311 12.6681L24.5957 6.94263C24.5957 5.95989 24.9249 5.25639 25.4015 5.00364C25.5056 4.94406 25.5953 4.91397 25.5953 4.83995C25.5808 4.78037 25.4015 4.76532 25.357 4.76532L24.2045 4.77796C23.9945 4.80745 23.8441 4.80745 23.6948 5.13302L20.0178 12.9756L16.247 5.13302C16.0971 4.80745 15.9473 4.80745 15.7373 4.77796L14.2243 4.78037C14.1798 4.78037 14.0011 4.78037 13.986 4.83995C13.986 4.91457 14.0751 4.94406 14.1792 5.00364C14.6558 5.25639 15.5555 5.89971 15.5555 6.88305L15.3756 12.6079C15.3756 13.6954 15.1812 14.3869 14.5415 14.5692C14.4181 14.6047 14.3182 14.6727 14.3182 14.7172C14.3182 14.7624 14.3327 14.837 14.4518 14.837L15.6133 14.8376L16.6267 14.837C16.85 14.837 16.9096 14.822 16.9096 14.7774C16.9096 14.7172 16.8662 14.6456 16.7308 14.5836C16.336 14.4019 15.8516 14.559 15.8516 13.04L16.0315 7.26338H16.0616L19.4233 14.5096C19.5346 14.7022 19.9071 14.7377 20.0058 14.5096L23.4878 7.08345H23.5173L23.6527 12.9799C23.6479 14.1919 23.2429 14.5072 22.8487 14.6137C22.8246 14.6204 22.6399 14.6547 22.6399 14.7624C22.6399 14.8069 22.6994 14.852 22.9233 14.852C23.072 14.852 24.0312 14.8376 24.5668 14.8376L25.7289 14.837C25.848 14.837 25.8324 14.7925 25.8324 14.7479C25.8324 14.7034 25.7656 14.6402 25.6404 14.6131ZM36.1334 4.79542C35.8204 4.79542 35.4184 4.85499 35.1055 4.85499C34.8076 4.85499 34.1673 4.79542 33.944 4.79542C33.7803 4.79542 33.6907 4.85499 33.6907 4.92962C33.6907 5.00424 33.8195 5.05539 34.0331 5.10775C34.3364 5.18297 34.8672 5.23593 34.8672 6.50211V12.9179L27.7305 5.10835C27.5957 4.9585 27.4741 4.79241 27.1985 4.77977C26.841 4.77977 26.2753 4.79481 26.1261 4.79481C25.9624 4.79481 25.9329 4.83934 25.9329 4.89892C25.9329 4.92901 25.9889 4.98498 26.0671 5.00304C26.829 5.18237 27.7118 6.52799 27.7269 7.31755V12.561C27.7269 13.8868 27.716 14.1371 27.169 14.4561C26.9036 14.6113 26.7008 14.6715 26.7008 14.7612C26.7008 14.8057 26.7152 14.8358 26.8193 14.8358C26.9981 14.8358 27.6522 14.7913 27.9646 14.7913C28.5008 14.7913 28.9774 14.8358 29.1561 14.8358C29.2307 14.8358 29.2753 14.8214 29.2753 14.7762C29.2753 14.7016 29.1712 14.7016 28.9623 14.5674C28.635 14.3736 28.2029 14.3923 28.2029 12.8733V7.39758C30.5264 9.6459 32.9968 12.6543 34.8136 14.7395C34.9653 14.896 35.0465 14.9213 35.1934 14.8936C35.2975 14.8936 35.3426 14.2683 35.3426 13.4781V6.50211C35.3257 5.13784 35.9715 5.12279 36.1466 5.04817C36.3121 4.97776 36.3849 4.9591 36.3849 4.91397C36.3849 4.86883 36.3416 4.79542 36.1334 4.79542ZM40.0553 14.6733C39.5082 14.3863 39.1448 13.9036 39.1448 12.5484V6.29931C39.1448 5.71857 39.4294 5.13784 39.9355 4.98859C40.0101 4.97355 40.0396 4.92901 40.0396 4.86944C40.0396 4.79481 39.8458 4.79481 39.7869 4.79481C39.4444 4.79481 38.9064 4.85439 38.564 4.85439C38.0134 4.85439 37.5355 4.79481 37.3568 4.79481C37.163 4.79481 37.1185 4.79481 37.1185 4.88388C37.1185 4.94406 37.163 4.9585 37.2226 4.98799C37.7444 5.18177 37.9989 5.82208 37.9989 6.2987V12.697C37.9989 13.6503 37.7293 14.225 37.074 14.642C36.9699 14.716 37.0306 14.7612 37.0306 14.7907C37.0306 14.8352 36.9253 14.8508 37.0445 14.8508C37.1781 14.8508 37.7305 14.8063 38.5646 14.8063C39.2796 14.8063 39.9217 14.8508 40.0559 14.8508C40.1449 14.8508 40.2196 14.8358 40.2196 14.8063C40.219 14.7624 40.1684 14.7317 40.0553 14.6733ZM7.29344 2.42133C3.86139 2.42133 0.705566 4.84175 0.705566 8.71191C0.705566 12.6561 3.68085 14.9562 7.1129 14.9562C10.5449 14.9562 13.9409 12.6561 13.9409 8.71191C13.9415 4.84235 10.7255 2.42133 7.29344 2.42133ZM9.088 14.1582C6.24511 15.1915 3.67062 13.5263 2.58377 10.5414C1.41027 7.31634 2.75769 4.37235 5.15405 3.3505C7.80677 2.21912 10.7514 3.74167 11.9255 6.9673C13.0117 9.95222 12.3479 12.9738 9.088 14.1582ZM71.1146 2.7144C70.895 2.7144 70.1024 2.78722 69.4278 2.78722C69.0071 2.78722 68.3596 2.7144 67.9383 2.7144C67.8655 2.7144 67.6278 2.7144 67.6278 2.80527C67.6278 2.87869 67.6651 2.93345 67.756 2.95151C68.3764 3.13385 68.7772 3.23014 68.7772 3.94207V8.24191H62.0503V3.92762C62.0503 3.2157 62.465 3.13445 63.086 2.95151C63.1775 2.93345 63.2142 2.87809 63.2142 2.80527C63.2142 2.7144 62.9765 2.7144 62.9037 2.7144C62.483 2.7144 61.8355 2.78722 61.4155 2.78722C60.7396 2.78722 59.9477 2.7144 59.7286 2.7144C59.4909 2.7144 59.4361 2.7144 59.4361 2.82393C59.4361 2.89674 59.4915 2.9148 59.5643 2.95151C60.2028 3.18922 60.7655 3.34328 60.7655 3.92762V13.0268C60.7517 13.9915 60.4508 14.3369 59.7725 14.571C59.6233 14.6222 59.5162 14.7166 59.5162 14.7534C59.5162 14.8087 59.589 14.8268 59.7358 14.8268C59.8989 14.8268 60.393 14.7714 61.4155 14.7714C62.2911 14.7714 62.8574 14.8268 63.021 14.8268C63.1318 14.8268 63.222 14.8087 63.222 14.7714C63.222 14.7166 63.1607 14.6769 63.021 14.6077C62.5071 14.3514 62.057 14.4115 62.0503 13.0268V8.69927H68.7772V12.9817C68.7688 14.367 68.3343 14.3514 67.8204 14.6077C67.6808 14.6769 67.6194 14.7172 67.6194 14.7714C67.6194 14.8087 67.7109 14.8268 67.8204 14.8268C67.9835 14.8268 68.5504 14.7714 69.4272 14.7714C70.4484 14.7714 70.9425 14.8268 71.1068 14.8268C71.2524 14.8268 71.3252 14.8087 71.3252 14.7534C71.3252 14.7166 71.2067 14.6474 71.0701 14.571C70.4057 14.2015 70.0747 13.9457 70.0615 12.9811V3.94207C70.0615 3.35772 70.6386 3.18862 71.2771 2.95151C71.3499 2.9148 71.4053 2.89674 71.4053 2.82393C71.4059 2.7144 71.3511 2.7144 71.1146 2.7144ZM89.8221 6.67302L89.6012 4.77977H82.1961L81.974 6.67302C81.9644 6.81926 82.1317 6.9017 82.228 6.76269C82.6559 5.94846 82.6607 5.55729 83.7782 5.55729L85.3014 5.55247V12.6711C85.3014 14.2196 85.0631 14.4946 84.4667 14.6432C84.2585 14.6878 84.0954 14.6878 84.0954 14.7624C84.0954 14.8069 84.1092 14.8514 84.2296 14.8514C84.3776 14.8514 84.7796 14.8069 85.9561 14.8069C86.9997 14.8069 87.3571 14.8514 87.4606 14.8514C87.5653 14.8514 87.6249 14.8364 87.6249 14.7913C87.6249 14.7618 87.6694 14.7311 87.4769 14.6878C86.9395 14.5656 86.4839 14.2057 86.4779 12.6976V5.55247L88.0191 5.55729C89.1366 5.55729 89.1414 5.94846 89.5693 6.76269C89.6656 6.9017 89.8329 6.81926 89.8221 6.67302ZM97.2338 13.022C97.1893 13.022 97.146 13.0521 97.0996 13.0966C95.9652 14.3267 92.257 14.5662 91.9657 13.7802V10.1027H94.3855C95.2003 10.1081 95.3002 10.424 95.615 11.2052C95.6457 11.2497 95.7347 11.2792 95.7654 11.2792C95.8244 11.2792 95.8244 11.1305 95.8244 11.0409V8.5061C95.8244 8.35745 95.8244 8.26778 95.7504 8.26778C95.7058 8.26778 95.6752 8.29787 95.6457 8.34241C95.4459 8.75403 95.3351 9.38653 94.3855 9.38412H91.9657V5.45197H94.6762C96.2204 5.51275 96.0254 6.63872 95.9959 6.80421C95.9652 6.9691 96.2204 7.01484 96.2511 6.8343L96.5532 4.77917H90.327C90.1928 4.77917 90.0141 4.77917 90.0141 4.86823C90.0141 4.91337 90.0586 4.92781 90.1176 4.9579C90.655 5.2257 90.7886 5.73241 90.7886 6.2981V13.1929C90.7886 13.8928 90.6393 14.4194 89.94 14.6125C89.7463 14.6571 89.671 14.7317 89.671 14.7913C89.671 14.8364 89.7312 14.8364 89.8805 14.8364H96.2625L97.2783 13.2741C97.309 13.1995 97.309 13.1399 97.309 13.0954C97.309 13.0509 97.2789 13.022 97.2338 13.022ZM104.21 13.306C101.454 14.7016 100.103 14.2364 99.8853 13.9602L99.8889 6.29931C99.8889 5.71857 100.159 5.13784 100.666 4.98859C100.74 4.97355 100.769 4.92901 100.769 4.86944C100.769 4.79481 100.577 4.79481 100.517 4.79481C100.175 4.79481 99.6362 4.85439 99.2944 4.85439C98.7431 4.85439 98.2647 4.79481 98.086 4.79481C97.8934 4.79481 97.8483 4.79481 97.8483 4.88388C97.8483 4.94345 97.8928 4.9585 97.9518 4.98799C98.4735 5.18177 98.698 5.82208 98.698 6.2987L98.71 12.9522C98.71 13.6521 98.6053 14.4194 97.9048 14.6125C97.711 14.6571 97.637 14.7317 97.637 14.7913C97.637 14.8364 97.6972 14.8364 97.8452 14.8364H103.507L104.389 13.4842C104.501 13.3042 104.352 13.1851 104.21 13.306ZM108.694 9.04109C107.632 8.65233 105.46 8.14081 105.511 6.90953C105.572 5.46822 106.683 5.10775 107.794 5.13784C108.904 5.16793 110.165 6.60923 110.376 7.20983C110.466 7.40481 110.602 7.35967 110.615 7.20983C110.615 6.3986 110.466 5.63312 110.376 5.25759C110.346 5.04757 110.165 5.03252 110.09 5.0927C110.016 5.15288 109.715 5.12279 109.52 4.97234C109.325 4.82189 108.379 4.56673 107.809 4.56673C107.237 4.56673 104.67 5.19741 104.611 7.02928C104.543 9.10007 105.722 9.49184 106.592 9.85171C107.463 10.2116 110.286 10.7225 110.286 12.4039C110.286 14.296 108.815 14.4759 107.914 14.4759C107.014 14.4759 105.631 14.3556 104.821 12.1933C104.671 11.7131 104.371 11.9231 104.46 12.2836C104.58 12.7036 104.881 14.1148 105.181 14.5957C105.752 14.9562 106.652 15.1662 108.004 15.1066C109.354 15.0458 111.096 13.9355 111.096 12.0435C111.096 10.1514 109.595 9.37148 108.694 9.04109Z" fill="black"/>
<path fill-rule="evenodd" clip-rule="evenodd" d="M76.9527 4.57095C74.0695 4.57095 71.418 6.60442 71.418 9.85654C71.418 13.17 73.9178 15.1024 76.8023 15.1024C79.6855 15.1024 82.538 13.17 82.538 9.85654C82.538 6.60503 79.8371 4.57095 76.9527 4.57095ZM78.4608 14.432C76.0723 15.2998 73.91 13.9012 72.9965 11.3929C72.0101 8.68303 73.1421 6.20965 75.1557 5.35088C77.3842 4.40004 79.8582 5.67946 80.8445 8.38936C81.758 10.8982 81.1996 13.4366 78.4608 14.432Z" fill="black"/>
</svg>
