<svg width="51" height="33" viewBox="0 0 51 33" fill="none" xmlns="http://www.w3.org/2000/svg">
<path fill-rule="evenodd" clip-rule="evenodd" d="M30.1426 11.846C30.1426 12.4488 29.9819 13.1488 29.5127 13.7668H30.8362V4.10153H26.6028V8.05123C28.8912 8.72216 30.1426 10.1089 30.1426 11.846Z" fill="#2F489A"/>
<path fill-rule="evenodd" clip-rule="evenodd" d="M22.8249 7.70564C23.7807 7.70564 24.6695 7.91664 25.3496 8.08825C23.9077 7.84851 21.6745 8.19375 20.5226 9.05527V13.7667H24.756V8.40503C25.4787 8.5281 26.1699 8.79264 26.7901 9.18347V13.767H27.7091C26.8433 14.6915 25.2246 15.2546 23.8267 15.0474V15.2408C27.854 15.5412 29.5592 13.7368 29.5592 11.7062C29.5592 9.31513 27.1848 7.9152 24.7563 7.63148V4.10148H20.5223V7.67029C17.7794 8.19059 15.0968 9.73223 15.0968 12.282C15.0968 16.2073 20.8986 18.638 25.9547 18.638C33.6296 18.638 39.5372 15.1322 39.5372 10.2106C39.5372 4.25067 31.006 0 24.3076 0C16.6333 0 10.9818 4.60884 10.9818 9.53245C10.9818 12.0808 12.4959 14.2175 14.4063 15.7054L14.5501 15.6157C13.038 14.4285 11.6746 12.5778 11.6746 10.0346C12.0733 4.64621 19.0991 1.61236 25.3514 1.61236C29.7722 1.61236 37.719 2.5765 37.719 9.56321C37.719 13.2096 33.5986 17.9516 24.9409 17.9516C20.5088 17.9516 17.0668 15.7056 17.0668 12.4818C17.0668 9.69113 19.3791 7.70564 22.8249 7.70564ZM6.42587 32.6603V32.1098H7.90974V27.3535H3.94538V32.1098H5.46748V32.6603H0V32.1098H1.39073V22.417H0V21.8659H5.46748V22.417H3.94538V26.7142H7.90974V22.417H6.42587V21.8659H11.837V22.417H10.4477V32.1098H11.837V32.6603H6.42587ZM13.9349 21.8659H16.4131V23.146H13.9349V21.8659ZM12.7135 32.6603V32.1101H14.0473V25.4686H12.7135V24.9216H16.5094V32.1101H17.7489V32.6603H12.7135ZM18.2836 32.6603V32.1098H19.6548V20.9955H18.2836V20.4464H22.1353V32.1098H23.4317V32.6603H18.2836ZM27.2923 32.6603C25.9381 32.6603 25.2068 32.0052 25.2068 30.9916V25.4686H23.8732V24.9216H25.2068V21.8478C25.9579 21.8478 26.7473 21.8659 27.5182 21.8478V24.9216H29.4339V25.4686H27.5182V32.1101H29.4715V32.6603H27.2923ZM38.77 30.3356C38.4891 31.0612 37.3238 32.8552 34.4868 32.8552C31.3308 32.8552 29.7144 30.8131 29.7144 28.7368C29.7144 25.8604 32.4194 24.6712 34.4311 24.6712C36.2153 24.6712 38.8082 25.6819 39.014 28.6123C39.0517 29.1815 38.9933 29.8024 38.77 30.3356ZM36.084 26.1611C35.7646 25.4888 35.1799 25.1832 34.4115 25.1832C32.4763 25.1832 32.4393 27.0689 32.4393 28.702C32.4393 30.9008 32.6454 31.2946 32.794 31.5599C33.0403 32.0049 33.5661 32.4119 34.4311 32.4119C36.3657 32.4119 36.3657 30.4397 36.3473 28.6304C36.3266 26.6579 36.1975 26.4095 36.084 26.1611ZM45.636 32.6603V32.1101H46.7246V27.5464C46.7246 26.5176 46.7246 25.506 45.5218 25.506C44.8463 25.506 43.7376 26.1453 43.4748 27.1908C43.3817 27.5099 43.3995 27.8479 43.3995 28.702V32.1098H44.639V32.66H39.6045V32.1098H40.938V25.4686H39.6045V24.9216H43.3992V26.0907C43.812 25.5937 44.1527 25.2384 44.959 24.9374C45.4306 24.749 45.9338 24.6521 46.4417 24.652C46.5932 24.652 47.0442 24.652 47.5697 24.7963C49.1496 25.2384 49.2232 26.375 49.2232 27.1908V32.1098H50.5202V32.66L45.636 32.6603ZM37.3821 16.8578H36.9817V16.7161H37.9749V16.8578H37.5718V18.2278H37.3821V16.8578ZM39.104 17.9516H39.1118L39.6048 16.7161H39.8586V18.2278H39.6666V17.0915H39.6571L39.1882 18.2278H39.0126L38.5291 17.0915H38.5213V18.2278H38.3287V16.7161H38.5978L39.104 17.9516Z" fill="#2F489A"/>
</svg>
