<svg width="125" height="29" viewBox="0 0 125 29" fill="none" xmlns="http://www.w3.org/2000/svg">
<path fill-rule="evenodd" clip-rule="evenodd" d="M32.5327 0.0839844H36.4184V23.0348H32.5327V0.0839844Z" fill="#004990"/>
<path fill-rule="evenodd" clip-rule="evenodd" d="M17.4093 8.38644C17.4093 7.8553 17.0459 7.5478 16.5986 7.5478C16.1793 7.5478 15.7879 7.82734 15.7879 8.38644V19.4565C15.7879 20.0156 16.1793 20.2951 16.5986 20.2951C17.0179 20.2951 17.4093 19.9876 17.4093 19.4565V15.8224H21.295V19.149C21.295 21.8606 19.1704 23.2583 16.5986 23.2583C14.1386 23.2583 11.9302 21.8886 11.9302 19.149V8.66598C11.9302 5.92642 14.1386 4.55664 16.5986 4.55664C19.1145 4.55664 21.295 5.98233 21.295 8.66598V11.6571H17.4093V8.38644Z" fill="#004990"/>
<path fill-rule="evenodd" clip-rule="evenodd" d="M26.1029 8.86176C26.1029 8.30267 26.4942 8.02312 26.9136 8.02312C27.3329 8.02312 27.7242 8.33063 27.7242 8.86176V23.0348H31.6099V7.8554C31.6099 5.36743 30.0165 4.52878 28.7865 4.52878C27.4167 4.52878 26.4663 5.5072 26.1867 6.01038H26.1308V0.0839844H22.2451V23.0348H26.1308V8.86176H26.1029Z" fill="#004990"/>
<path fill-rule="evenodd" clip-rule="evenodd" d="M42.8474 19.0932C42.8474 19.6244 42.484 19.9319 42.0367 19.9319C41.6174 19.9319 41.226 19.6523 41.226 19.0932V4.75244H37.3403V19.9878C37.3403 22.0005 38.7381 23.2585 40.2197 23.2585C41.7292 23.2585 42.5679 22.1682 42.7915 21.7489H42.8754L42.9313 23.0348H46.6772V4.75244H42.8474V19.0932Z" fill="#004990"/>
<path fill-rule="evenodd" clip-rule="evenodd" d="M51.5698 23.0347H47.6841V4.75232H51.5139L51.5418 6.03824H51.6257C51.9052 5.47915 52.8277 4.55664 54.2255 4.55664C55.6791 4.55664 56.6016 5.67483 56.7973 6.31779H56.8532C57.1328 5.64688 58.1671 4.55664 59.6207 4.55664C61.1023 4.55664 62.528 5.56301 62.528 8.05098V23.0627H58.6423V8.72189C58.6423 8.1628 58.251 7.88325 57.8316 7.88325C57.4123 7.88325 57.021 8.19075 57.021 8.72189V23.0627H53.1353V8.72189C53.1353 8.1628 52.7439 7.88325 52.3246 7.88325C51.9052 7.88325 51.5418 8.19075 51.5418 8.72189V23.0347H51.5698Z" fill="#004990"/>
<path fill-rule="evenodd" clip-rule="evenodd" d="M69.9361 4.52878C68.6501 4.52878 67.6997 5.61902 67.4481 6.03834H67.3642V0.0839844H63.4785V23.0348H67.3083L67.3642 21.7489H67.4481C67.6438 22.2521 68.4824 23.2305 69.9081 23.2305C71.5574 23.2305 72.8993 21.8048 72.8993 19.6802V7.82744C72.8993 5.8147 71.5015 4.52878 69.9361 4.52878ZM69.0136 19.1212C69.0136 19.6523 68.6501 19.9598 68.2029 19.9598C67.7835 19.9598 67.3922 19.6802 67.3922 19.1212V8.72199C67.3922 8.1629 67.7835 7.88335 68.2029 7.88335C68.6222 7.88335 69.0136 8.19085 69.0136 8.72199V19.1212Z" fill="#004990"/>
<path fill-rule="evenodd" clip-rule="evenodd" d="M77.7074 19.4288C77.7074 19.9879 78.0987 20.2674 78.5181 20.2674C78.9374 20.2674 79.3287 19.9599 79.3287 19.4288V15.7947H83.2144V19.1213C83.2144 21.8888 80.9501 23.2586 78.5181 23.2586C76.058 23.2586 73.8496 21.8888 73.8496 19.1213V8.63828C73.8496 5.89871 76.058 4.50098 78.5181 4.50098C81.034 4.50098 83.2144 5.89871 83.2144 8.63828V14.5367H77.7353V19.4288H77.7074ZM79.3287 11.7972V8.38668C79.3287 7.85554 78.9653 7.54804 78.5181 7.54804C78.0987 7.54804 77.7074 7.82759 77.7074 8.38668V11.7972H79.3287Z" fill="#004990"/>
<path fill-rule="evenodd" clip-rule="evenodd" d="M88.8614 7.8553C88.4421 7.8553 88.0508 8.13485 88.0508 8.69394V23.0347H84.165V4.75232H87.9669L88.0508 6.03824H88.1346C88.498 5.53506 89.4485 4.55664 90.7344 4.55664C92.244 4.55664 93.5578 5.78665 93.5578 7.71552V14.5924H89.6721V8.61007C89.6442 8.13485 89.2248 7.8553 88.8614 7.8553Z" fill="#004990"/>
<path fill-rule="evenodd" clip-rule="evenodd" d="M108.681 19.4288C108.681 19.9879 109.073 20.2674 109.492 20.2674C109.911 20.2674 110.303 19.9599 110.303 19.4288V15.7947H114.189V19.1213C114.189 21.8888 111.924 23.2586 109.492 23.2586C107.032 23.2586 104.824 21.8888 104.824 19.1213V8.63828C104.824 5.89871 107.032 4.50098 109.492 4.50098C112.008 4.50098 114.189 5.89871 114.189 8.63828V14.5367H108.709V19.4288H108.681ZM110.275 11.7972V8.38668C110.275 7.85554 109.911 7.54804 109.464 7.54804C109.045 7.54804 108.654 7.82759 108.654 8.38668V11.7972H110.275Z" fill="#004990"/>
<path fill-rule="evenodd" clip-rule="evenodd" d="M119.779 7.8553C119.36 7.8553 118.968 8.13485 118.968 8.69394V23.0347H115.083V4.75232H118.884L118.968 6.03824H119.052C119.416 5.53506 120.366 4.55664 121.652 4.55664C123.161 4.55664 124.475 5.78665 124.475 7.71552V14.5924H120.59V8.61007C120.59 8.13485 120.17 7.8553 119.779 7.8553Z" fill="#004990"/>
<path fill-rule="evenodd" clip-rule="evenodd" d="M99.9597 17.975C99.9597 18.5062 99.5963 18.8137 99.149 18.8137C98.7297 18.8137 98.3383 18.5341 98.3383 17.975V8.72202C98.3383 8.16292 98.7297 7.88338 99.149 7.88338C99.5683 7.88338 99.9597 8.19088 99.9597 8.72202V17.975ZM99.9597 24.3767C99.9597 24.9078 99.5963 25.2153 99.149 25.2153C98.7297 25.2153 98.3383 24.9358 98.3383 24.3767V22.8951H94.4526V23.9014C94.4526 26.7528 96.4374 28.0387 99.1211 28.0387C101.805 28.0387 103.817 26.7528 103.817 23.9014V4.75245H99.9877L99.9318 6.03837H99.8759C99.6802 5.61905 98.7577 4.52881 97.332 4.52881C95.9342 4.52881 94.5085 5.59109 94.5085 7.60383V18.5341C94.5085 20.6307 95.8504 21.8607 97.3599 21.8607C98.7856 21.8607 99.6243 20.9103 99.8759 20.5189H99.9877V24.3767H99.9597Z" fill="#004990"/>
<path fill-rule="evenodd" clip-rule="evenodd" d="M4.94126 19.149C4.94126 19.7081 5.33263 19.9876 5.75195 19.9876C6.17127 19.9876 6.56263 19.6801 6.56263 19.149V16.9685C6.56263 15.2353 6.19922 14.6203 4.91331 13.3903C3.82307 12.356 3.26398 11.8249 2.56511 11.1539C1.67056 10.2873 0.608278 9.11324 0.608278 6.87686V4.1373C0.608278 1.11819 3.1242 0 5.75195 0C8.37969 0 10.8956 1.14614 10.8956 4.10934V7.6596H6.53468V4.22116C6.53468 3.69002 6.17127 3.38252 5.72399 3.38252C5.30467 3.38252 4.91331 3.66207 4.91331 4.22116V5.87049C4.91331 7.29618 5.36058 7.93914 6.53468 9.05733C7.00991 9.50461 8.10014 10.5669 8.91083 11.3776C10.3924 12.8312 10.9236 14.1451 10.9236 15.9621V19.0372C10.9236 22.224 8.35174 23.3422 5.69604 23.3422C3.01238 23.3422 0.524414 22.224 0.524414 19.1769V14.7881H4.88535V19.149H4.94126Z" fill="#004990"/>
</svg>
