<svg width="37" height="37" viewBox="0 0 37 37" fill="none" xmlns="http://www.w3.org/2000/svg">
<path fill-rule="evenodd" clip-rule="evenodd" d="M36.4695 3.23431C36.4695 3.23431 30.2317 0.70105 18.6649 0.70105C7.09813 0.70105 0.860893 3.23431 0.860893 3.23431C-0.615151 21.466 8.40958 31.6344 18.6649 36.2288C28.9203 31.6344 37.9421 21.466 36.4695 3.23431Z" fill="#E81F3E"/>
<path fill-rule="evenodd" clip-rule="evenodd" d="M18.6652 1.11578C28.771 1.11578 34.8304 3.08415 36.069 3.52851C36.1603 4.73619 36.2078 5.92032 36.2078 7.07853C36.2078 13.8168 34.6658 19.7069 31.607 24.6286C28.626 29.425 24.1525 33.2726 18.6653 35.7694C13.1774 33.2724 8.70366 29.4248 5.72249 24.6286C2.66423 19.7083 1.12256 13.8203 1.12256 7.08498C1.12256 5.9248 1.17018 4.7383 1.26181 3.52851C2.50017 3.08429 8.55934 1.11578 18.6653 1.11578H18.6652Z" fill="white"/>
<path fill-rule="evenodd" clip-rule="evenodd" d="M26.1111 21.7565C26.1111 21.7565 25.7438 21.8105 25.5459 22.3385L24.4789 22.3206C24.4789 22.3206 24.0982 21.7959 23.3652 21.7909C23.3652 21.7909 22.6804 22.1631 22.7402 22.6945C22.7402 22.6945 22.9146 22.4009 23.3253 22.3976C23.5962 22.496 23.7176 22.7912 23.7176 22.7912C23.7176 22.7912 23.5681 23.4388 22.7635 23.6948C22.7635 23.6948 21.7929 23.1421 21.0483 23.1094C20.3036 23.075 19.2632 23.9915 18.2858 23.1782C17.3085 22.3633 17.4016 21.1074 17.812 20.2581C17.812 20.2581 15.4983 21.8534 17.4048 24.0358C17.4048 24.0358 14.2135 26.1346 12.8306 30.9134C14.5842 32.1956 16.5321 33.3466 18.6646 34.419C20.4514 33.5204 22.1085 32.5695 23.6293 31.5298C21.703 30.1919 20.5411 27.8143 22.1518 24.7064L22.5822 24.9048L24.6117 24.749L24.9309 24.2424L25.6739 24.1981C25.6739 24.1981 26.3685 23.4799 26.4618 22.9537C26.4618 22.9537 25.7587 22.4995 26.1111 21.7567V21.7565Z" fill="#2A4076"/>
<path fill-rule="evenodd" clip-rule="evenodd" d="M35.4663 4.09178C35.4663 4.09178 29.171 1.70773 18.6646 1.70773C8.15837 1.70773 1.86378 4.09178 1.86378 4.09178C1.76401 7.83022 1.98343 11.1227 2.50696 14.0447C7.17252 12.5033 8.28456 16.196 12.0742 16.3337L16.2944 16.3731C16.9974 15.6696 18.0097 15.3041 18.0097 15.3041L21.6215 15.3304C22.3729 15.7009 23.1341 16.2716 23.1341 16.2716C23.1341 16.2716 24.2776 16.2864 25.6224 16.1782C28.2369 15.9699 29.2706 13.2464 34.8113 14.1007C35.3432 11.164 35.5659 7.85351 35.4663 4.09204V4.09178Z" fill="#2A4076"/>
<path fill-rule="evenodd" clip-rule="evenodd" d="M4.34253 11.8092L5.50939 11.5863V8.45293L6.53339 8.2595V7.14945L5.50939 7.34617V5.92453L6.53339 5.71466V4.57343L4.34266 5.06858V11.8092H4.34253Z" fill="white"/>
<path fill-rule="evenodd" clip-rule="evenodd" d="M8.69826 4.17656C7.46165 4.37499 7.37695 4.575 7.36694 5.754V10.05C7.37695 11.1551 7.45831 11.278 8.69826 11.1567C9.95155 11.0058 10.131 10.8763 10.1411 9.77614V8.42503L8.97424 8.53161V9.8418C8.97424 10.0238 8.85779 10.0813 8.75642 10.0993C8.66158 10.1026 8.5354 10.0879 8.5354 9.87298V5.62294C8.5354 5.45241 8.63171 5.36885 8.73975 5.35569C8.86273 5.33766 8.97424 5.40977 8.97424 5.57702V6.41652L10.1411 6.29678V5.4278C10.131 4.19472 9.95489 4.01748 8.69826 4.17656Z" fill="white"/>
<path fill-rule="evenodd" clip-rule="evenodd" d="M14.9915 3.59763L13.3926 3.71237V10.7352L15.0282 10.6417C16.0453 10.5844 16.2082 10.4417 16.2249 9.46116V5.05703C16.2049 3.7125 16.0088 3.55841 14.9916 3.59776M15.0582 9.40221C15.0548 9.55958 15.0366 9.61695 14.8804 9.62682L14.5596 9.65472V4.9111L14.8804 4.88321C14.99 4.88163 15.0532 4.934 15.0582 5.18493V9.40221Z" fill="white"/>
<path fill-rule="evenodd" clip-rule="evenodd" d="M17.7205 3.51977L17.0208 10.5999L18.0994 10.5868L18.1892 9.35383L18.8275 9.34567L18.9272 10.5639L20.0059 10.5737L19.2996 3.49701L17.7205 3.51977ZM18.2474 8.27826L18.5133 5.49735L18.7693 8.27181L18.2474 8.27826Z" fill="white"/>
<path fill-rule="evenodd" clip-rule="evenodd" d="M22.0405 3.58458L20.8721 3.53537V10.5942L22.8482 10.6582V9.63825L22.0404 9.61364V3.58458H22.0405Z" fill="white"/>
<path fill-rule="evenodd" clip-rule="evenodd" d="M24.8746 9.75659V3.78818L23.7061 3.68976V10.7125L25.6592 10.8651L25.6575 9.8304L24.8748 9.75659H24.8746Z" fill="white"/>
<path fill-rule="evenodd" clip-rule="evenodd" d="M27.1315 4.04971L26.4316 10.9233L27.5105 11.0233L27.5985 9.76402L28.2301 9.81982L28.3182 11.1037L29.3969 11.2217L28.6905 4.24827L27.1315 4.04971ZM27.6583 8.68688L27.916 6.00756L28.1702 8.73109L27.6583 8.68688Z" fill="white"/>
<path fill-rule="evenodd" clip-rule="evenodd" d="M32.9866 6.96454V6.2857C32.9766 5.1625 32.7805 4.89525 31.5372 4.65419C30.288 4.4476 30.2167 4.60997 30.2051 5.79371V6.74309C30.2151 7.33337 30.3265 7.66457 30.7095 7.99906L31.5539 8.66646C31.7167 8.80751 31.8164 8.96647 31.8198 9.17963V10.2798C31.8198 10.4455 31.6835 10.4684 31.5838 10.4618C31.4874 10.4422 31.371 10.3602 31.371 10.206L31.3743 9.22214L30.2051 9.08279V10.083C30.2167 11.1881 30.3463 11.3537 31.5838 11.5407C32.8404 11.7013 32.9767 11.6424 32.9867 10.511V9.10568C32.9767 8.65159 32.8337 8.27433 32.4748 7.96616L31.5872 7.25956C31.441 7.12837 31.3778 7.01349 31.3745 6.77572V5.98214C31.3745 5.81647 31.4874 5.77555 31.5839 5.78542C31.6837 5.80831 31.82 5.94279 31.82 6.11819V6.79533L32.9868 6.96415L32.9866 6.96454Z" fill="white"/>
<path fill-rule="evenodd" clip-rule="evenodd" d="M20.7473 28.67H18.9074L18.8126 27.1057L17.7106 28.67H15.8789L17.084 29.7095L16.1433 31.3296L17.9002 30.3261L19.0936 31.3133L18.9756 29.6965L20.7475 28.67H20.7473Z" fill="white"/>
<path fill-rule="evenodd" clip-rule="evenodd" d="M26.7373 18.3097L24.8391 18.7295C24.51 18.9526 23.9432 19.4329 24.2624 19.8298L26.1106 21.7564C25.7582 22.4991 26.4613 22.9534 26.4613 22.9534C26.3682 23.4798 25.6734 24.1978 25.6734 24.1978L24.9304 24.2422L24.6112 24.7488L22.5818 24.9046L22.1513 24.7062C20.5406 27.8142 21.7026 30.1916 23.6289 31.5296C29.4862 27.5255 33.3349 22.2597 34.8108 14.1006C29.4048 14.399 29.3599 17.6915 26.737 18.3096L26.7373 18.3097Z" fill="#E81F3E"/>
<path fill-rule="evenodd" clip-rule="evenodd" d="M11.3416 18.8031C6.94519 18.2555 6.74912 14.112 2.50732 14.0448C3.27189 18.3128 4.68471 21.7906 6.69256 24.711C9.05442 21.871 11.5891 19.9936 13.1267 19.0017C12.4818 18.936 11.8567 18.8688 11.3416 18.8031Z" fill="#E81F3E"/>
<path fill-rule="evenodd" clip-rule="evenodd" d="M22.7283 16.8465C22.3394 16.2578 21.3886 16.1758 21.5483 15.7233C21.1128 15.9398 21.1726 16.3218 21.4453 16.5628C21.7827 16.8628 21.1893 17.1089 21.0681 16.758C20.9184 16.9285 20.9184 17.2089 21.2457 17.486C21.5715 17.7649 22.2863 17.7697 22.5605 18.5469C22.5189 18.0107 23.2221 17.5959 22.7283 16.8465Z" fill="#E81F3E"/>
<path fill-rule="evenodd" clip-rule="evenodd" d="M26.3937 17.1288C25.3898 17.2255 24.0235 17.2912 24.0235 17.2912C24.263 17.5732 24.3527 17.8946 24.3527 17.8946C24.3527 17.8946 23.2639 18.7374 24.263 19.8294C23.9438 19.4326 24.5105 18.9523 24.8396 18.7291L26.7378 18.3094C29.3607 17.6912 29.4056 14.3987 34.8116 14.1004C29.0482 13.8347 28.8354 16.891 26.3938 17.1288H26.3937Z" fill="#2A4076"/>
<path fill-rule="evenodd" clip-rule="evenodd" d="M17.42 16.7993C17.6608 17.4962 17.2255 17.7241 17.2255 17.7241L11.9965 17.4518C7.21783 17.0173 7.36749 13.3149 2.50732 14.0446C6.74912 14.1118 6.94519 18.2553 11.3416 18.8029C11.8568 18.8686 12.4818 18.9358 13.1267 19.0015C13.5188 19.0408 13.9195 19.0802 14.3067 19.1178C13.3294 19.8426 12.9821 20.8708 12.9821 20.8708C16.0337 20.2904 17.1557 19.4049 17.5047 19.0377C18.5319 18.0505 17.6775 16.8781 17.4198 16.7994L17.42 16.7993Z" fill="#2A4076"/>
<path fill-rule="evenodd" clip-rule="evenodd" d="M19.9512 18.1522C19.9512 18.1522 19.3063 18.5063 18.9106 19.2589C18.9106 19.2589 20.8138 19.0983 22.2398 19.8608C21.5982 18.6704 20.9784 18.4227 19.9512 18.1522Z" fill="#2A4076"/>
<path fill-rule="evenodd" clip-rule="evenodd" d="M29.0974 29.7716H29.4331V30.7751H29.5561V29.7716H29.9119V29.6503H29.0974V29.7716Z" fill="#2A4076"/>
<path fill-rule="evenodd" clip-rule="evenodd" d="M30.8548 29.6503L30.5615 30.5652L30.2688 29.6503H30.0728V30.7751H30.1957V29.8209L30.5016 30.7751H30.622L30.9279 29.8209V30.7751H31.0509V29.6503H30.8548Z" fill="#2A4076"/>
<path fill-rule="evenodd" clip-rule="evenodd" d="M17.6011 12.6051H16.6188C16.0853 12.6051 15.8144 12.651 15.8144 13.0101V13.1379C15.8144 13.4003 15.9323 13.5445 16.5972 13.5445H17.2405C17.5115 13.5445 17.6411 13.5069 17.7541 13.433V13.6069C17.7541 13.7217 17.6543 13.7823 17.4168 13.7823H15.7979V14.0971H17.4201C18.1581 14.0971 18.4057 13.9677 18.4057 13.5249V13.1166C18.4057 12.7377 18.1397 12.605 17.6012 12.605M17.4001 13.2428H16.7984C16.5208 13.2428 16.4493 13.205 16.4493 13.0821C16.4493 12.9575 16.5241 12.9197 16.7866 12.9197H17.415C17.6793 12.9197 17.7541 12.9574 17.7541 13.0821C17.7541 13.205 17.6826 13.2428 17.4001 13.2428Z" fill="#CCCBCC"/>
<path fill-rule="evenodd" clip-rule="evenodd" d="M20.7495 13.1576H20.1062C19.8354 13.1576 19.7056 13.1954 19.5928 13.2675V13.0953C19.5928 12.9805 19.6925 12.9199 19.9285 12.9199H21.4726V12.605H19.9252C19.1888 12.605 18.9395 12.7345 18.9395 13.1772V13.5838C18.9395 13.9642 19.2088 14.097 19.7456 14.097H20.7263C21.2616 14.097 21.5323 14.0495 21.5323 13.6904V13.5641C21.5323 13.3001 21.4144 13.1575 20.7495 13.1575M20.5584 13.7823H19.9318C19.6675 13.7823 19.5928 13.7429 19.5928 13.6183C19.5928 13.4954 19.6659 13.4594 19.9434 13.4594H20.5467C20.8259 13.4594 20.8974 13.4954 20.8974 13.6183C20.8974 13.7429 20.8227 13.7823 20.5584 13.7823Z" fill="#CCCBCC"/>
</svg>
