<svg width="78" height="33" viewBox="0 0 78 33" fill="none" xmlns="http://www.w3.org/2000/svg">
<path d="M72.1661 23.1135C71.9575 23.1135 71.8137 22.9646 71.8137 22.7505V12.1115H68.303C68.0943 12.1115 67.9503 11.9632 67.9503 11.7488V10.2813C67.9503 10.0664 68.0944 9.91771 68.303 9.91771H77.6479C77.8564 9.91771 78 10.0665 78 10.2813V11.7487C78 11.963 77.8564 12.1115 77.6479 12.1115H74.1375V22.7503C74.1375 22.9646 73.993 23.1135 73.7851 23.1135H72.1661ZM45.2736 17.802L43.4307 12.3592L41.5713 17.802H45.2736ZM49.3609 22.6837C49.4415 22.8986 49.313 23.1135 49.0885 23.1135H47.4219C47.1813 23.1135 47.0369 22.9984 46.9565 22.7664L46.0112 19.9633H40.8345L39.8876 22.7664C39.8081 22.9985 39.6633 23.1135 39.4233 23.1135H37.853C37.6444 23.1135 37.4999 22.8986 37.5801 22.6837L41.9237 10.2483C42.0041 10.0166 42.1483 9.91828 42.3882 9.91828H44.5361C44.7768 9.91828 44.9371 10.0167 45.0172 10.2483L49.3609 22.6837ZM61.8114 21.3318C62.8368 21.3318 63.5263 20.8213 64.0875 19.9467L61.4913 17.0764C60.4971 17.6541 59.8556 18.2307 59.8556 19.3856C59.8558 20.5239 60.7529 21.3318 61.8114 21.3318ZM62.5326 11.6661C61.6994 11.6661 61.2185 12.2109 61.2185 12.9365C61.2185 13.4972 61.5064 13.9921 62.1639 14.7181C63.3018 14.0413 63.7829 13.6292 63.7829 12.9037C63.7829 12.2269 63.3663 11.6661 62.5326 11.6661ZM69.6338 22.6516C69.8419 22.8827 69.7139 23.1135 69.4567 23.1135H67.4212C67.1488 23.1135 67.0045 23.0472 66.8283 22.8326L65.6102 21.4476C64.7929 22.5693 63.6539 23.4103 61.763 23.4103C59.423 23.4103 57.5792 21.9589 57.5792 19.4688C57.5792 17.5548 58.5735 16.5319 60.0804 15.6744C59.3424 14.8003 59.0065 13.8765 59.0065 13.0687C59.0065 11.0229 60.4009 9.62109 62.5002 9.62109C64.6481 9.62109 65.9626 10.9246 65.9626 12.8541C65.9626 14.5035 64.8089 15.4264 63.5903 16.1196L65.3858 18.1161L66.3954 16.301C66.5235 16.087 66.6678 16.0042 66.9239 16.0042H68.4783C68.7352 16.0042 68.8795 16.1861 68.7197 16.4663L66.9241 19.6328L69.6338 22.6516ZM53.6378 23.1135C53.8461 23.1135 53.9911 22.9646 53.9911 22.7505V12.1115H57.5008C57.7092 12.1115 57.8533 11.9632 57.8533 11.7488V10.2813C57.8533 10.0664 57.7092 9.91771 57.5008 9.91771H48.1559C47.9472 9.91771 47.8033 10.0665 47.8033 10.2813V11.7487C47.8033 11.963 47.9473 12.1115 48.1559 12.1115H51.6656V22.7503C51.6656 22.9646 51.8103 23.1135 52.0185 23.1135H53.6378Z" fill="black"/>
<path d="M6.20146 29.5309C8.91975 31.6971 12.3317 32.9986 16.0334 32.9986C20.0844 32.9986 23.7774 31.4504 26.5959 28.9088C26.63 28.8777 26.6132 28.8572 26.5795 28.8777C25.3147 29.7473 21.7101 31.6454 16.0336 31.6454C11.1004 31.6454 7.9829 30.5123 6.22236 29.5007C6.18867 29.4836 6.1762 29.5096 6.20146 29.5309ZM17.1218 30.3743C21.0674 30.3743 25.4031 29.2671 27.9962 27.0753C28.7058 26.4781 29.3818 25.6833 29.9871 24.6151C30.3356 24.0005 30.6764 23.2704 30.9541 22.5526C30.9664 22.5176 30.9454 22.5006 30.9198 22.5399C28.5084 26.1931 21.5254 28.4718 14.3151 28.4718C9.21864 28.4718 3.7349 26.794 1.58797 23.5904C1.56684 23.5608 1.54571 23.5735 1.55857 23.6075C3.55859 27.9837 9.62616 30.3743 17.1218 30.3743ZM12.8108 23.1145C4.60476 23.1145 0.735423 19.18 0.0335311 16.4949C0.0248754 16.4561 0 16.4646 0 16.4995C0 17.4034 0.0878827 18.5699 0.239085 19.3442C0.311216 19.7211 0.609175 20.3126 1.04601 20.784C3.03308 22.9163 7.98711 25.904 16.5667 25.904C28.256 25.904 30.9288 21.8955 31.4746 20.5772C31.8649 19.6345 32.0671 17.9308 32.0671 16.4996C32.0671 16.1533 32.0586 15.8767 32.0459 15.6051C32.0459 15.561 32.0211 15.5574 32.0125 15.6003C31.4284 18.8259 21.4412 23.1145 12.8108 23.1145ZM1.54571 9.4214C1.07549 10.3821 0.554277 12.0028 0.399332 12.8416C0.331412 13.201 0.360343 13.3736 0.48277 13.6418C1.46632 15.79 6.44133 19.2273 18.0461 19.2273C25.1258 19.2273 30.6255 17.4368 31.5165 14.1693C31.6806 13.5678 31.6894 12.9327 31.4786 12.0769C31.2431 11.1207 30.8021 10.0056 30.4288 9.22255C30.4165 9.19703 30.3947 9.2008 30.3992 9.23098C30.5378 13.5166 18.9285 16.2787 13.0709 16.2787C6.72611 16.2787 1.43279 13.6763 1.43279 10.3903C1.43279 10.0745 1.49627 9.75872 1.57549 9.43007C1.58345 9.40005 1.5585 9.39507 1.54571 9.4214ZM26.6218 4.15953C26.6892 4.26822 26.7228 4.38422 26.7228 4.54036C26.7228 6.37355 21.2728 9.61655 12.597 9.61655C6.22236 9.61655 5.02889 7.18209 5.02889 5.63388C5.02889 5.08046 5.23506 4.51419 5.68914 3.93909C5.71394 3.90489 5.69288 3.89172 5.66426 3.91717C4.83612 4.63966 4.0752 5.45262 3.4077 6.3302C3.08876 6.74523 2.89077 7.11289 2.89077 7.33317C2.89077 10.5416 10.7055 12.8678 18.0126 12.8678C25.7984 12.8678 29.2731 10.2513 29.2731 7.95186C29.2731 7.13007 28.9624 6.65034 28.1675 5.72026C27.6515 5.11522 27.1634 4.62256 26.6468 4.13761C26.6218 4.11642 26.6044 4.13368 26.6218 4.15953ZM24.235 2.32674C21.8321 0.844032 19.0418 0.000488281 16.0336 0.000488281C13.0044 0.000488281 10.13 0.873494 7.71847 2.39545C6.99514 2.85375 6.58801 3.22101 6.58801 3.69312C6.58801 5.08479 9.74734 6.58114 15.3524 6.58114C20.8993 6.58114 25.2016 4.94214 25.2016 3.36447C25.2016 2.98789 24.8819 2.72443 24.235 2.32674Z" fill="#00A8E0"/>
</svg>
