<svg width="79" height="19" viewBox="0 0 79 19" fill="none" xmlns="http://www.w3.org/2000/svg">
<path d="M41.0177 10.6249L38.0677 3.20769L35.1348 10.5756C35.8979 10.5516 36.6698 10.5377 37.4588 10.5377C38.6767 10.5377 39.8617 10.5674 41.0177 10.6249ZM65.5005 18.1451C59.1786 15.396 52.069 13.3601 43.715 12.6728L46.2588 18.8507H44.2898L41.7789 12.5395C40.3759 12.4618 38.9369 12.4183 37.462 12.4183C36.4159 12.4183 35.3888 12.4397 34.3781 12.4808L31.8431 18.8507H29.8729L32.4521 12.5831C23.5908 13.1643 16.0441 15.264 9.41525 18.1432V17.7541C13.8396 15.2848 18.2146 13.4416 22.9377 12.2376V8.4456L17.6183 0.279835H19.5948L23.8157 7.06474L28.0385 0.279835H30.0125L24.6944 8.4456L24.6931 11.8219C27.3961 11.2351 30.2216 10.8473 33.243 10.6634L37.6268 0.00947571H38.5055L42.9241 10.7481C45.8899 10.985 48.6699 11.4215 51.335 12.0601V1.70049H46.989V0.279835H57.4787V1.70049H53.1347V12.5269C57.42 13.7239 61.4406 15.4649 65.5005 17.7579V18.1451ZM72.5286 0.279835H62.0401V1.70049H66.3855V14.5047H68.1839V1.70049H72.5286V0.279835ZM12.3172 14.5047L10.5188 14.5066V7.48734H2.763V14.5047H0.9646V0.279835H2.763V6.06795H10.5188V0.279835H12.3172V14.5047Z" fill="#4B77A9"/>
<path d="M77.2732 1.38783C77.1873 1.33729 77.0484 1.31266 76.8576 1.31266H76.5645V2.02457H76.8746C77.0218 2.02457 77.1292 2.00877 77.2031 1.98035C77.3364 1.92413 77.4059 1.82306 77.4059 1.67398C77.4059 1.53185 77.3604 1.4371 77.2732 1.38783ZM76.9031 1.0802C77.1437 1.0802 77.3219 1.10357 77.4362 1.14905C77.6377 1.2337 77.7382 1.40046 77.7382 1.64556C77.7382 1.81927 77.675 1.94876 77.5486 2.03215C77.4804 2.07573 77.3882 2.10542 77.265 2.125C77.421 2.14901 77.531 2.21281 77.603 2.3164C77.6712 2.42 77.7072 2.5217 77.7072 2.62087V2.763C77.7072 2.80912 77.7091 2.85775 77.7123 2.90766C77.7154 2.95946 77.7205 2.99293 77.7293 3.01125L77.7413 3.03526H77.421C77.4192 3.02831 77.4173 3.02262 77.4154 3.01631C77.4135 3.00936 77.4135 3.00051 77.4116 2.99293L77.4034 2.92977V2.77437C77.4034 2.54949 77.3396 2.40042 77.2183 2.32777C77.1437 2.28671 77.0187 2.2646 76.8348 2.2646H76.5645V3.03526H76.2183V1.0802H76.9031ZM75.8557 0.97913C75.557 1.27918 75.4091 1.64177 75.4091 2.06499C75.4091 2.49138 75.5563 2.85523 75.8532 3.15591C76.1507 3.45785 76.5114 3.60693 76.9365 3.60693C77.361 3.60693 77.7224 3.45785 78.0218 3.15591C78.318 2.85523 78.4671 2.49138 78.4671 2.06499C78.4671 1.64177 78.318 1.27918 78.0218 0.97913C77.7205 0.680344 77.3591 0.530004 76.9365 0.530004C76.514 0.530004 76.1552 0.680344 75.8557 0.97913ZM78.1961 3.3252C77.85 3.67578 77.4305 3.85013 76.9365 3.85013C76.4432 3.85013 76.0238 3.67578 75.6763 3.3252C75.3327 2.97588 75.1609 2.55644 75.1609 2.0631C75.1609 1.57354 75.3346 1.15411 75.6827 0.806681C76.0288 0.459887 76.447 0.286174 76.9365 0.286174C77.4305 0.286174 77.85 0.459887 78.1961 0.806681C78.5454 1.15095 78.7192 1.57165 78.7192 2.0631C78.7192 2.55455 78.5454 2.97525 78.1961 3.3252Z" fill="#4B77A9"/>
</svg>
