<svg width="143" height="23" viewBox="0 0 143 23" fill="none" xmlns="http://www.w3.org/2000/svg">
<g clip-path="url(#clip0_7_494)">
<path d="M8.30531 11.4292C9.23819 7.94441 8.17422 4.29278 5.62945 2.35765C2.16289 4.53967 0.163964 8.64233 0.88599 12.9167C1.12389 14.3298 1.63923 15.6284 2.36472 16.7663C5.07527 16.0159 7.45844 14.5953 8.30531 11.4292ZM12.9843 21.4855C18.7057 20.5303 22.5634 15.1442 21.6021 9.45748C20.8024 4.7238 16.9211 1.27423 12.3441 0.797689C11.4202 0.70114 10.4658 0.727346 9.50314 0.887342C8.36219 1.07768 7.29822 1.44664 6.32928 1.95766C11.3717 3.65831 14.0829 6.24307 14.2709 8.89198C14.3631 10.5271 13.5988 11.7098 12.5945 12.674L19.7246 12.1788C19.9264 12.165 19.9895 12.3988 19.7454 12.4684L2.73857 17.3166C4.46977 19.6876 7.15812 21.2648 10.144 21.5751C11.0679 21.6717 12.0223 21.6468 12.9843 21.4855ZM12.41 0.174946C18.0107 0.754932 22.3789 5.46102 22.381 11.183C22.3831 17.2973 17.399 22.2565 11.2489 22.2585C5.09885 22.2606 0.111945 17.3056 0.109864 11.1905C0.107783 5.07552 5.09122 0.116327 11.2413 0.114258C11.6352 0.114258 12.0257 0.135637 12.41 0.174946Z" fill="white"/>
<path d="M0.886027 12.9174C1.12393 14.3298 1.63926 15.6284 2.36476 16.7663C5.0753 16.0159 7.45848 14.5953 8.30604 11.4292C9.23823 7.94442 8.17426 4.29278 5.62879 2.35766C2.16292 4.53967 0.164 8.64302 0.886027 12.9174ZM21.6021 9.45679C22.5635 15.1442 18.7057 20.5303 12.9843 21.4855C12.0223 21.6468 11.0679 21.6717 10.1434 21.5751C7.15885 21.2648 4.46911 19.6876 2.7386 17.3166L19.7454 12.4684C19.9896 12.3981 19.9264 12.165 19.7246 12.1788L12.5945 12.674C13.5988 11.7098 14.3632 10.5271 14.2709 8.89198C14.0829 6.24308 11.3717 3.65831 6.32931 1.95767C7.29826 1.44664 8.36222 1.07769 9.50318 0.887346C10.4659 0.72735 11.4203 0.701144 12.3441 0.797693C16.9211 1.27423 20.8024 4.7238 21.6021 9.45679Z" fill="#C70A0C"/>
<path d="M80.0571 15.5291V11.8885H76.386V15.5291H74.3711V6.85754H76.386V10.3119H80.0571V6.85754H82.0873V15.5291H80.0571Z" fill="black"/>
<path d="M36.6287 6.85754V12.2864C36.6287 12.8864 36.7174 13.4057 36.8929 13.8277C37.067 14.2463 37.3195 14.5946 37.6434 14.8622C37.9701 15.1325 38.3647 15.3318 38.8149 15.4546C39.2726 15.5801 39.7893 15.6442 40.3505 15.6442C40.9109 15.6442 41.4228 15.5801 41.8708 15.4546C42.3119 15.3318 42.6879 15.1332 42.9896 14.8649C43.2906 14.5974 43.5271 14.2491 43.6922 13.8298C43.8586 13.4091 43.9419 12.8898 43.9419 12.2864V6.85754H42.0567V12.2284C42.0567 12.7753 41.9201 13.2174 41.6509 13.5415C41.3756 13.8719 40.9379 14.0394 40.3505 14.0394C39.7727 14.0394 39.3385 13.8725 39.0583 13.5429C38.7836 13.2195 38.6442 12.7774 38.6442 12.2284V6.85754H36.6287Z" fill="black"/>
<path d="M30.8163 15.5304V8.47681H28.447V6.85754H35.2151V7.63408C35.2151 8.09889 34.8357 8.47681 34.3682 8.47681H32.8319V15.5304H30.8163Z" fill="black"/>
<path d="M63.2051 6.85686H65.2206V15.5284H63.2051V6.85686Z" fill="black"/>
<path d="M56.4931 11.485L56.5611 11.5712L59.1357 14.8698C59.463 15.2898 59.9576 15.5311 60.4923 15.5311H62.0973L58.4088 10.8664L58.3547 10.7974L58.4088 10.7292L61.4412 6.8541H59.3437L56.5631 10.5919L56.4931 10.6823L56.4924 10.5257V6.8541H54.4768V15.5263H56.4924V11.6395L56.4931 11.485Z" fill="black"/>
<path d="M47.8191 10.8264H48.9941C49.4171 10.8264 49.7397 10.7106 49.9519 10.4837C50.1621 10.2588 50.2689 9.96643 50.2689 9.61541C50.2689 9.25542 50.1648 8.95956 49.9602 8.73474C49.7521 8.50578 49.4275 8.39061 48.9941 8.39061H47.8191V10.8264ZM51.8496 15.5277C51.2524 15.5277 50.6899 15.2125 50.3812 14.7049L48.813 12.1305H47.8191V15.5277H45.8049V6.85754H49.3963C50.3188 6.85754 51.0415 7.09685 51.5437 7.56925C52.0445 8.04027 52.2983 8.68578 52.2983 9.48714C52.2983 9.89402 52.1894 10.3064 51.9744 10.7126C51.7622 11.1119 51.3862 11.4388 50.8556 11.6836L50.7391 11.7374L53.1861 15.5277H51.8496Z" fill="black"/>
<path d="M66.8748 15.1608V13.4981C67.5163 13.7919 68.3431 14.085 69.1976 14.085C70.1811 14.085 70.6798 13.7498 70.6798 13.1071C70.6798 12.3526 70.0105 12.2691 68.6705 11.6961C67.7584 11.2912 66.8893 10.6623 66.8893 9.2099C66.8893 7.5196 68.1863 6.72307 69.982 6.72307C70.9364 6.72307 71.7493 6.94651 72.205 7.11409V8.73474C71.7493 8.52509 70.9364 8.27338 70.1242 8.27338C69.2406 8.27338 68.8272 8.59475 68.8272 9.15335C68.8272 9.74024 69.3266 9.9223 70.2241 10.2575C71.3782 10.8299 72.7182 11.0816 72.7182 13.0374C72.7182 14.7277 71.3644 15.6497 69.5541 15.6497C68.4423 15.6497 67.5593 15.4539 66.8748 15.1608Z" fill="black"/>
<path d="M129.128 15.5284V6.85616H134.59V7.64303C134.59 8.10233 134.214 8.47543 133.753 8.47543H131.144V10.3409H134.073V11.7884H131.144V13.9098H134.59V15.5284H129.128Z" fill="black"/>
<path d="M109.203 15.5277V6.85616H110.182C110.753 6.85616 111.218 7.31821 111.218 7.88579V13.9656H114.435V15.5277H109.203Z" fill="black"/>
<path d="M96.7275 15.5263V6.86031H98.7431L98.7424 15.5263H96.7275Z" fill="black"/>
<path d="M102.606 10.825H103.781C104.204 10.825 104.526 10.7099 104.739 10.483C104.949 10.2575 105.055 9.96575 105.055 9.61403C105.055 9.25473 104.951 8.95819 104.746 8.73336C104.539 8.50509 104.213 8.38923 103.781 8.38923H102.606V10.825ZM106.636 15.5263C106.039 15.5263 105.476 15.2111 105.167 14.7043L103.6 12.1298H102.606V15.5263H100.592V6.85686H104.182C105.105 6.85686 105.827 7.09616 106.33 7.56856C106.831 8.03959 107.085 8.68509 107.085 9.48645C107.085 9.89334 106.976 10.3057 106.76 10.7119C106.549 11.1105 106.172 11.4374 105.642 11.6829L105.526 11.7367L107.973 15.5263H106.636Z" fill="black"/>
<path d="M89.8005 12.3684L90.5919 10.1768C90.7674 9.68368 90.9436 9.163 91.0608 8.77956H91.0899C91.1926 9.17679 91.3687 9.66988 91.5442 10.1768L92.3065 12.3684H89.8005ZM92.2905 6.85547H89.976L86.687 15.5277H88.1387C88.5077 15.5277 88.833 15.2939 88.9481 14.9463L89.2859 13.9284H92.8232L93.3406 15.5277H95.524L92.2905 6.85547Z" fill="black"/>
<path d="M136.209 15.1608V13.4988C136.85 13.7919 137.676 14.085 138.532 14.085C139.515 14.085 140.014 13.7498 140.014 13.1071C140.014 12.3526 139.344 12.2691 138.004 11.6967C137.092 11.2912 136.223 10.663 136.223 9.2099C136.223 7.5196 137.52 6.72307 139.315 6.72307C140.27 6.72307 141.083 6.94651 141.539 7.11409V8.73474C141.083 8.52578 140.27 8.27407 139.458 8.27407C138.575 8.27407 138.161 8.59544 138.161 9.15405C138.161 9.74024 138.66 9.9223 139.557 10.2575C140.712 10.8299 142.052 11.0816 142.052 13.0374C142.052 14.7277 140.698 15.6497 138.888 15.6497C137.776 15.6497 136.893 15.4539 136.209 15.1608Z" fill="black"/>
<path d="M119.592 6.85754H120.841C121.434 6.85754 121.986 7.16167 122.299 7.66235L124.732 11.5478C125.006 11.9795 125.325 12.5498 125.513 12.9533H125.556C125.527 12.5636 125.513 12.0209 125.513 11.6312V6.85754H127.279V15.5284H125.07L122.111 10.8374C121.836 10.4064 121.547 9.89126 121.344 9.50162H121.315C121.33 9.87747 121.358 10.323 121.358 10.7402V15.5284H119.592V6.85754Z" fill="black"/>
<path d="M115.732 15.5263V6.86031H117.747V15.5263H115.732Z" fill="black"/>
</g>
<defs>
<clipPath id="clip0_7_494">
<rect width="142.161" height="22.3624" fill="white" transform="translate(0 0.114258)"/>
</clipPath>
</defs>
</svg>
