<svg width="57" height="41" viewBox="0 0 57 41" fill="none" xmlns="http://www.w3.org/2000/svg">
<path d="M28.8111 28.8261C41.4085 17.6213 44.1581 2.49894 44.1581 2.49894C44.1581 2.49894 37.5171 0 28.8111 0C20.1051 0 13.464 2.49894 13.464 2.49894C13.464 2.49894 16.2132 17.6213 28.8111 28.8261ZM29.078 15.8204C28.5726 15.7342 28.0451 15.6235 27.5112 15.4866C25.9411 15.0845 24.5488 14.526 23.4975 13.9206L19.8795 14.8391C19.7765 14.6489 19.6773 14.461 19.5785 14.273L22.8211 13.4918C21.8594 12.8141 21.3485 12.112 21.501 11.5233C21.5052 11.508 21.5111 11.4935 21.5157 11.4781L18.0162 10.8808C17.9974 10.8944 17.9804 10.9084 17.962 10.922C16.5592 7.73176 15.7666 5.08101 15.3755 3.57062C17.6836 2.88072 22.7531 1.61114 28.8111 1.61114C34.8906 1.61114 39.945 2.87846 42.2471 3.56927C41.6957 5.69954 40.3425 10.1037 37.6021 15.0939C37.2486 14.7016 36.8578 14.3433 36.435 14.0241L34.2078 13.6441C34.6145 14.0869 34.7983 14.5201 34.6986 14.9046C34.6898 14.9333 34.6792 14.9613 34.6668 14.9887L37.0103 16.1426C36.8793 16.3685 36.7465 16.5944 36.61 16.8203L34.0952 15.5805C33.3288 16.0034 31.926 16.1453 30.2305 15.9763L31.8387 19.6387C32.946 19.6947 33.9657 19.6576 34.8585 19.5338C33.0927 22.0953 31.0664 24.4735 28.8111 26.6317C25.4164 23.3986 22.8142 19.8713 20.8361 16.5284C22.4444 17.4402 24.4804 18.2561 26.7571 18.8394C27.9119 19.1367 29.0854 19.3584 30.27 19.5031L29.078 15.8204ZM29.7034 14.7772L29.0771 13.3509C29.8197 13.4132 30.3779 13.2912 30.4703 13.0061L32.8201 13.4073C32.9488 13.6206 32.9966 13.8262 32.9474 14.0155C32.7737 14.6855 31.4481 14.9589 29.7034 14.7772ZM28.233 13.214L28.6925 14.6281C28.4035 14.5739 28.1081 14.5089 27.8085 14.432C25.4076 13.8171 23.5871 12.6917 23.4975 11.8161L26.2839 12.2923C26.5881 12.6226 27.2699 12.97 28.103 13.1828C28.1485 13.1941 28.1917 13.2045 28.2349 13.214H28.233ZM27.4979 10.9378L27.6908 11.5328C27.0604 11.4583 26.5389 11.5098 26.2834 11.6742L23.753 11.2423C24.3223 10.7679 25.7702 10.6495 27.4983 10.9378H27.4979ZM32.1847 11.7149C33.2368 12.1261 34.2523 12.6229 35.2205 13.2L33.281 12.8688C32.712 12.4908 32.1091 12.1646 31.4798 11.8943L32.1847 11.7149ZM23.9896 10.4033C23.1014 10.4611 22.3911 10.6405 21.9564 10.936L18.9012 10.415C19.9121 10.0161 21.2952 9.81368 22.9066 9.82227L23.9896 10.4033ZM25.1283 10.3929L24.1482 9.867C25.2026 9.94059 26.2511 10.0803 27.2874 10.2854L27.4078 10.6581C26.6554 10.5159 25.8936 10.4273 25.1283 10.3929ZM28.1793 12.6971C27.5585 12.5331 27.099 12.2367 27.1528 12.0352C27.1932 11.8834 27.5116 11.8283 27.9302 11.8793V10.7367L27.7758 10.3857C27.8268 10.3965 27.8788 10.4092 27.9302 10.42V4.078H28.8111C30.848 4.078 30.3669 4.81896 32.9667 4.81896C32.9667 4.81896 32.0477 6.13553 30.6821 6.13553C29.3165 6.13553 29.1957 6.25887 28.8111 6.54712V10.6292L28.8814 10.6464C29.765 10.8723 30.6118 11.1348 31.4123 11.423L30.7308 11.5875C30.1027 11.3489 29.4618 11.1441 28.8111 10.9739V11.226C30.1716 11.5915 31.3351 12.1174 32.0808 12.6641L29.9897 12.3072C29.6947 12.1098 29.2853 11.9218 28.8111 11.7745V12.1134C29.1961 12.2747 29.442 12.478 29.4015 12.6284C29.3473 12.8304 28.8005 12.8611 28.1793 12.6971ZM2.0305 32.4514H8.74965L8.52726 34.0924H5.83969L5.6173 39.1499H3.92315L4.14554 34.0924H1.80811L2.0305 32.4514ZM14.5126 32.4514H10.9529C9.92182 32.4514 9.03684 33.2895 8.98675 34.3133L8.84109 37.2858C8.79101 38.31 9.59374 39.1481 10.6248 39.1481H14.1845C15.2161 39.1481 16.1006 38.31 16.1512 37.2858L16.2968 34.3115C16.3469 33.2895 15.5442 32.4514 14.5126 32.4514ZM14.5328 37.2094C14.5246 37.3757 14.3522 37.5388 14.1845 37.5388H10.6248C10.6021 37.5403 10.5793 37.5371 10.5579 37.5293C10.5365 37.5215 10.517 37.5093 10.5008 37.4936C10.4853 37.4766 10.4735 37.4566 10.4664 37.4349C10.4593 37.4132 10.4569 37.3902 10.4594 37.3675L10.6051 34.3942C10.6129 34.2279 10.7857 34.0644 10.9529 34.0644H14.5126C14.5356 34.063 14.5586 34.0666 14.5801 34.0748C14.6016 34.0829 14.6211 34.0956 14.6371 34.1118C14.6526 34.1287 14.6643 34.1486 14.6714 34.1703C14.6786 34.1919 14.681 34.2148 14.6785 34.2374L14.5328 37.2094ZM39.5696 32.4514H36.0104C34.9788 32.4514 34.0939 33.2895 34.0438 34.3133L33.8981 37.2858C33.848 38.31 34.6508 39.1481 35.6823 39.1481H39.2416C40.2731 39.1481 41.1581 38.31 41.2082 37.2858L41.3552 34.3133C41.4039 33.2895 40.6012 32.4514 39.5696 32.4514ZM39.5898 37.2094C39.5816 37.3757 39.4093 37.5388 39.2416 37.5388H35.6823C35.6595 37.5403 35.6366 37.5371 35.6151 37.5293C35.5937 37.5215 35.5741 37.5094 35.5578 37.4936C35.5423 37.4766 35.5306 37.4566 35.5234 37.4349C35.5163 37.4132 35.5139 37.3902 35.5164 37.3675L35.6621 34.3942C35.6704 34.2279 35.8427 34.0644 36.0104 34.0644H39.5696C39.5926 34.063 39.6157 34.0666 39.6371 34.0748C39.6586 34.0829 39.6781 34.0956 39.6941 34.1118C39.7096 34.1287 39.7213 34.1486 39.7285 34.1703C39.7356 34.1919 39.738 34.2148 39.7355 34.2374L39.5898 37.2094ZM22.6902 32.4514H17.4194L16.9975 39.1499H18.7321L18.8401 37.4416H22.6906C23.1961 37.4416 24.6747 36.7305 24.6747 35.568V34.2636C24.6757 33.6035 24.4827 32.4514 22.6902 32.4514ZM23.0063 35.5689C23.0063 35.6737 22.9195 35.8016 22.6902 35.8016H18.943L19.0505 34.0933H22.6902C22.8395 34.0933 23.0063 34.0933 23.0063 34.2645V35.5689ZM27.5493 32.4514H33.0986L32.9989 34.1109H27.5493C27.4358 34.1109 27.3232 34.209 27.3168 34.3025C27.3168 34.3192 27.3131 34.3585 27.3099 34.41L27.1234 37.2112C27.1188 37.2458 27.1216 37.2809 27.1315 37.3143C27.1415 37.3477 27.1584 37.3788 27.1811 37.4055C27.2039 37.4322 27.232 37.454 27.2637 37.4694C27.2955 37.4849 27.3301 37.4938 27.3655 37.4954H30.6803C30.7859 37.4854 30.884 37.4373 30.9557 37.3603C31.0274 37.2834 31.0676 37.1832 31.0686 37.0788L31.0874 36.3948L29.7898 35.2689H32.929L32.7737 37.8587C32.7278 38.5888 31.7486 39.1499 31.2643 39.1499H27.3655C26.764 39.1499 25.3663 38.7266 25.4669 37.2071L25.5064 36.6153L25.6608 34.3038C25.6778 33.9221 26.0927 32.4514 27.5493 32.4514ZM51.1318 34.12L51.0505 35.2233H55.0513L54.9102 36.8913H50.9292L50.7647 39.1504H49.0687L49.5581 32.4514H55.8141L55.6725 34.12H51.1318ZM43.91 37.4773H48.3436V39.149H42.0904L42.5811 32.4514H44.2767L43.91 37.4773Z" fill="#006BA6"/>
</svg>
