<svg width="104" height="19" viewBox="0 0 104 19" fill="none" xmlns="http://www.w3.org/2000/svg">
<path d="M12.4531 7.90335C12.3856 7.90335 12.3288 7.90511 12.2969 7.90866C12.2596 7.97613 12.2046 8.06665 12.1229 8.1927C13.3938 8.1927 14.5476 8.29741 15.8239 8.52638L15.4636 8.8743C14.3115 8.67017 13.3548 8.58855 12.1353 8.58855C11.9578 8.58855 11.9206 8.58855 11.878 8.5903C11.8353 8.65418 11.7395 8.77844 11.6437 8.89384C11.7519 8.88674 11.9614 8.88319 12.2507 8.88319C13.2536 8.88319 14.1908 8.95772 15.208 9.12106L14.8476 9.47073C14.0737 9.35003 13.1276 9.2808 12.2791 9.2808C11.9773 9.2808 11.6348 9.29145 11.3277 9.30919C11.2585 9.38906 11.0774 9.58434 11.0224 9.64467C11.4288 9.60208 11.8762 9.58254 12.4087 9.58254C13.1667 9.58254 13.8909 9.63227 14.576 9.73343L14.2157 10.0796C13.7276 10.0192 13.1347 9.98374 12.6111 9.98374C11.2603 9.98374 10.1952 10.2766 9.09465 10.9493C10.1437 12.0747 11.862 12.7865 13.527 12.7865H13.6832L13.101 13.3493C10.6993 12.8984 8.17164 11.8422 6.03626 10.3955C3.98252 9.0092 3.26363 8.5992 1.66077 7.89095L1.65012 7.47911L2.73467 7.94419L3.10389 7.6513L6.64509 9.2737L6.41433 9.45829L4.59669 8.66842L4.41741 8.80863L5.36176 9.33583C6.15877 9.77961 6.7658 9.97839 7.32674 9.97839C8.55329 9.97839 9.65384 9.10861 10.3638 7.58032C10.8981 7.51105 11.4679 7.47911 12.1531 7.47911C13.5589 7.47911 14.9239 7.61401 16.47 7.90335L16.0937 8.26722C15.1316 8.06665 13.4968 7.90335 12.4531 7.90335ZM9.01123 18.0123C4.40438 18.0123 0.667397 14.2753 0.667397 9.66843C0.667397 5.06158 4.40438 1.32455 9.01123 1.32455C13.6181 1.32455 17.3551 5.06158 17.3551 9.66843C17.3551 14.2753 13.6181 18.0123 9.01123 18.0123ZM9.01123 0.792004C4.1026 0.792004 0.134766 4.75975 0.134766 9.66843C0.134766 14.5771 4.1026 18.5449 9.01123 18.5449C13.9199 18.5449 17.8877 14.5771 17.8877 9.66843C17.8877 4.75975 13.9199 0.792004 9.01123 0.792004ZM32.4619 13.2021H37.5511V15.5861H29.7229V3.75077H32.4619V13.2021ZM43.7054 7.06468H46.2584V15.5861H43.8576V14.6055C43.5025 15.2648 42.7756 15.8396 41.4398 15.8396C39.2588 15.8396 38.126 14.859 38.126 12.0524V7.06468H40.679V11.934C40.679 13.0668 41.1694 13.574 42.2007 13.574C43.1306 13.574 43.7054 13.0668 43.7054 11.934V7.06468ZM48.2198 6.74348C48.2198 4.6808 49.5217 3.58172 51.5675 3.58172C52.227 3.58172 52.6496 3.68317 52.6496 3.68317V5.74585C52.6496 5.74585 52.2945 5.71216 51.9901 5.71216C51.1955 5.71216 50.7727 5.98267 50.7727 6.72657V7.06468H52.6496V9.14431H50.7727V15.5861H48.2198V9.14431H46.9348V7.06468H48.2198V6.74348ZM57.1467 7.06468H59.0911V9.14431H57.1467V12.4582C57.1467 13.3712 57.6201 13.6079 58.3642 13.6079C58.6685 13.6079 59.0911 13.5572 59.0911 13.5572V15.603C59.0911 15.603 58.4994 15.7382 57.874 15.7382C55.8281 15.7382 54.5939 14.8083 54.5939 12.7457V9.14431H53.3088V7.06468H54.5939V4.5793H57.1467V7.06468ZM64.7435 6.81108C66.9079 6.81108 68.0406 7.79167 68.0406 10.5983V15.5861H65.4875V10.7167C65.4875 9.58392 64.9973 9.07676 63.9322 9.07676C62.9682 9.07676 62.3937 9.58392 62.3937 10.7167V15.5861H59.8405V3.76772H62.4103V7.89313C62.85 7.26751 63.5431 6.81108 64.7435 6.81108ZM74.5498 12.2722C74.5498 13.2021 73.6705 13.8954 72.3181 13.8954C71.6589 13.8954 71.2697 13.591 71.2697 13.0161C71.2697 12.5765 71.5403 12.2046 72.4029 12.0863L73.8738 11.8833C74.1273 11.8495 74.3978 11.7988 74.5498 11.7481V12.2722ZM73.1298 6.81112C70.6105 6.81112 69.393 7.77488 69.2919 9.58396H71.777C71.8108 9.11049 72.0814 8.75543 73.1298 8.75543C74.0596 8.75543 74.4993 9.05985 74.4993 9.51624C74.4993 9.92215 74.2454 10.0743 73.62 10.1419L71.9971 10.3109C69.7988 10.5476 68.8014 11.4606 68.8014 13.1177C68.8014 14.6562 69.7483 15.8396 71.7603 15.8396C73.1298 15.8396 73.9415 15.4001 74.6512 14.5208V15.5861H76.9848V9.98971C76.9848 7.63956 75.6153 6.81112 73.1298 6.81112ZM82.8881 6.81108C85.1031 6.81108 86.2358 7.79167 86.2358 10.5983V15.5861H83.6826V10.7167C83.6826 9.58392 83.1925 9.07676 82.1274 9.07676C81.1633 9.07676 80.5888 9.58392 80.5888 10.7167V15.5861H78.0357V7.06472H80.4364V8.04539C80.7917 7.38592 81.5186 6.81108 82.8881 6.81108ZM91.6214 10.2433C93.7854 10.5308 94.8676 11.207 94.8676 12.9823C94.8676 14.7745 93.5996 15.8397 90.9112 15.8397C87.9865 15.8397 86.9548 14.6732 86.9043 12.9653H89.4236C89.4912 13.591 89.9304 13.8954 90.9112 13.8954C91.9087 13.8954 92.3145 13.6586 92.3145 13.1853C92.3145 12.7457 91.9763 12.5428 91.0974 12.4244L90.201 12.306C88.3242 12.0524 87.2424 11.3254 87.2424 9.63465C87.2424 8.01153 88.4428 6.81108 90.9621 6.81108C93.2952 6.81108 94.5466 7.74098 94.6647 9.58392H92.1792C92.0949 9.09371 91.8243 8.78929 90.9621 8.78929C90.1167 8.78929 89.7956 9.07676 89.7956 9.44877C89.7956 9.82061 89.9985 10.0235 90.7254 10.125L91.6214 10.2433ZM101.259 12.2723C101.259 13.2022 100.379 13.8954 99.027 13.8954C98.3673 13.8954 97.9786 13.591 97.9786 13.0161C97.9786 12.5765 98.2491 12.2046 99.1113 12.0863L100.582 11.8833C100.836 11.8496 101.106 11.7988 101.259 11.7481V12.2723ZM99.8382 6.81112C97.3193 6.81112 96.1018 7.77488 96.0004 9.58396H98.4859C98.5197 9.11049 98.7902 8.75556 99.8382 8.75556C100.768 8.75556 101.208 9.05985 101.208 9.51637C101.208 9.92215 100.954 10.0743 100.329 10.1419L98.7055 10.3109C96.5077 10.5477 95.5102 11.4607 95.5102 13.1177C95.5102 14.6562 96.4567 15.8396 98.4688 15.8396C99.8382 15.8396 100.65 15.4001 101.36 14.5208V15.5861H103.693V9.98971C103.693 7.63969 102.324 6.81112 99.8382 6.81112Z" fill="#0A1D3D"/>
</svg>
