<svg width="95" height="27" viewBox="0 0 95 27" fill="none" xmlns="http://www.w3.org/2000/svg">
<g clip-path="url(#clip0_7_464)">
<path fill-rule="evenodd" clip-rule="evenodd" d="M17.2926 23.4035C17.0904 23.4169 16.8943 23.4291 16.6933 23.4291C16.4655 23.4291 16.2462 23.4096 16.0172 23.4035L16.6787 21.8156L17.2926 23.4035ZM18.0284 25.2014C18.1454 25.1953 18.3269 25.1636 18.5084 25.1636C18.6911 25.1636 18.919 25.1953 19.0176 25.2014C18.724 24.5761 18.294 23.6026 18.0479 23.0395C17.814 22.4984 17.4218 21.5945 17.1111 20.7126C17.038 20.7322 16.9735 20.7444 16.9028 20.7444C16.8236 20.7444 16.7591 20.7309 16.6847 20.7126C16.5288 21.2403 16.1512 22.0806 15.4946 23.5378L14.7405 25.2014C14.8294 25.1892 14.922 25.1636 15.0328 25.1636C15.1364 25.1636 15.2607 25.1892 15.3447 25.2014C15.4495 24.8338 15.6566 24.2988 15.8649 23.8017C16.1256 23.7882 16.3851 23.776 16.647 23.776C16.926 23.776 17.2001 23.7882 17.4815 23.8017L17.7543 24.4881L18.0284 25.2014Z" fill="#53616F"/>
<path d="M19.5877 22.2675C19.5877 23.3693 19.5877 24.4344 19.5159 25.2014C19.6596 25.1953 19.8436 25.1636 19.9861 25.1636C20.1347 25.1636 20.2907 25.1953 20.4405 25.2014C20.3893 24.6799 20.3759 23.9824 20.3759 23.0224C20.3759 22.3701 20.3759 21.2549 20.4478 20.7773C20.2907 20.7969 20.1298 20.8164 19.9861 20.8164C19.8886 20.8164 19.6474 20.7908 19.5232 20.7773C19.5877 21.4015 19.5877 21.8608 19.5877 22.2675Z" fill="#53616F"/>
<path fill-rule="evenodd" clip-rule="evenodd" d="M23.4592 23.0102C24.05 22.9014 24.5921 22.5313 24.5921 21.8156C24.5921 21.5444 24.4874 21.2806 24.2937 21.0925C24.0135 20.8286 23.6931 20.7773 23.2716 20.7773C23.1205 20.7773 22.3652 20.8091 22.1959 20.8091C21.8646 20.8091 21.694 20.7896 21.5454 20.7773C21.5917 21.6092 21.5917 21.6983 21.5917 22.5448C21.5917 23.7882 21.5831 23.9311 21.5332 25.2014C21.6757 25.1831 21.8317 25.1636 21.9815 25.1636C22.1447 25.1636 22.2873 25.1892 22.4164 25.2014C22.4164 25.0341 22.3908 24.2023 22.3908 24.0142V23.0993H22.5492C22.9 23.5879 23.3045 24.1559 23.6346 24.6664C23.7333 24.813 23.8758 25.0524 23.9733 25.2014C24.1694 25.1758 24.2474 25.1636 24.5008 25.1636C24.7347 25.1636 24.8979 25.1843 25.0806 25.2014C24.6713 24.6933 24.4959 24.4673 23.9818 23.7504C23.8831 23.6172 23.7406 23.4035 23.6432 23.2667L23.4592 23.0102ZM22.3908 21.1267C22.4883 21.1194 22.7307 21.0937 22.855 21.0937C23.0694 21.0937 23.2838 21.1267 23.4592 21.2562C23.687 21.4247 23.7333 21.6556 23.7333 21.928C23.7333 22.3469 23.4921 22.8184 22.8428 22.8184C22.671 22.8184 22.5151 22.8037 22.392 22.7964V21.1267H22.3908Z" fill="#53616F"/>
<path d="M26.8494 23.6917C26.5448 22.7964 26.1185 21.5383 25.9175 20.7773C25.7542 20.803 25.6129 20.8164 25.4619 20.8164C25.3059 20.8164 25.083 20.7908 24.9539 20.7773C25.2194 21.4736 25.4485 22.0928 25.6251 22.5826C25.9248 23.423 26.1185 24.0032 26.3548 24.7116L26.518 25.2014C26.6082 25.1831 26.713 25.1636 26.7848 25.1636C26.8567 25.1636 26.9213 25.1758 27.0321 25.2014C27.1357 24.8655 27.2599 24.4539 27.3513 24.1901C27.6047 23.4548 27.6376 23.3509 27.9702 22.4349L28.1639 21.8999C28.2369 22.1063 28.3612 22.4349 28.4319 22.6413C28.5037 22.8416 28.8363 23.8273 28.9131 24.0472C29.019 24.3367 29.0434 24.4222 29.2846 25.2002C29.3455 25.1941 29.4661 25.1624 29.5648 25.1624C29.6562 25.1624 29.728 25.1831 29.8255 25.2002C30.074 24.4331 30.1008 24.3562 30.4626 23.3228C30.8208 22.3164 31.0413 21.7435 31.4335 20.7761C31.3349 20.8018 31.2386 20.8152 31.14 20.8152C31.0157 20.8152 30.9121 20.7944 30.8403 20.7761C30.6064 21.614 30.4882 22.0208 30.3018 22.5753C29.9936 23.478 29.9559 23.5818 29.7682 24.074C29.5599 23.5183 29.3577 22.9564 29.1701 22.3897C29.0653 22.0806 28.6682 20.7896 28.6621 20.7773C28.5707 20.7969 28.505 20.8164 28.3758 20.8164C28.2601 20.8164 28.1748 20.7908 28.0895 20.7773C27.8934 21.564 27.2027 23.4609 27.1393 23.6343L26.9761 24.0545L26.8494 23.6917Z" fill="#53616F"/>
<path fill-rule="evenodd" clip-rule="evenodd" d="M33.4157 23.4035C33.2147 23.4169 33.0198 23.4291 32.8175 23.4291C32.591 23.4291 32.3692 23.4096 32.1414 23.4035L32.8054 21.8156L33.4157 23.4035ZM34.1527 25.2014C34.2709 25.1953 34.4512 25.1636 34.6351 25.1636C34.8154 25.1636 35.0444 25.1953 35.1407 25.2014C34.8495 24.5761 34.4195 23.6026 34.1734 23.0395C33.9383 22.4984 33.5448 21.5945 33.2342 20.7126C33.1635 20.7322 33.099 20.7444 33.0271 20.7444C32.9503 20.7444 32.8821 20.7309 32.8115 20.7126C32.6555 21.2403 32.2779 22.0806 31.62 23.5378L30.866 25.2014C30.9549 25.1892 31.0475 25.1636 31.1559 25.1636C31.2631 25.1636 31.3849 25.1892 31.4714 25.2014C31.575 24.8338 31.7845 24.2988 31.9928 23.8017C32.2511 23.7882 32.513 23.776 32.7725 23.776C33.0527 23.776 33.3255 23.7882 33.6057 23.8017L33.8798 24.4881L34.1527 25.2014Z" fill="#53616F"/>
<path d="M36.8852 23.4731C36.8852 23.4157 36.9242 23.3448 36.9693 23.2667C37.2434 22.8025 37.4968 22.3176 37.7891 21.8547C37.8866 21.6983 38.3617 20.9508 38.4604 20.7773C38.3885 20.803 38.3166 20.8164 38.1863 20.8164C38.0425 20.8164 37.911 20.7957 37.8074 20.7773C37.3384 21.796 37.2348 22.0159 36.683 22.9564C36.1287 21.9964 35.8814 21.487 35.5427 20.7773C35.3539 20.8091 35.1639 20.8164 35.0092 20.8164C34.8654 20.8164 34.7156 20.803 34.4756 20.7773C34.8118 21.3392 35.3661 22.2284 35.6987 22.7952L36.0812 23.4548C36.0812 23.853 36.0617 24.6994 36.0434 25.2014C36.1665 25.1892 36.348 25.1636 36.4783 25.1636C36.6282 25.1636 36.7792 25.1892 36.9291 25.2014C36.9035 24.6017 36.8828 24.2548 36.8828 23.7113V23.4731" fill="#53616F"/>
<path d="M38.8366 24.2353C38.8037 24.5443 38.7964 24.6274 38.6843 24.9633C38.9194 25.0805 39.3434 25.293 39.9025 25.293C41.094 25.293 41.5532 24.5394 41.5532 23.8823C41.5532 23.7003 41.5081 23.3192 41.2365 23.0297C41.0477 22.8233 40.8515 22.7512 40.3521 22.5582C39.7783 22.3396 39.4457 22.2101 39.4457 21.7398C39.4457 21.3575 39.7003 21.0424 40.2144 21.0424C40.6225 21.0424 40.9697 21.2354 41.0672 21.6043H41.1561C41.2158 21.3588 41.2292 21.3087 41.3583 20.9899C41.0404 20.8494 40.7529 20.726 40.2778 20.726C39.0997 20.726 38.7599 21.4491 38.7599 22.0171C38.7599 22.5521 38.9499 22.8819 39.5809 23.1604C39.7637 23.2373 40.0707 23.3534 40.2534 23.4316C40.3776 23.4816 40.787 23.6624 40.787 24.173C40.787 24.6371 40.4483 24.9791 39.9342 24.9791C39.5505 24.9791 39.2228 24.8814 38.9255 24.2377H38.8366" fill="#53616F"/>
<path fill-rule="evenodd" clip-rule="evenodd" d="M2.67398 12.3151C2.67398 7.43909 5.3102 6.12237 7.3032 6.12237C10.5071 6.12237 11.8934 8.75459 11.8934 11.5615C11.8934 13.1653 11.6985 14.6762 10.8957 15.8964C10.0966 17.1142 8.76993 17.8495 7.32269 17.8495C3.70946 17.8483 2.67398 14.4441 2.67398 12.3151ZM12.4002 22.2809C12.9837 21.8754 13.9011 21.3722 14.5674 21.0815L10.1538 18.3711C12.868 17.4244 14.5674 15.0243 14.5674 11.7533C14.5674 7.1093 10.992 5.13666 7.34096 5.13666C3.39882 5.13666 0 7.30229 0 12.2186C0 13.2617 0.233898 15.2368 1.8724 16.8809C3.57302 18.586 5.5843 18.8364 7.28249 18.8364C7.49689 18.8364 7.71252 18.8364 7.92571 18.8169L12.4002 22.2809Z" fill="#63003C"/>
<path fill-rule="evenodd" clip-rule="evenodd" d="M23.676 13.1653C23.0706 13.2056 22.4846 13.2447 21.8804 13.2447C21.1957 13.2447 20.5318 13.186 19.8508 13.1653L21.8414 8.40651L23.676 13.1653ZM25.8846 18.5665C26.2355 18.5458 26.7812 18.448 27.3294 18.448C27.8776 18.448 28.5598 18.5458 28.8534 18.5665C27.9727 16.6879 26.685 13.7662 25.9419 12.0819C25.2402 10.4561 24.0683 7.74692 23.1303 5.09515C22.9159 5.155 22.7197 5.19409 22.5041 5.19409C22.2702 5.19409 22.0741 5.155 21.8609 5.09515C21.3919 6.68426 20.2601 9.19923 18.2866 13.5708L16.022 18.5653C16.2973 18.5262 16.5677 18.4468 16.9015 18.4468C17.2134 18.4468 17.5849 18.525 17.8395 18.5653C18.1514 17.4623 18.7788 15.8537 19.4013 14.3647C20.1834 14.3269 20.9643 14.2878 21.7451 14.2878C22.5833 14.2878 23.4056 14.3257 24.2449 14.3647L25.0636 16.4168L25.8846 18.5665Z" fill="#63003C"/>
<path d="M34.5485 8.75462C34.5485 8.01809 34.5692 7.28522 34.5875 6.58655C35.9336 6.58655 37.3211 6.60853 38.4736 6.72335C38.4139 6.4131 38.3749 6.23965 38.3749 6.02712C38.3749 5.87078 38.4139 5.61916 38.4736 5.29181C36.5987 5.38708 34.8798 5.40785 33.2584 5.40785C31.7551 5.40785 29.5867 5.38708 28.0444 5.29181C28.1041 5.52266 28.1419 5.77428 28.1419 6.00758C28.1419 6.23843 28.1041 6.49127 28.0444 6.72335C29.0409 6.62563 30.917 6.58655 31.0924 6.58655H32.0682C32.0889 7.34262 32.1072 8.01931 32.1072 8.73508L32.1279 14.1339C32.1279 15.6057 32.0097 17.0971 31.9318 18.5678C32.6347 18.4908 32.927 18.4493 33.2596 18.4493C33.4923 18.4493 34.1209 18.5091 34.6861 18.5678C34.6277 18.0254 34.5497 17.3866 34.5497 15.9148V8.75462" fill="#63003C"/>
<path fill-rule="evenodd" clip-rule="evenodd" d="M45.4187 13.1653C44.812 13.2056 44.2261 13.2447 43.6218 13.2447C42.9384 13.2447 42.2733 13.186 41.5886 13.1653L43.5816 8.40651L45.4187 13.1653ZM47.6249 18.5665C47.9745 18.5458 48.5227 18.448 49.0697 18.448C49.6167 18.448 50.2989 18.5458 50.5912 18.5665C49.7117 16.6879 48.4265 13.7662 47.6821 12.0819C46.9804 10.4561 45.8085 7.74692 44.8705 5.09515C44.6537 5.155 44.4587 5.19409 44.2443 5.19409C44.0117 5.19409 43.8155 5.155 43.5999 5.09515C43.1321 6.68426 42.0004 9.19923 40.0269 13.5708L37.7634 18.5653C38.0363 18.5262 38.3092 18.4468 38.6405 18.4468C38.9536 18.4468 39.3227 18.525 39.5798 18.5653C39.8941 17.4623 40.5178 15.8537 41.1415 14.3647C41.9212 14.3269 42.7021 14.2878 43.4842 14.2878C44.3247 14.2878 45.1434 14.3257 45.9852 14.3647L46.805 16.4168L47.6249 18.5665Z" fill="#63003C"/>
<path fill-rule="evenodd" clip-rule="evenodd" d="M58.4572 11.9866C60.2333 11.6568 61.8536 10.5538 61.8536 8.40529C61.8536 7.5918 61.5405 6.79908 60.9557 6.23843C60.1176 5.44571 59.1589 5.29181 57.8895 5.29181C57.4412 5.29181 55.1765 5.38708 54.6673 5.38708C53.672 5.38708 53.164 5.32845 52.7133 5.29181C52.851 7.78723 52.851 8.05839 52.851 10.5941C52.851 14.3281 52.8302 14.7532 52.6743 18.5665C53.1043 18.5079 53.5721 18.4481 54.0204 18.4481C54.5089 18.4481 54.939 18.5262 55.33 18.5665C55.33 18.0621 55.2521 15.5667 55.2521 15.0048V12.2577H55.7199C56.7748 13.7271 57.9857 15.4311 58.9822 16.9603C59.2734 17.4062 59.7059 18.1207 59.9982 18.5665C60.5842 18.4896 60.8181 18.4481 61.5795 18.4481C62.2824 18.4481 62.7709 18.5079 63.3166 18.5665C62.0862 17.0373 61.56 16.3594 60.0177 14.2121C59.7253 13.8053 59.2941 13.1665 59.0017 12.761L58.4572 11.9866ZM55.2545 6.33493C55.5469 6.31661 56.2681 6.23843 56.6408 6.23843C57.2853 6.23843 57.9297 6.33493 58.4572 6.72213C59.1406 7.22537 59.2758 7.92037 59.2758 8.73264C59.2758 9.99073 58.5546 11.4052 56.6018 11.4052C56.0938 11.4052 55.6248 11.3661 55.2557 11.3465V6.33493H55.2545Z" fill="#63003C"/>
<path d="M87.6469 12.0232C87.6469 12.1466 85.8792 12.2638 83.3575 12.3628C82.9129 12.1112 82.573 11.8595 82.3269 11.6433C85.3858 11.7521 87.6469 11.8827 87.6469 12.0232Z" fill="#77838F"/>
<path d="M85.8354 7.80188C85.8354 7.90448 84.3516 8.00342 82.2356 8.08648C82.5401 7.90937 82.8532 7.73348 83.1785 7.55515C84.7804 7.63088 85.8354 7.71393 85.8354 7.80188Z" fill="#77838F"/>
<path d="M70.0523 16.8846C69.0717 16.8956 68.2116 16.9005 67.5392 16.9005C66.5743 16.9005 65.791 16.6061 65.791 16.2384C65.791 15.8757 66.5743 15.5813 67.5392 15.5813C68.398 15.5813 69.5577 15.5898 70.8868 15.6069C70.3727 16.3435 70.1266 16.7856 70.1047 16.8113C70.0901 16.8321 70.0718 16.8577 70.0523 16.8846Z" fill="#77838F"/>
<path d="M70.5797 17.7689C70.9061 18.1549 71.2144 18.481 71.6298 18.8365C71.6298 18.8365 71.7857 19.0575 72.2608 18.867C72.7432 18.674 73.1525 18.4065 73.6155 17.7933C74.9628 17.8153 76.3954 17.8459 77.8025 17.8776C77.9194 18.0437 78.1533 18.3894 78.4445 18.8169C74.5194 18.9183 70.2593 18.9781 68.0774 18.9781C67.1674 18.9781 66.4304 18.6984 66.4304 18.3552C66.4304 18.0132 67.1662 17.7335 68.0774 17.7335C68.7414 17.7335 69.5966 17.7384 70.5784 17.7506C70.576 17.7591 70.5797 17.7689 70.5797 17.7689Z" fill="#77838F"/>
<path d="M69.062 21.0131C68.2555 21.0131 67.6025 20.7664 67.6025 20.4634C67.6025 20.1593 68.2555 19.9126 69.062 19.9126C71.1975 19.9126 75.5709 19.9773 79.3181 20.0823C79.4984 20.3389 79.6787 20.5941 79.8517 20.8274C75.9924 20.9386 71.2986 21.0131 69.062 21.0131Z" fill="#77838F"/>
<path d="M81.5059 22.7744C78.3592 22.9112 72.9503 23.004 70.7015 23.004C70.068 23.004 69.5552 22.8086 69.5552 22.5716C69.5552 22.3335 70.0693 22.1393 70.7015 22.1393C72.8529 22.1393 77.9 22.2211 81.0868 22.3493C81.2306 22.502 81.3719 22.6449 81.5059 22.7744Z" fill="#77838F"/>
<path d="M73.2963 23.9446C75.1516 23.9446 80.8029 24.0838 80.8029 24.2512C80.8029 24.4234 75.1516 24.5577 73.2963 24.5577C72.9332 24.5577 72.6421 24.4234 72.6421 24.2512C72.6421 24.0838 72.9345 23.9446 73.2963 23.9446Z" fill="#77838F"/>
<path d="M73.3171 12.6229C70.983 12.662 68.8865 12.6852 67.5392 12.6852C66.5743 12.6852 65.791 12.3884 65.791 12.0244C65.791 11.6592 66.5743 11.3624 67.5392 11.3624C69.1058 11.3624 71.6774 11.3929 74.4659 11.4442C74.0505 11.8498 73.668 12.2443 73.3171 12.6229Z" fill="#77838F"/>
<path d="M84.7767 9.67068C86.146 9.74397 87.0061 9.82337 87.0061 9.90765C87.0061 10.0005 85.9645 10.0884 84.3503 10.169C84.6963 9.91009 84.7706 9.68534 84.7767 9.67068Z" fill="#77838F"/>
<path d="M68.0774 10.5294C67.1674 10.5294 66.4304 10.2497 66.4304 9.90767C66.4304 9.56566 67.1662 9.28473 68.0774 9.28473C69.9413 9.28473 73.3255 9.32992 76.7195 9.40565C76.3041 9.75254 75.9081 10.097 75.5354 10.4353C72.5568 10.494 69.7257 10.5294 68.0774 10.5294Z" fill="#77838F"/>
<path d="M78.2205 8.21107C74.7498 8.29779 70.9904 8.35153 69.0607 8.35153C68.2543 8.35153 67.6013 8.10602 67.6013 7.80188C67.6013 7.49774 68.2543 7.24979 69.0607 7.24979C71.1902 7.24979 75.5526 7.31697 79.295 7.42201C79.1086 7.55515 78.9185 7.69073 78.7297 7.8312C78.5579 7.95701 78.3874 8.08526 78.2205 8.21107Z" fill="#77838F"/>
<path d="M70.7015 6.12361C70.068 6.12361 69.5552 5.93062 69.5552 5.69121C69.5552 5.45181 70.0693 5.25882 70.7015 5.25882C73.0868 5.25882 79.0414 5.36142 82.0626 5.51166C81.8701 5.63747 81.6789 5.76694 81.4827 5.89642C78.3324 6.032 72.943 6.12361 70.7015 6.12361Z" fill="#77838F"/>
<path d="M67.3587 14.8044C66.3756 14.8044 65.5776 14.5052 65.5776 14.1302C65.5776 13.7601 66.3756 13.4596 67.3587 13.4596C68.5939 13.4596 70.4371 13.4779 72.5263 13.5085C72.1329 13.9653 71.793 14.3891 71.5006 14.769C69.8402 14.791 68.3868 14.8044 67.3587 14.8044Z" fill="#77838F"/>
<path d="M72.6421 4.01172C72.6421 3.84072 72.9332 3.70514 73.2963 3.70514C75.1516 3.70514 80.8029 3.84072 80.8029 4.01172C80.8029 4.18028 75.1516 4.31953 73.2963 4.31953C72.9345 4.31953 72.6421 4.18028 72.6421 4.01172Z" fill="#77838F"/>
<path d="M87.8333 13.6343C87.8467 13.9678 87.8443 14.3024 87.8284 14.6273C84.538 14.7556 81.4218 14.9535 81.4218 15.1733C81.4218 15.3895 84.4698 15.585 87.72 15.7132C87.6615 16.0845 87.5884 16.4498 87.4971 16.8064C84.2944 16.9371 81.3219 17.1277 81.3219 17.3426C81.3219 17.5503 84.0958 17.7359 87.1718 17.8666C87.0293 18.2538 86.8697 18.6325 86.6894 18.9953C84.0507 19.1198 81.8689 19.2884 81.8689 19.4716C81.8689 19.6426 83.7754 19.8014 86.1765 19.9223C86.0437 20.1398 85.9012 20.3547 85.755 20.5563C85.5991 20.7761 85.4297 20.9923 85.2482 21.2061C83.7462 21.3209 82.7168 21.4467 82.7168 21.586C82.7168 21.7032 83.455 21.8144 84.5916 21.9133C83.9703 22.5228 83.237 23.092 82.3732 23.5867C82.3732 23.5867 81.3524 22.7182 80.5155 21.7032C79.765 20.7981 78.1777 18.4138 77.8001 17.8788C77.4261 17.3439 77.1812 17.1875 76.7439 17.3439C76.1567 17.5491 75.4733 17.6541 75.2625 17.6541C75.053 17.6541 74.9373 17.5723 75.2905 17.433C75.6402 17.2938 77.0265 16.644 77.7063 15.3053C78.4737 13.798 77.7988 11.7142 77.7988 11.7142C77.543 12.8269 76.9595 13.2434 76.9595 13.2434C77.1471 12.2101 76.9412 11.272 76.4259 10.6137L76.1384 11.9231C76.1384 11.9231 75.9581 11.9145 75.5135 12.2846C75.0676 12.6559 74.9458 13.197 74.9458 13.197C75.2966 13.3363 75.7169 12.9894 75.7169 12.9894C75.1797 14.9816 74.4098 16.6037 73.8457 17.4623C73.2841 18.3198 72.8212 18.6435 72.2584 18.8682C71.7833 19.0576 71.6274 18.8377 71.6274 18.8377C71.212 18.4822 70.9025 18.1561 70.5773 17.7701C70.5773 17.7701 70.5517 17.7249 70.6394 17.7274C70.8721 17.7298 71.2838 17.3365 71.3752 17.1753C71.4775 16.9896 71.4666 16.8467 71.413 16.837C71.3642 16.8272 71.2753 16.975 70.8294 17.2559C70.3836 17.5344 70.1801 17.339 70.0327 17.1851C69.9182 17.0617 70.0291 16.909 70.1034 16.8125C70.1704 16.7282 72.5167 12.3897 78.7296 7.83242C86.8709 1.8583 92.0678 0.247211 92.365 0.129952C92.5624 0.0530006 92.884 -0.0483798 92.9559 0.0261287C93.0375 0.109187 93.0765 0.176367 93.0655 0.274083C93.0558 0.370578 93.0022 0.420657 92.627 0.584332C89.5022 1.94869 85.8549 4.22303 83.7815 5.54709C81.233 6.77831 78.8002 8.53475 78.7101 8.57628C78.5139 8.69721 78.6589 8.87187 78.7783 8.79981C83.0822 5.96238 88.1317 4.03126 93.7063 2.44704C93.9731 2.37009 94.1193 2.37009 94.1631 2.43116C94.2119 2.49468 94.2338 2.56797 94.2411 2.6498C94.2484 2.75118 94.1643 2.80493 93.9353 2.89409C87.9454 5.09881 83.5293 7.14596 80.6885 9.04043C80.6885 9.04043 80.3936 9.21632 80.3912 9.4203C80.39 9.49726 80.5496 9.50581 80.5496 9.50581C81.9725 9.53146 83.8716 9.61574 84.7756 9.66704C84.7756 9.66704 84.6464 10.1214 83.7803 10.4866C83.1115 10.7676 82.4951 10.7224 81.8811 10.7285C81.7434 10.7248 81.6301 10.8616 81.7386 11.007C81.7946 11.079 83.0981 13.1579 87.8333 13.6343Z" fill="#63003C"/>
<path d="M44.4223 24.5052H43.6195C43.6195 24.5052 43.5098 24.0166 43.7998 23.8273C44.0922 23.638 44.4223 23.4926 44.4223 23.4926V24.5052ZM48.2304 22.673C48.2304 22.673 47.7419 22.9515 47.4337 23.2227C47.1255 23.4926 47.4971 23.5965 47.4971 23.5965V24.5052H45.1666V21.3221C45.1666 21.3221 44.3187 22.0965 44.2396 22.1991C44.1579 22.309 44.4406 22.408 44.4406 22.408L44.3931 22.7085C44.3931 22.7085 44.0556 22.8831 43.6438 23.1592C43.2357 23.4303 42.9336 23.776 42.9336 24.0166C42.9336 24.256 42.8313 25.2027 42.8313 25.2027H48.2316V22.673H48.2304ZM43.4087 21.5078C43.6743 21.5078 43.8619 21.4039 43.8619 21.1951C43.8619 20.9838 43.7352 20.8372 43.4087 20.8372C43.1164 20.8372 43.0384 20.9642 43.0384 21.1951C43.0396 21.4272 43.1383 21.5078 43.4087 21.5078ZM44.4016 21.5078C44.6708 21.5078 44.8511 21.4039 44.8511 21.1951C44.8511 20.9838 44.7281 20.8372 44.4016 20.8372C44.108 20.8372 44.0312 20.9642 44.0312 21.1951C44.0312 21.4272 44.1324 21.5078 44.4016 21.5078ZM45.9049 25.475C45.6161 25.475 45.5345 25.5996 45.5345 25.8305C45.5345 26.0601 45.6381 26.1444 45.9049 26.1444C46.1716 26.1444 46.3605 26.0406 46.3605 25.8305C46.3605 25.6192 46.2374 25.475 45.9049 25.475ZM46.9379 25.475C46.6467 25.475 46.5676 25.5996 46.5676 25.8305C46.5676 26.0601 46.6723 26.1444 46.9379 26.1444C47.2083 26.1444 47.3923 26.0406 47.3923 25.8305C47.3923 25.6192 47.2693 25.475 46.9379 25.475ZM58.5719 21.4467C58.8399 21.4467 59.0263 21.3441 59.0263 21.134C59.0263 20.9251 58.9032 20.7773 58.5719 20.7773C58.2831 20.7773 58.204 20.9032 58.204 21.134C58.204 21.3673 58.3063 21.4467 58.5719 21.4467ZM59.6037 21.4467C59.8693 21.4467 60.0556 21.3441 60.0556 21.134C60.0556 20.9251 59.9302 20.7773 59.6037 20.7773C59.3113 20.7773 59.2321 20.9032 59.2321 21.134C59.2333 21.3673 59.3345 21.4467 59.6037 21.4467ZM62.4507 21.5334C62.3057 21.658 62.3483 21.8082 62.5323 21.7863V25.2075H63.2973V20.9483C63.2973 20.9471 62.5932 21.4076 62.4507 21.5334ZM59.3759 23.4523H58.8825C58.8825 23.1812 59.3759 23.0321 59.3759 23.0321V23.4523ZM56.1159 24.0166C56.1159 24.1412 56.1098 24.3428 56.105 24.5052H51.7827V23.7516C51.896 23.4633 52.0873 23.4291 52.3821 23.4291H55.5397C56.2219 23.4291 56.1159 23.7833 56.1159 24.0166ZM61.1703 21.7838V24.5064H60.1409V22.0342C60.1409 22.0342 59.9302 22.1136 59.6427 22.2406C59.3576 22.3677 58.3221 22.7842 58.3221 23.3473V23.9983H59.3747V24.5064H56.8737C56.8773 24.3867 56.8785 24.2108 56.8785 23.9543C56.8785 23.1421 56.1817 22.7011 55.5592 22.7011H52.6696C52.164 22.7011 51.9192 22.8233 51.7815 22.9613V20.8653C51.7815 20.8653 51.3308 21.1792 50.9982 21.4284C50.6681 21.6788 50.9982 21.8473 50.9982 21.8473V24.5077H50.0517L50.0297 22.2248C50.0297 22.2248 49.3719 22.7024 49.1831 22.8477C48.9979 22.9918 49.1015 23.1213 49.3073 23.1213C49.3073 23.1213 49.2696 24.8081 49.2696 25.2051C49.2696 25.6057 48.9382 26.0626 48.2341 25.8549C48.2341 25.8549 48.0099 25.8964 48.1963 26.0638C48.3815 26.2299 48.6044 26.3557 48.8529 26.3557C49.1015 26.3557 50.0102 26.1847 50.0102 25.2051H61.9305V20.9483C61.9305 20.9483 61.23 21.4076 61.0863 21.5334C60.9413 21.6543 60.9827 21.8034 61.1703 21.7838Z" fill="#63003C"/>
</g>
<defs>
<clipPath id="clip0_7_464">
<rect width="94.2416" height="26.3557" fill="white"/>
</clipPath>
</defs>
</svg>
