<svg width="33" height="38" viewBox="0 0 33 38" fill="none" xmlns="http://www.w3.org/2000/svg">
<path fill-rule="evenodd" clip-rule="evenodd" d="M16.4943 37.3522C11.106 35.147 7.00826 32.0086 4.31382 28.0227C2.15033 24.8222 0.879798 21.069 0.537425 16.8668C-0.0147851 10.0881 2.05962 4.2919 2.30886 3.62584C2.94162 3.32313 8.45925 0.799805 16.4943 0.799805C24.5291 0.799805 30.0469 3.323 30.6797 3.62584C30.9289 4.2919 33.0034 10.0881 32.4511 16.8667C32.1087 21.0689 30.8382 24.8222 28.6747 28.0227C25.9801 32.0086 21.8825 35.147 16.4943 37.3522Z" fill="#633492"/>
<path fill-rule="evenodd" clip-rule="evenodd" d="M16.4941 36.5053C11.3974 34.367 7.51837 31.3667 4.96147 27.5842C2.87406 24.4966 1.6478 20.8692 1.31639 16.8026C0.826862 10.7956 2.45357 5.5792 2.93336 4.1986C4.25845 3.61065 9.35126 1.58105 16.4941 1.58105C23.6367 1.58105 28.7297 3.61065 30.0549 4.1986C30.5347 5.57906 32.1611 10.7955 31.6717 16.8026C31.3404 20.8692 30.114 24.4965 28.0268 27.5842C25.4697 31.3667 21.5906 34.3671 16.4941 36.5053ZM16.4941 35.6559C11.6893 33.5868 8.02834 30.7251 5.60912 27.1465C3.59807 24.1716 2.41607 20.67 2.09577 16.7393C1.6524 11.2972 2.98629 6.53023 3.56273 4.77884C5.25727 4.06688 9.99648 2.36287 16.4943 2.36287C22.9919 2.36287 27.731 4.06661 29.4258 4.7787C30.0022 6.5301 31.3361 11.2972 30.8927 16.7391C30.5723 20.67 29.3903 24.1716 27.3793 27.1464C24.96 30.7251 21.299 33.5869 16.4944 35.6559" fill="white"/>
<path fill-rule="evenodd" clip-rule="evenodd" d="M9.67614 26.4651C9.55944 26.3511 9.42149 26.2604 9.26621 26.1957C9.11039 26.1304 8.9413 26.0977 8.76341 26.0977C8.58566 26.0977 8.41644 26.1304 8.26048 26.1957C8.10534 26.2604 7.96739 26.3511 7.85069 26.4651C7.734 26.5791 7.64112 26.7139 7.57492 26.8655C7.50832 27.0177 7.47461 27.183 7.47461 27.357C7.47461 27.5309 7.50845 27.6961 7.57492 27.8482C7.64112 27.9997 7.73372 28.1344 7.85069 28.2487C7.96739 28.3627 8.10534 28.4534 8.26048 28.5182C8.41617 28.5833 8.58539 28.6162 8.76341 28.6162C8.9413 28.6162 9.11053 28.5833 9.26621 28.5182C9.42149 28.4534 9.55931 28.3627 9.67614 28.2487C9.7927 28.1348 9.88544 28 9.95191 27.8482C10.0185 27.6959 10.0522 27.5306 10.0522 27.357C10.0522 27.1833 10.0185 27.018 9.95191 26.8655C9.8853 26.7138 9.79257 26.5789 9.67614 26.4651ZM9.62889 27.357C9.62889 27.4778 9.60642 27.5924 9.56215 27.6966C9.51802 27.801 9.45588 27.8925 9.37777 27.9686C9.29938 28.0451 9.20624 28.1063 9.10092 28.1503C8.89176 28.2383 8.63494 28.2383 8.42592 28.1503C8.32059 28.1061 8.22745 28.0451 8.14907 27.9685C8.07095 27.8925 8.00895 27.801 7.96481 27.6966C7.92068 27.5924 7.89821 27.4781 7.89821 27.357C7.89821 27.2358 7.92068 27.1213 7.96481 27.0171C8.00895 26.913 8.07095 26.8214 8.1492 26.7452C8.22772 26.6688 8.32073 26.6076 8.42605 26.5635C8.5307 26.5195 8.64442 26.4972 8.76355 26.4972C8.88268 26.4972 8.99627 26.5195 9.10092 26.5635C9.2061 26.6076 9.29911 26.6687 9.37777 26.7452C9.45588 26.8213 9.51802 26.9128 9.56215 27.017C9.60628 27.1215 9.62876 27.2358 9.62876 27.357H9.62889Z" fill="white"/>
<path fill-rule="evenodd" clip-rule="evenodd" d="M12.0319 27.6482C12.2947 27.4997 12.4233 27.2461 12.4233 26.959C12.4233 26.4988 12.1234 26.126 11.5656 26.126H10.6719V28.5887H11.0952V26.5358H11.5418C11.7755 26.5358 11.9649 26.7252 11.9649 26.9588C11.9649 27.1924 11.7755 27.3819 11.5418 27.3819H11.2173L12.2155 28.5885H12.7851L12.0319 27.648" fill="white"/>
<path fill-rule="evenodd" clip-rule="evenodd" d="M14.9741 28.1927H13.721V26.1133H13.2979V28.5749H14.7683L14.9741 28.1927Z" fill="white"/>
<path fill-rule="evenodd" clip-rule="evenodd" d="M16.6066 25.9443L15.3545 28.5746H15.8209L16.6066 26.9025L16.8609 27.4412H16.6066L16.4294 27.8234H17.0417L17.3922 28.5747H17.8586L16.6066 25.9443Z" fill="white"/>
<path fill-rule="evenodd" clip-rule="evenodd" d="M18.3253 27.0706L19.9529 28.6463V26.2023H19.4869V27.609L17.9277 26.0332V27.7263L18.3253 28.4773V27.0705" fill="white"/>
<path fill-rule="evenodd" clip-rule="evenodd" d="M22.1791 26.4792C22.0658 26.3698 21.9303 26.2827 21.7758 26.2202C21.6216 26.1577 21.4532 26.126 21.2756 26.126H20.4414V28.5888H21.2756C21.4534 28.5888 21.6216 28.557 21.7758 28.4944C21.9303 28.4319 22.0658 28.3448 22.1791 28.2354C22.2922 28.1259 22.3826 27.9947 22.4479 27.8453C22.5134 27.6954 22.5465 27.5312 22.5465 27.3574C22.5465 27.1834 22.5134 27.0195 22.4479 26.8695C22.3826 26.7199 22.2922 26.5887 22.1791 26.4792ZM20.8649 26.5082H21.2338C21.3558 26.5082 21.4718 26.5301 21.5789 26.5733C21.6864 26.6166 21.7819 26.677 21.8626 26.7528C21.9429 26.8281 22.0071 26.9189 22.0536 27.0226C22.0997 27.1256 22.1232 27.2382 22.1232 27.3572C22.1232 27.4784 22.0998 27.5915 22.0538 27.6935C22.0075 27.7961 21.9432 27.8863 21.8626 27.9618C21.7819 28.0375 21.6864 28.0979 21.5789 28.1414C21.4719 28.1844 21.3558 28.2063 21.2338 28.2063H20.8649V26.5082Z" fill="white"/>
<path fill-rule="evenodd" clip-rule="evenodd" d="M25.4128 26.8655C25.3462 26.7138 25.2535 26.5789 25.1371 26.4651C25.0202 26.3511 24.8824 26.2604 24.7271 26.1957C24.5713 26.1306 24.4022 26.0977 24.2244 26.0977C24.0465 26.0977 23.8774 26.1306 23.7214 26.1957C23.5663 26.2604 23.4283 26.3511 23.3116 26.4651C23.1949 26.5791 23.1021 26.7139 23.0359 26.8655C22.9693 27.0177 22.9355 27.183 22.9355 27.357C22.9355 27.5309 22.9694 27.6961 23.0359 27.8482C23.1022 27.9997 23.1949 28.1344 23.3116 28.2487C23.4283 28.3627 23.5663 28.4534 23.7214 28.5182C23.8771 28.5833 24.0463 28.6162 24.2242 28.6162C24.4021 28.6162 24.5715 28.5833 24.7271 28.5182C24.8824 28.4534 25.0202 28.3627 25.1371 28.2487C25.2536 28.1348 25.3464 28 25.4128 27.8482C25.4793 27.6959 25.5132 27.5306 25.5132 27.357C25.5133 27.1833 25.4794 27.018 25.4128 26.8655ZM25.0897 27.357C25.0897 27.4778 25.0674 27.5924 25.0231 27.6966C24.979 27.801 24.9168 27.8925 24.8387 27.9686C24.76 28.0451 24.6672 28.1063 24.5619 28.1503C24.3526 28.2383 24.0957 28.2383 23.8867 28.1503C23.7813 28.1061 23.6883 28.0451 23.6099 27.9685C23.5318 27.8925 23.4698 27.801 23.4256 27.6966C23.3815 27.5924 23.3589 27.4781 23.3589 27.357C23.3589 27.2358 23.3813 27.1213 23.4256 27.0171C23.4698 26.913 23.5319 26.8214 23.61 26.7452C23.6884 26.6688 23.7815 26.6076 23.8869 26.5635C23.9915 26.5195 24.1052 26.4972 24.2244 26.4972C24.3436 26.4972 24.4572 26.5195 24.562 26.5635C24.667 26.6076 24.7602 26.6687 24.8388 26.7452C24.9171 26.8213 24.979 26.9128 25.0232 27.017C25.0675 27.1215 25.0898 27.2358 25.0898 27.357H25.0897Z" fill="white"/>
<path fill-rule="evenodd" clip-rule="evenodd" d="M14.7151 31.0585C14.6828 31.1075 14.646 31.1527 14.6043 31.1933C14.5258 31.2697 14.4328 31.3309 14.3275 31.375C14.1183 31.463 13.8615 31.463 13.6525 31.375C13.547 31.3307 13.4539 31.2696 13.3756 31.1933C13.2974 31.1173 13.2354 31.0259 13.1912 30.9214C13.1471 30.8171 13.1246 30.7027 13.1246 30.5816C13.1246 30.4605 13.1471 30.3461 13.1912 30.2419C13.2354 30.1378 13.2975 30.0461 13.3756 29.9699C13.4542 29.8936 13.5473 29.8324 13.6525 29.7882C13.7571 29.7442 13.8707 29.722 13.99 29.722C14.1091 29.722 14.2228 29.7442 14.3275 29.7882C14.4327 29.8324 14.5255 29.8934 14.6043 29.9699C14.646 30.0104 14.6828 30.0557 14.7151 30.1049V29.5387C14.6458 29.493 14.5714 29.4533 14.4928 29.4204C14.337 29.3553 14.1679 29.3223 13.99 29.3223C13.8122 29.3223 13.643 29.3553 13.4872 29.4204C13.3319 29.4853 13.1941 29.576 13.0773 29.69C12.9606 29.8038 12.8677 29.9386 12.8015 30.0901C12.7349 30.2424 12.7012 30.4076 12.7012 30.5816C12.7012 30.7555 12.735 30.921 12.8015 31.0731C12.8678 31.2245 12.9606 31.3593 13.0773 31.4734C13.1938 31.5874 13.3319 31.6781 13.487 31.743C13.6426 31.8081 13.812 31.841 13.99 31.841C14.1677 31.841 14.3371 31.8081 14.4928 31.743C14.5716 31.7102 14.6456 31.6704 14.7149 31.6245L14.7151 31.0585Z" fill="white"/>
<path fill-rule="evenodd" clip-rule="evenodd" d="M15.3262 29.3223H15.7496V31.7851H15.3262V29.3223Z" fill="white"/>
<path fill-rule="evenodd" clip-rule="evenodd" d="M17.9195 29.3096H16.2744V29.6916H16.9577V31.7712H17.3807V29.6916H18.1724L17.9197 29.3096" fill="white"/>
<path fill-rule="evenodd" clip-rule="evenodd" d="M20.1533 29.3223L19.4952 30.2604L18.8371 29.3223H18.3369C18.3506 29.3503 19.2836 30.7035 19.2836 30.7035V31.7851H19.7069V30.7035L20.6622 29.3223H20.1533Z" fill="white"/>
<path fill-rule="evenodd" clip-rule="evenodd" d="M24.4777 15.0109C27.1997 14.864 27.1099 13.2637 27.1099 13.2637C25.5154 13.962 24.9781 12.772 24.3254 12.6393C26.5746 11.8664 26.2408 10.1718 26.2408 10.1718C25.3658 11.3027 24.0445 10.3008 23.4013 10.3983C25.2111 9.19555 24.5152 7.49749 24.5152 7.49749C24.176 8.77154 21.9495 8.39383 21.9495 8.39383C23.1813 6.57583 22.0841 5.34023 22.0841 5.34023C22.1763 6.68142 19.8378 7.02786 19.8378 7.02786C20.4444 4.65169 19.0841 4.05223 19.0841 4.05223C19.3534 5.18237 17.7803 6.07669 17.7803 6.07669L16.4947 3.56934L15.2089 6.07669C15.2089 6.07669 13.6358 5.18237 13.905 4.05223C13.905 4.05223 12.5449 4.65169 13.1515 7.02786C13.1515 7.02786 10.813 6.68156 10.9051 5.34023C10.9051 5.34023 9.80781 6.57596 11.0396 8.39383C11.0396 8.39383 8.81331 8.7714 8.47392 7.49749C8.47392 7.49749 7.77807 9.19541 9.58782 10.3983C8.94463 10.3008 7.6232 11.3027 6.74838 10.1718C6.74838 10.1718 6.41454 11.8664 8.66372 12.6393C8.0112 12.772 7.47401 13.9621 5.87925 13.2637C5.87925 13.2637 5.78963 14.864 8.51142 15.0109C7.53629 15.5839 7.74558 16.7097 5.95736 16.5193C5.95736 16.5193 6.54369 17.9866 8.95451 17.354C8.2148 18.1319 8.5982 19.1409 6.93141 19.4558C6.93141 19.4558 8.01837 20.7802 10.107 19.4259C9.7171 20.1545 10.2647 21.254 8.80059 21.9811C8.80059 21.9811 10.3153 22.8645 11.9082 20.9739C11.8375 22.1138 12.5346 22.9702 11.4233 23.9472C11.4233 23.9472 13.0974 24.4032 14.0787 22.0583C14.2518 23.0462 15.2014 23.4515 14.4459 25.0121C14.4459 25.0121 15.6972 25.1085 16.4947 23.0643C17.2922 25.1085 18.5434 25.0121 18.5434 25.0121C17.7878 23.4516 18.7374 23.0463 18.9105 22.0583C19.892 24.4033 21.566 23.9472 21.566 23.9472C20.4547 22.9702 21.1517 22.1138 21.0812 20.9739C22.6741 22.8643 24.1887 21.9811 24.1887 21.9811C22.7246 21.2539 23.2723 20.1545 22.8823 19.4259C24.9709 20.7802 26.0577 19.4558 26.0577 19.4558C24.3912 19.141 24.7746 18.1319 24.0348 17.354C26.4456 17.9865 27.0319 16.5193 27.0319 16.5193C25.2437 16.7096 25.453 15.5839 24.4779 15.0109M12.8287 8.40046C13.9145 8.40046 13.821 7.56057 13.7043 7.36495C13.7043 7.36495 14.6092 7.4053 15.3681 7.96333C15.3681 7.96333 16.2731 6.92781 16.4948 6.0993C16.7167 6.92768 17.6215 7.96333 17.6215 7.96333C18.3803 7.4053 19.2851 7.36495 19.2851 7.36495C19.1684 7.56057 19.075 8.40046 20.1609 8.40046C21.2468 8.40046 21.4742 8.75719 21.4742 8.75719C21.1592 8.6941 20.7155 8.63061 19.5421 9.02768C18.3686 9.42461 18.6257 8.40046 18.6257 8.40046C16.9618 8.52136 16.495 9.45006 16.495 9.45006C16.495 9.45006 16.0281 8.52122 14.3643 8.40046C14.3643 8.40046 14.6211 9.42461 13.4479 9.02768C12.2744 8.63061 11.8308 8.6941 11.5156 8.75719C11.5156 8.75705 11.7432 8.40046 12.8291 8.40046H12.8287ZM17.1893 16.1885C16.7339 16.4648 16.4947 16.8574 16.4947 16.8574C16.4947 16.8574 16.2552 16.4648 15.8001 16.1885C15.8001 16.1885 15.8526 15.865 15.7386 15.8436C15.6249 15.8221 15.292 15.8349 15.292 15.8349C15.292 15.8349 14.7623 15.6193 14.6703 15.1877C14.6703 15.1877 14.9592 15.2697 15.3445 15.149C15.7298 15.0281 15.8874 15.1663 16.0099 15.218C16.1324 15.2699 16.261 15.2871 16.4946 15.2871C16.7281 15.2871 16.8566 15.2697 16.9792 15.218C17.1017 15.1663 17.2593 15.0282 17.6446 15.149C18.03 15.2697 18.3189 15.1877 18.3189 15.1877C18.2269 15.6193 17.6971 15.8349 17.6971 15.8349C17.6971 15.8349 17.3644 15.8221 17.2508 15.8436C17.1369 15.865 17.1893 16.1885 17.1893 16.1885ZM14.7084 12.7958C14.1421 12.7842 12.7003 12.6807 12.6478 11.576V11.5473C12.6478 11.5473 13.4465 11.421 13.7511 11.5473C14.3056 11.7775 14.7842 12.8303 15.6832 12.042C15.6832 12.042 15.082 13.3712 14.7084 14.0326C14.7084 14.0326 15.2747 12.8072 14.7084 12.7958ZM18.281 12.7958C17.7147 12.8073 18.281 14.0326 18.281 14.0326C17.9074 13.371 17.3062 12.042 17.3062 12.042C18.2052 12.8303 18.6839 11.7776 19.2386 11.5473C19.543 11.421 20.3419 11.5473 20.3419 11.5473V11.576C20.2891 12.6807 18.8473 12.7842 18.281 12.7958ZM22.5659 16.2879C20.9372 15.9685 20.2891 16.7108 20.2891 16.7108C21.3487 16.8574 21.8025 18.1046 21.8025 18.1046C21.0261 17.6299 20.1665 17.738 20.1665 17.738C21.2173 20.3828 17.7189 20.9954 16.4946 22.4495C15.2701 20.9954 11.772 20.3827 12.8227 17.738C12.8227 17.738 11.963 17.6301 11.1866 18.1046C11.1866 18.1046 11.6406 16.8576 12.7 16.7108C12.7 16.7108 12.052 15.9687 10.4234 16.2879C10.4234 16.2879 11.2727 15.2869 12.3322 15.4766C12.3322 15.4766 11.7892 14.5361 10.2219 14.4411C10.2219 14.4411 10.4759 14.1045 11.4041 14.0355C11.4041 14.0355 10.6977 13.2328 11.0186 11.76C11.0186 11.76 10.4699 11.3287 10.6684 10.04C10.6684 10.04 10.8754 11.0852 11.3165 10.9548C11.623 10.8641 11.4828 10.4815 11.242 10.5103C11.242 10.5103 11.312 10.2256 11.7628 10.04C12.2139 9.85457 12.3321 9.83738 12.3145 9.47916C12.3145 9.47916 12.6341 9.34541 12.748 9.65177C12.8618 9.95813 12.551 10.1049 12.3933 10.1349C12.2357 10.1653 12.0168 10.23 11.9205 10.4112C11.9205 10.4112 12.2533 10.5235 11.9905 10.8168C11.7279 11.1102 10.7735 13.3108 13.0152 14.8383C13.0152 14.8383 12.9627 15.5458 13.7595 16.2103C13.7595 16.2103 13.418 16.1787 13.3583 16.193C13.2984 16.2074 13.278 16.8518 13.3583 16.8748C13.4385 16.8978 14.6877 16.8748 14.6877 16.8748C14.6877 16.8748 13.4296 17.2545 13.3805 17.2991C13.3313 17.3436 13.3948 17.6803 13.4356 17.6858C13.4764 17.6915 14.495 17.3839 15.0206 17.3494C15.0206 17.3494 13.8296 17.893 13.6282 18.0569C13.6282 18.0569 13.8207 18.4798 14.0835 18.6264C14.0835 18.6264 15.8056 18.0051 16.4944 17.4442C17.1832 18.0051 18.9055 18.6264 18.9055 18.6264C19.1682 18.4797 19.3608 18.0569 19.3608 18.0569C19.1592 17.893 17.9686 17.3494 17.9686 17.3494C18.494 17.3839 19.5127 17.6916 19.5535 17.6858C19.5943 17.6801 19.6577 17.3436 19.6084 17.2991C19.5593 17.2545 18.3013 16.8748 18.3013 16.8748C18.3013 16.8748 19.5506 16.8978 19.6308 16.8748C19.711 16.8518 19.6906 16.2074 19.6308 16.193C19.5709 16.1787 19.2295 16.2103 19.2295 16.2103C20.0263 15.5458 19.9738 14.8383 19.9738 14.8383C22.2155 13.3109 21.261 11.1102 20.9984 10.8168C20.7357 10.5233 21.0685 10.4112 21.0685 10.4112C20.9722 10.23 20.7533 10.1653 20.5957 10.1349C20.438 10.1049 20.1272 9.95813 20.241 9.65177C20.3549 9.34541 20.6744 9.47916 20.6744 9.47916C20.6569 9.83738 20.7751 9.85457 21.2261 10.04C21.6771 10.2256 21.7471 10.5103 21.7471 10.5103C21.5063 10.4815 21.3663 10.8641 21.6727 10.9548C22.1135 11.085 22.3207 10.04 22.3207 10.04C22.5192 11.3288 21.9705 11.76 21.9705 11.76C22.2916 13.2328 21.5852 14.0355 21.5852 14.0355C22.5134 14.1045 22.7674 14.4411 22.7674 14.4411C21.1999 14.5361 20.6571 15.4766 20.6571 15.4766C21.7167 15.2868 22.566 16.2879 22.566 16.2879H22.5659Z" fill="#FDE192"/>
<path fill-rule="evenodd" clip-rule="evenodd" d="M16.4949 18.3672C16.4949 18.3672 14.5547 18.4454 14.2766 19.0755C14.2256 19.191 14.2766 20.0162 14.2766 20.0162C14.2766 20.0162 14.44 20.0508 14.5685 19.9615C14.5685 19.9615 14.548 20.3268 14.8136 20.5109C15.0791 20.695 15.4966 20.9539 15.5054 20.9539C15.5142 20.9539 15.7594 20.7698 15.8995 20.7582C16.0395 20.7467 16.3431 21.2759 16.495 21.4255C16.6468 21.2759 16.9503 20.7467 17.0903 20.7582C17.2307 20.7698 17.4757 20.9539 17.4845 20.9539C17.4933 20.9539 17.9107 20.6949 18.1762 20.5109C18.4419 20.3268 18.4215 19.9615 18.4215 19.9615C18.55 20.0508 18.7134 20.0162 18.7134 20.0162C18.7134 20.0162 18.7644 19.1911 18.7134 19.0755C18.4354 18.4453 16.4952 18.3672 16.4952 18.3672" fill="#FDE192"/>
</svg>
