<svg xmlns="http://www.w3.org/2000/svg" width="178" height="32" fill="none" xmlns:v="https://vecta.io/nano"><g clip-path="url(#A)"><g fill-rule="evenodd" fill="#0fc500"><path d="M0 .238C.237.216.474.151.712.151l10.74.022c1.165.022 2.372.173 3.515.497 2.394.648 3.796 2.528 4.097 4.991.367 3.003-.776 5.272-3.105 7.044-.863.648-1.79 1.21-2.739 1.815l7.871 10.782h-1.466c-1.315 0-2.631.022-3.925-.022-.259 0-.604-.173-.733-.367L7.828 14.671c-.108-.151-.216-.324-.216-.497v-1.815l4.054-1.469c1.337-.605 2.264-1.642 2.545-3.176.367-2.031-.647-3.371-2.696-3.414L4.83 4.278v20.937H.022L0 .238zM85.118 0l3.299.627c.647.151 1.488.238 1.855.67.323.367.108 1.21.129 1.837V5.38l-3.58-.972c-2.049-.432-4.141-.475-6.211-.086-3.537.627-5.521 2.658-6.081 6.201-.28 1.729-.194 3.435.216 5.121.776 3.176 2.847 4.991 6.017 5.553 3.062.54 6.06.173 8.971-.907l.625-.216v4.213c-1.919.756-3.925 1.08-5.974 1.188-2.48.13-4.938-.043-7.332-.799-3.601-1.167-5.909-3.587-6.901-7.217-.841-3.09-.906-6.244-.129-9.356C71.101 3.868 73.947 1.491 78.11.54c.884-.194 1.79-.324 2.696-.497C82.25 0 83.695 0 85.118 0zM178 24.74c-3.019.691-6.038.864-9.014-.065-2.653-.799-4.335-2.614-5.068-5.294a13.65 13.65 0 0 1-.194-6.331c.582-2.831 2.243-4.732 5.003-5.596 3.062-.951 6.168-.799 9.251-.086v3.695c-1.746-.41-3.515-.605-5.305-.497-2.566.173-4.14 1.556-4.485 3.954-.108.756-.086 1.556-.022 2.334.259 2.917 2.027 4.624 4.939 4.645 1.617 0 3.234-.302 4.873-.475L178 24.74zM42.397 7.627V.194h4.637a6.53 6.53 0 0 1 .022.648v22.709c0 .389.022.67-.496.799-2.976.691-5.995 1.102-9.057.908-3.623-.216-6.103-2.118-7.095-5.488-.28-.951-.453-1.966-.474-2.96-.022-1.361.022-2.766.28-4.084.625-3.219 2.76-5.142 5.995-5.661 2.006-.324 3.99-.281 5.909.54a1.51 1.51 0 0 1 .28.022zm0 8.6V12.1a.69.69 0 0 0-.431-.713 6.75 6.75 0 0 0-4.054-.605c-1.876.281-2.955 1.361-3.256 3.241a9.7 9.7 0 0 0 .151 4.019c.474 1.966 1.79 3.176 3.666 3.22 1.121.022 2.221-.173 3.343-.281.474-.043.625-.281.625-.778l-.043-3.976zm12.271 1.469c.043 1.556.647 2.723 2.049 3.198 1.057.367 2.221.605 3.343.627 1.941.022 3.86-.195 5.866-.324l-.022 3.327a.44.44 0 0 1-.28.302c-3.343.519-6.707.864-10.028-.151-3.364-1.015-5.025-3.457-5.478-6.849-.259-1.902-.172-3.803.345-5.661.733-2.658 2.48-4.343 5.133-4.991a12.59 12.59 0 0 1 6.081 0c2.954.735 4.615 2.722 5.089 5.661.237 1.448.108 2.939.151 4.408.022.497-.302.475-.647.475H55.401c-.216-.022-.431-.022-.733-.022zm.043-3.328h7.785c-.065-2.528-1.186-3.738-3.472-3.846-2.674-.108-4.054 1.124-4.313 3.846zm55.056 3.328H97.626c-.043 1.361.496 2.355 1.596 3.025a5.63 5.63 0 0 0 3.041.799l6.599-.281-.022 3.22c0 .13-.216.346-.367.367-2.976.497-5.973.735-8.971.108-3.946-.821-6.211-3.5-6.513-7.541-.129-1.75-.108-3.479.367-5.186.733-2.593 2.372-4.3 4.982-4.991 2.092-.54 4.227-.562 6.318-.022 2.976.778 4.723 2.917 5.133 6.115.194 1.448.216 2.895-.022 4.386zM97.669 14.39h7.678c.258-2.247-1.1-3.738-3.429-3.868-2.351-.13-4.163.994-4.249 3.868zm19.883 10.869h-4.636V6.828l3.321.022c.129 0 .302.216.345.367l.496 2.226 1.1-.907c2.415-1.837 5.089-2.182 7.893-1.232 2.458.843 3.407 2.874 3.493 5.272l.043 9.788v2.874h-4.658v-.692l.022-10.458c.108-3.111-1.812-3.803-4.098-3.371-1.142.216-2.156.756-3.04 1.512-.173.151-.259.497-.259.756v11.56c-.022.238-.022.454-.022.713zm24.391-18.431v3.716h-4.054l-.044.519v7.995c0 .302.044.605.108.907.194.972.841 1.534 1.833 1.577.345.022.69 0 1.035 0h1.079v3.673c-.065.022-.173.065-.259.065-1.51 0-3.019.022-4.529-.043-2.135-.108-3.472-1.361-3.838-3.457a7.88 7.88 0 0 1-.108-1.232V4.322l.021-.475 3.214.022c.107 0 .258.238.301.367l.496 2.096c.087.411.259.519.669.519h3.386c.215-.022.431-.022.69-.022zm7.31 18.43h-4.636V6.828l3.364.022c.108 0 .259.216.302.367l.474 1.815 2.351-1.534c.82-.475 1.747-.67 2.76-.648v3.716c-.301.043-.647.043-.948.151-.712.238-1.445.454-2.092.8-1.079.562-1.661 1.318-1.596 2.701.129 3.436.043 6.893.043 10.328-.022.238-.022.454-.022.713zm-122.339.001h-4.572V6.871h4.572v18.388zm133.64 0h-4.572V6.871h4.572v18.388zM22.342.173h4.572v3.652h-4.572V.173zm133.64 3.673V.194h4.593v3.652h-4.593z"/></g><path d="M172.307 32h-.41v-3.198h-1.121v-.367h2.674v.367h-1.143V32zm3.235 0l-1.208-3.155h-.022l.043.886V32h-.388v-3.565h.626l1.121 2.939h.022l1.143-2.939h.625V32h-.41v-2.29c0-.259.022-.54.043-.864h-.021L175.887 32h-.345z" fill="#0fc500"/></g><defs><clipPath id="A"><path fill="#fff" d="M0 0h178v32H0z"/></clipPath></defs></svg>